<svg width="671" height="214" viewBox="0 0 671 214" fill="none" xmlns="http://www.w3.org/2000/svg">
<rect x="172.893" y="11.893" width="318.214" height="63.2139" rx="31.607" fill="#456AA0" stroke="#456AA0" stroke-width="1.78607"/>
<path d="M253.265 50L249.473 44.544L251.153 43.504L255.617 50H253.265ZM245.857 50V38.8H247.905V50H245.857ZM247.281 45.28V43.488H251.057V45.28H247.281ZM251.345 44.64L249.441 44.384L253.265 38.8H255.473L251.345 44.64ZM262.098 50V48.272L261.986 47.904V44.88C261.986 44.2933 261.81 43.84 261.458 43.52C261.106 43.1893 260.573 43.024 259.858 43.024C259.378 43.024 258.904 43.0987 258.434 43.248C257.976 43.3973 257.586 43.6053 257.266 43.872L256.482 42.416C256.941 42.064 257.485 41.8027 258.114 41.632C258.754 41.4507 259.416 41.36 260.098 41.36C261.336 41.36 262.29 41.6587 262.962 42.256C263.645 42.8427 263.986 43.7547 263.986 44.992V50H262.098ZM259.41 50.112C258.77 50.112 258.21 50.0053 257.73 49.792C257.25 49.568 256.877 49.264 256.61 48.88C256.354 48.4853 256.226 48.0427 256.226 47.552C256.226 47.072 256.338 46.64 256.562 46.256C256.797 45.872 257.176 45.568 257.698 45.344C258.221 45.12 258.914 45.008 259.778 45.008H262.258V46.336H259.922C259.24 46.336 258.781 46.448 258.546 46.672C258.312 46.8853 258.194 47.152 258.194 47.472C258.194 47.8347 258.338 48.1227 258.626 48.336C258.914 48.5493 259.314 48.656 259.826 48.656C260.317 48.656 260.754 48.544 261.138 48.32C261.533 48.096 261.816 47.7653 261.986 47.328L262.322 48.528C262.13 49.0293 261.784 49.4187 261.282 49.696C260.792 49.9733 260.168 50.112 259.41 50.112ZM270.349 50.112C269.453 50.112 268.653 49.9253 267.949 49.552C267.256 49.168 266.712 48.6453 266.317 47.984C265.923 47.3227 265.725 46.5707 265.725 45.728C265.725 44.8747 265.923 44.1227 266.317 43.472C266.712 42.8107 267.256 42.2933 267.949 41.92C268.653 41.5467 269.453 41.36 270.349 41.36C271.181 41.36 271.912 41.5307 272.541 41.872C273.181 42.2027 273.667 42.6933 273.997 43.344L272.461 44.24C272.205 43.8347 271.891 43.536 271.517 43.344C271.155 43.152 270.76 43.056 270.333 43.056C269.843 43.056 269.4 43.1627 269.005 43.376C268.611 43.5893 268.301 43.8987 268.077 44.304C267.853 44.6987 267.741 45.1733 267.741 45.728C267.741 46.2827 267.853 46.7627 268.077 47.168C268.301 47.5627 268.611 47.8667 269.005 48.08C269.4 48.2933 269.843 48.4 270.333 48.4C270.76 48.4 271.155 48.304 271.517 48.112C271.891 47.92 272.205 47.6213 272.461 47.216L273.997 48.112C273.667 48.752 273.181 49.248 272.541 49.6C271.912 49.9413 271.181 50.112 270.349 50.112ZM275.758 50V41.456H283.95V50H281.966V42.688L282.43 43.152H277.294L277.758 42.688V50H275.758ZM286.649 50V41.456H288.649V47.088L293.369 41.456H295.193V50H293.193V44.368L288.489 50H286.649ZM297.883 50V41.456H299.883V47.088L304.603 41.456H306.427V50H304.427V44.368L299.723 50H297.883ZM302.027 40.448C301.174 40.448 300.518 40.2507 300.059 39.856C299.6 39.4507 299.366 38.864 299.355 38.096H300.683C300.694 38.48 300.811 38.784 301.035 39.008C301.27 39.232 301.595 39.344 302.011 39.344C302.416 39.344 302.736 39.232 302.971 39.008C303.216 38.784 303.344 38.48 303.355 38.096H304.715C304.704 38.864 304.464 39.4507 303.995 39.856C303.536 40.2507 302.88 40.448 302.027 40.448ZM313.005 50.112C312.109 50.112 311.309 49.9253 310.605 49.552C309.912 49.168 309.368 48.6453 308.973 47.984C308.579 47.3227 308.381 46.5707 308.381 45.728C308.381 44.8747 308.579 44.1227 308.973 43.472C309.368 42.8107 309.912 42.2933 310.605 41.92C311.309 41.5467 312.109 41.36 313.005 41.36C313.837 41.36 314.568 41.5307 315.197 41.872C315.837 42.2027 316.323 42.6933 316.653 43.344L315.117 44.24C314.861 43.8347 314.547 43.536 314.173 43.344C313.811 43.152 313.416 43.056 312.989 43.056C312.499 43.056 312.056 43.1627 311.661 43.376C311.267 43.5893 310.957 43.8987 310.733 44.304C310.509 44.6987 310.397 45.1733 310.397 45.728C310.397 46.2827 310.509 46.7627 310.733 47.168C310.957 47.5627 311.267 47.8667 311.661 48.08C312.056 48.2933 312.499 48.4 312.989 48.4C313.416 48.4 313.811 48.304 314.173 48.112C314.547 47.92 314.861 47.6213 315.117 47.216L316.653 48.112C316.323 48.752 315.837 49.248 315.197 49.6C314.568 49.9413 313.837 50.112 313.005 50.112ZM324.542 50L321.454 45.904L323.086 44.896L326.894 50H324.542ZM318.414 50V41.456H320.414V50H318.414ZM319.822 46.576V44.912H322.718V46.576H319.822ZM323.278 45.968L321.406 45.744L324.542 41.456H326.686L323.278 45.968ZM328.305 50V41.456H330.305V47.088L335.025 41.456H336.849V50H334.849V44.368L330.145 50H328.305ZM339.539 50V41.456H341.539V47.088L346.259 41.456H348.083V50H346.083V44.368L341.379 50H339.539ZM343.683 40.448C342.83 40.448 342.174 40.2507 341.715 39.856C341.257 39.4507 341.022 38.864 341.011 38.096H342.339C342.35 38.48 342.467 38.784 342.691 39.008C342.926 39.232 343.251 39.344 343.667 39.344C344.073 39.344 344.393 39.232 344.627 39.008C344.873 38.784 345.001 38.48 345.011 38.096H346.371C346.361 38.864 346.121 39.4507 345.651 39.856C345.193 40.2507 344.537 40.448 343.683 40.448ZM359.276 50.16C358.572 50.16 357.942 50.0533 357.388 49.84C356.833 49.6267 356.353 49.3013 355.948 48.864C355.553 48.416 355.249 47.8507 355.036 47.168C354.822 46.4853 354.716 45.6747 354.716 44.736C354.716 44.0533 354.774 43.4293 354.892 42.864C355.009 42.2987 355.185 41.792 355.42 41.344C355.654 40.8853 355.948 40.48 356.3 40.128C356.662 39.776 357.084 39.4827 357.564 39.248C358.044 39.0133 358.588 38.832 359.196 38.704L363.164 37.856L363.452 39.648L359.852 40.384C359.649 40.4267 359.404 40.4907 359.116 40.576C358.838 40.6507 358.55 40.768 358.252 40.928C357.964 41.0773 357.692 41.296 357.436 41.584C357.19 41.8613 356.988 42.224 356.828 42.672C356.678 43.1093 356.604 43.6587 356.604 44.32C356.604 44.5227 356.609 44.6773 356.62 44.784C356.641 44.88 356.657 44.9867 356.668 45.104C356.689 45.2107 356.7 45.3707 356.7 45.584L355.948 44.8C356.161 44.256 356.454 43.792 356.828 43.408C357.212 43.0133 357.654 42.7147 358.156 42.512C358.668 42.2987 359.222 42.192 359.82 42.192C360.62 42.192 361.329 42.3573 361.948 42.688C362.566 43.0187 363.052 43.4827 363.404 44.08C363.756 44.6773 363.932 45.3547 363.932 46.112C363.932 46.9013 363.74 47.6 363.356 48.208C362.972 48.816 362.428 49.296 361.724 49.648C361.03 49.9893 360.214 50.16 359.276 50.16ZM359.436 48.544C359.916 48.544 360.337 48.4427 360.7 48.24C361.073 48.0267 361.361 47.7387 361.564 47.376C361.777 47.0133 361.884 46.608 361.884 46.16C361.884 45.712 361.777 45.3227 361.564 44.992C361.361 44.6507 361.073 44.3787 360.7 44.176C360.337 43.9733 359.905 43.872 359.404 43.872C358.924 43.872 358.492 43.968 358.108 44.16C357.734 44.352 357.441 44.6187 357.228 44.96C357.025 45.2907 356.924 45.6747 356.924 46.112C356.924 46.56 357.03 46.9707 357.244 47.344C357.457 47.7173 357.75 48.0107 358.124 48.224C358.508 48.4373 358.945 48.544 359.436 48.544ZM370.942 50V48.272L370.83 47.904V44.88C370.83 44.2933 370.654 43.84 370.302 43.52C369.95 43.1893 369.417 43.024 368.702 43.024C368.222 43.024 367.747 43.0987 367.278 43.248C366.819 43.3973 366.43 43.6053 366.11 43.872L365.326 42.416C365.785 42.064 366.329 41.8027 366.958 41.632C367.598 41.4507 368.259 41.36 368.942 41.36C370.179 41.36 371.134 41.6587 371.806 42.256C372.489 42.8427 372.83 43.7547 372.83 44.992V50H370.942ZM368.254 50.112C367.614 50.112 367.054 50.0053 366.574 49.792C366.094 49.568 365.721 49.264 365.454 48.88C365.198 48.4853 365.07 48.0427 365.07 47.552C365.07 47.072 365.182 46.64 365.406 46.256C365.641 45.872 366.019 45.568 366.542 45.344C367.065 45.12 367.758 45.008 368.622 45.008H371.102V46.336H368.766C368.083 46.336 367.625 46.448 367.39 46.672C367.155 46.8853 367.038 47.152 367.038 47.472C367.038 47.8347 367.182 48.1227 367.47 48.336C367.758 48.5493 368.158 48.656 368.67 48.656C369.161 48.656 369.598 48.544 369.982 48.32C370.377 48.096 370.659 47.7653 370.83 47.328L371.166 48.528C370.974 49.0293 370.627 49.4187 370.126 49.696C369.635 49.9733 369.011 50.112 368.254 50.112ZM379.193 50.112C378.297 50.112 377.497 49.9253 376.793 49.552C376.1 49.168 375.556 48.6453 375.161 47.984C374.766 47.3227 374.569 46.5707 374.569 45.728C374.569 44.8747 374.766 44.1227 375.161 43.472C375.556 42.8107 376.1 42.2933 376.793 41.92C377.497 41.5467 378.297 41.36 379.193 41.36C380.025 41.36 380.756 41.5307 381.385 41.872C382.025 42.2027 382.51 42.6933 382.841 43.344L381.305 44.24C381.049 43.8347 380.734 43.536 380.361 43.344C379.998 43.152 379.604 43.056 379.177 43.056C378.686 43.056 378.244 43.1627 377.849 43.376C377.454 43.5893 377.145 43.8987 376.921 44.304C376.697 44.6987 376.585 45.1733 376.585 45.728C376.585 46.2827 376.697 46.7627 376.921 47.168C377.145 47.5627 377.454 47.8667 377.849 48.08C378.244 48.2933 378.686 48.4 379.177 48.4C379.604 48.4 379.998 48.304 380.361 48.112C380.734 47.92 381.049 47.6213 381.305 47.216L382.841 48.112C382.51 48.752 382.025 49.248 381.385 49.6C380.756 49.9413 380.025 50.112 379.193 50.112ZM388.365 50.112C387.469 50.112 386.669 49.9253 385.965 49.552C385.271 49.168 384.727 48.6453 384.333 47.984C383.938 47.3227 383.741 46.5707 383.741 45.728C383.741 44.8747 383.938 44.1227 384.333 43.472C384.727 42.8107 385.271 42.2933 385.965 41.92C386.669 41.5467 387.469 41.36 388.365 41.36C389.197 41.36 389.927 41.5307 390.557 41.872C391.197 42.2027 391.682 42.6933 392.013 43.344L390.477 44.24C390.221 43.8347 389.906 43.536 389.533 43.344C389.17 43.152 388.775 43.056 388.349 43.056C387.858 43.056 387.415 43.1627 387.021 43.376C386.626 43.5893 386.317 43.8987 386.093 44.304C385.869 44.6987 385.757 45.1733 385.757 45.728C385.757 46.2827 385.869 46.7627 386.093 47.168C386.317 47.5627 386.626 47.8667 387.021 48.08C387.415 48.2933 387.858 48.4 388.349 48.4C388.775 48.4 389.17 48.304 389.533 48.112C389.906 47.92 390.221 47.6213 390.477 47.216L392.013 48.112C391.682 48.752 391.197 49.248 390.557 49.6C389.927 49.9413 389.197 50.112 388.365 50.112ZM397.633 50.112C396.683 50.112 395.851 49.9253 395.137 49.552C394.433 49.168 393.883 48.6453 393.489 47.984C393.105 47.3227 392.913 46.5707 392.913 45.728C392.913 44.8747 393.099 44.1227 393.473 43.472C393.857 42.8107 394.379 42.2933 395.041 41.92C395.713 41.5467 396.475 41.36 397.329 41.36C398.161 41.36 398.902 41.5413 399.553 41.904C400.203 42.2667 400.715 42.7787 401.089 43.44C401.462 44.1013 401.649 44.88 401.649 45.776C401.649 45.8613 401.643 45.9573 401.633 46.064C401.633 46.1707 401.627 46.272 401.617 46.368H394.497V45.04H400.561L399.777 45.456C399.787 44.9653 399.686 44.5333 399.473 44.16C399.259 43.7867 398.966 43.4933 398.593 43.28C398.23 43.0667 397.809 42.96 397.329 42.96C396.838 42.96 396.406 43.0667 396.033 43.28C395.67 43.4933 395.382 43.792 395.169 44.176C394.966 44.5493 394.865 44.992 394.865 45.504V45.824C394.865 46.336 394.982 46.7893 395.217 47.184C395.451 47.5787 395.782 47.8827 396.209 48.096C396.635 48.3093 397.126 48.416 397.681 48.416C398.161 48.416 398.593 48.3413 398.977 48.192C399.361 48.0427 399.702 47.808 400.001 47.488L401.073 48.72C400.689 49.168 400.203 49.5147 399.617 49.76C399.041 49.9947 398.379 50.112 397.633 50.112ZM403.836 50V41.456H405.836V47.088L410.556 41.456H412.38V50H410.38V44.368L405.676 50H403.836ZM407.98 40.448C407.127 40.448 406.471 40.2507 406.012 39.856C405.554 39.4507 405.319 38.864 405.308 38.096H406.636C406.647 38.48 406.764 38.784 406.988 39.008C407.223 39.232 407.548 39.344 407.964 39.344C408.37 39.344 408.69 39.232 408.924 39.008C409.17 38.784 409.298 38.48 409.308 38.096H410.668C410.658 38.864 410.418 39.4507 409.948 39.856C409.49 40.2507 408.834 40.448 407.98 40.448ZM415.071 50V41.456H417.071V44.928H421.375V41.456H423.375V50H421.375V46.624H417.071V50H415.071Z" fill="white"/>
<rect x="9.16992" y="155" width="177.661" height="49" rx="24.5" fill="#456AA0"/>
<rect x="0.893037" y="145.893" width="194.214" height="67.2139" rx="33.607" stroke="#456AA0" stroke-width="1.78607"/>
<path d="M61.1594 183L65.1227 174.248H66.3604L70.3362 183H69.0235L65.4852 174.948H65.9853L62.4471 183H61.1594ZM62.8472 180.812L63.1848 179.812H68.1108L68.4733 180.812H62.8472ZM74.4737 183.075C73.7985 183.075 73.1943 182.929 72.6608 182.637C72.1357 182.346 71.7231 181.946 71.4231 181.437C71.123 180.929 70.973 180.345 70.973 179.687C70.973 179.028 71.123 178.445 71.4231 177.936C71.7231 177.428 72.1357 177.032 72.6608 176.749C73.1943 176.457 73.7985 176.311 74.4737 176.311C75.0738 176.311 75.6072 176.432 76.074 176.674C76.5491 176.907 76.9158 177.257 77.1742 177.724L76.2615 178.312C76.0448 177.986 75.7781 177.749 75.4614 177.599C75.153 177.441 74.8196 177.361 74.4612 177.361C74.0278 177.361 73.6402 177.457 73.2984 177.649C72.9567 177.841 72.6858 178.112 72.4858 178.462C72.2857 178.803 72.1857 179.212 72.1857 179.687C72.1857 180.162 72.2857 180.575 72.4858 180.925C72.6858 181.275 72.9567 181.546 73.2984 181.737C73.6402 181.929 74.0278 182.025 74.4612 182.025C74.8196 182.025 75.153 181.95 75.4614 181.8C75.7781 181.641 76.0448 181.4 76.2615 181.075L77.1742 181.65C76.9158 182.108 76.5491 182.462 76.074 182.712C75.6072 182.954 75.0738 183.075 74.4737 183.075ZM79.9554 183V177.111L80.2555 177.424H77.53V176.374H83.5812V177.424H80.8681L81.1557 177.111V183H79.9554ZM88.3217 183.075C87.7716 183.075 87.2673 182.95 86.8089 182.7C86.3588 182.442 85.9962 182.062 85.7212 181.562C85.4544 181.062 85.3211 180.437 85.3211 179.687C85.3211 178.937 85.4503 178.312 85.7087 177.811C85.9754 177.311 86.3338 176.936 86.7839 176.686C87.2423 176.436 87.7549 176.311 88.3217 176.311C88.9718 176.311 89.5469 176.453 90.047 176.736C90.5471 177.02 90.9431 177.416 91.2348 177.924C91.5265 178.424 91.6724 179.012 91.6724 179.687C91.6724 180.362 91.5265 180.954 91.2348 181.462C90.9431 181.971 90.5471 182.367 90.047 182.65C89.5469 182.933 88.9718 183.075 88.3217 183.075ZM84.8085 185.425V176.374H85.9587V178.162L85.8837 179.699L86.0087 181.237V185.425H84.8085ZM88.2217 182.025C88.6468 182.025 89.026 181.929 89.3594 181.737C89.7011 181.546 89.9679 181.275 90.1596 180.925C90.3596 180.566 90.4596 180.154 90.4596 179.687C90.4596 179.212 90.3596 178.803 90.1596 178.462C89.9679 178.112 89.7011 177.841 89.3594 177.649C89.026 177.457 88.6468 177.361 88.2217 177.361C87.8049 177.361 87.4257 177.457 87.0839 177.649C86.7505 177.841 86.4838 178.112 86.2838 178.462C86.0921 178.803 85.9962 179.212 85.9962 179.687C85.9962 180.154 86.0921 180.566 86.2838 180.925C86.4838 181.275 86.7505 181.546 87.0839 181.737C87.4257 181.929 87.8049 182.025 88.2217 182.025ZM97.4184 183V181.6L97.3559 181.337V178.949C97.3559 178.441 97.2059 178.049 96.9058 177.774C96.6141 177.491 96.1724 177.349 95.5806 177.349C95.1888 177.349 94.8054 177.416 94.4303 177.549C94.0553 177.674 93.7385 177.845 93.4802 178.062L92.98 177.161C93.3218 176.886 93.7302 176.678 94.2053 176.536C94.6887 176.386 95.193 176.311 95.7181 176.311C96.6266 176.311 97.3268 176.532 97.8185 176.974C98.3103 177.416 98.5562 178.091 98.5562 178.999V183H97.4184ZM95.243 183.075C94.7512 183.075 94.3178 182.992 93.9427 182.825C93.576 182.658 93.2926 182.429 93.0926 182.137C92.8925 181.837 92.7925 181.5 92.7925 181.125C92.7925 180.766 92.8759 180.441 93.0426 180.149C93.2176 179.858 93.4968 179.624 93.8802 179.449C94.272 179.274 94.7971 179.187 95.4555 179.187H97.556V180.049H95.5056C94.9054 180.049 94.5012 180.149 94.2928 180.349C94.0844 180.55 93.9803 180.791 93.9803 181.075C93.9803 181.4 94.1094 181.662 94.3678 181.862C94.6262 182.054 94.9846 182.15 95.443 182.15C95.8931 182.15 96.2849 182.05 96.6183 181.85C96.96 181.65 97.2059 181.358 97.3559 180.975L97.5935 181.8C97.4351 182.192 97.1559 182.504 96.7558 182.737C96.3557 182.962 95.8515 183.075 95.243 183.075ZM99.6672 183L102.518 179.299L102.505 179.912L99.7923 176.374H101.13L103.205 179.099H102.693L104.768 176.374H106.081L103.33 179.937L103.343 179.299L106.219 183H104.856L102.668 180.099L103.155 180.174L101.005 183H99.6672ZM111.423 183V181.6L111.36 181.337V178.949C111.36 178.441 111.21 178.049 110.91 177.774C110.618 177.491 110.177 177.349 109.585 177.349C109.193 177.349 108.81 177.416 108.435 177.549C108.06 177.674 107.743 177.845 107.484 178.062L106.984 177.161C107.326 176.886 107.734 176.678 108.21 176.536C108.693 176.386 109.197 176.311 109.722 176.311C110.631 176.311 111.331 176.532 111.823 176.974C112.315 177.416 112.56 178.091 112.56 178.999V183H111.423ZM109.247 183.075C108.756 183.075 108.322 182.992 107.947 182.825C107.58 182.658 107.297 182.429 107.097 182.137C106.897 181.837 106.797 181.5 106.797 181.125C106.797 180.766 106.88 180.441 107.047 180.149C107.222 179.858 107.501 179.624 107.885 179.449C108.276 179.274 108.801 179.187 109.46 179.187H111.56V180.049H109.51C108.91 180.049 108.505 180.149 108.297 180.349C108.089 180.55 107.985 180.791 107.985 181.075C107.985 181.4 108.114 181.662 108.372 181.862C108.631 182.054 108.989 182.15 109.447 182.15C109.897 182.15 110.289 182.05 110.623 181.85C110.964 181.65 111.21 181.358 111.36 180.975L111.598 181.8C111.439 182.192 111.16 182.504 110.76 182.737C110.36 182.962 109.856 183.075 109.247 183.075ZM114.722 183V176.374H115.922V179.187H119.698V176.374H120.898V183H119.698V180.224H115.922V183H114.722ZM126.295 178.624C127.137 178.632 127.779 178.824 128.22 179.199C128.662 179.574 128.883 180.104 128.883 180.787C128.883 181.504 128.641 182.058 128.158 182.45C127.674 182.833 126.991 183.021 126.107 183.013L123.232 183V176.374H124.432V178.612L126.295 178.624ZM126.007 182.1C126.549 182.108 126.958 182 127.233 181.775C127.516 181.55 127.658 181.216 127.658 180.775C127.658 180.341 127.52 180.024 127.245 179.824C126.97 179.624 126.557 179.52 126.007 179.512L124.432 179.487V182.087L126.007 182.1Z" fill="white"/>
<rect x="245" y="155" width="173.268" height="49.2857" rx="24.6429" fill="#456AA0"/>
<rect x="236.893" y="145.893" width="190.214" height="67.2139" rx="33.607" stroke="#456AA0" stroke-width="1.78607"/>
<path d="M324.321 184.1C323.654 184.1 323.033 183.987 322.458 183.762C321.891 183.537 321.399 183.225 320.983 182.825C320.566 182.416 320.241 181.941 320.007 181.399C319.774 180.858 319.657 180.266 319.657 179.624C319.657 178.982 319.774 178.391 320.007 177.849C320.241 177.307 320.566 176.836 320.983 176.436C321.399 176.028 321.891 175.711 322.458 175.486C323.025 175.261 323.646 175.148 324.321 175.148C324.988 175.148 325.6 175.261 326.159 175.486C326.725 175.702 327.217 176.015 327.634 176.423C328.059 176.824 328.384 177.294 328.609 177.836C328.842 178.378 328.959 178.974 328.959 179.624C328.959 180.274 328.842 180.87 328.609 181.412C328.384 181.954 328.059 182.429 327.634 182.837C327.217 183.237 326.725 183.55 326.159 183.775C325.6 183.992 324.988 184.1 324.321 184.1ZM324.321 182.987C324.804 182.987 325.25 182.904 325.658 182.737C326.075 182.571 326.434 182.337 326.734 182.037C327.042 181.729 327.28 181.37 327.446 180.962C327.621 180.553 327.709 180.108 327.709 179.624C327.709 179.141 327.621 178.695 327.446 178.286C327.28 177.878 327.042 177.524 326.734 177.224C326.434 176.915 326.075 176.678 325.658 176.511C325.25 176.344 324.804 176.261 324.321 176.261C323.829 176.261 323.375 176.344 322.958 176.511C322.55 176.678 322.191 176.915 321.883 177.224C321.574 177.524 321.333 177.878 321.158 178.286C320.991 178.695 320.908 179.141 320.908 179.624C320.908 180.108 320.991 180.553 321.158 180.962C321.333 181.37 321.574 181.729 321.883 182.037C322.191 182.337 322.55 182.571 322.958 182.737C323.375 182.904 323.829 182.987 324.321 182.987ZM329.472 183.987L329.547 182.975C329.606 182.983 329.66 182.991 329.71 183C329.76 183.008 329.806 183.012 329.848 183.012C330.114 183.012 330.323 182.921 330.473 182.737C330.631 182.554 330.748 182.312 330.823 182.012C330.898 181.704 330.952 181.358 330.985 180.974C331.019 180.591 331.044 180.208 331.06 179.824L331.173 177.374H336.261V184H335.061V178.074L335.349 178.424H331.948L332.223 178.061L332.135 179.899C332.11 180.483 332.065 181.029 331.998 181.537C331.931 182.045 331.827 182.491 331.685 182.875C331.552 183.258 331.364 183.558 331.123 183.775C330.889 183.992 330.585 184.1 330.21 184.1C330.102 184.1 329.985 184.088 329.86 184.063C329.743 184.046 329.614 184.021 329.472 183.987ZM342.82 184V181.675L343.008 181.9H340.895C340.012 181.9 339.32 181.712 338.82 181.337C338.328 180.962 338.082 180.416 338.082 179.699C338.082 178.932 338.345 178.353 338.87 177.961C339.403 177.57 340.112 177.374 340.995 177.374H343.896V184H342.82ZM338.019 184L339.82 181.462H341.058L339.307 184H338.019ZM342.82 181.299V178.086L343.008 178.424H341.033C340.482 178.424 340.057 178.528 339.757 178.736C339.457 178.936 339.307 179.27 339.307 179.737C339.307 180.603 339.866 181.037 340.983 181.037H343.008L342.82 181.299Z" fill="white"/>
<rect x="477" y="155" width="184" height="49" rx="24.5" fill="#456AA0"/>
<rect x="467.893" y="145.893" width="202.214" height="67.2139" rx="33.607" stroke="#456AA0" stroke-width="1.78607"/>
<path d="M539.309 184V175.248H540.334L544.26 181.862H543.71L547.585 175.248H548.611L548.623 184H547.423L547.41 177.136H547.698L544.247 182.937H543.672L540.196 177.136H540.509V184H539.309ZM555.211 184V182.6L555.148 182.337V179.949C555.148 179.441 554.998 179.049 554.698 178.774C554.406 178.491 553.964 178.349 553.373 178.349C552.981 178.349 552.598 178.416 552.222 178.549C551.847 178.674 551.531 178.845 551.272 179.062L550.772 178.161C551.114 177.886 551.522 177.678 551.997 177.536C552.481 177.386 552.985 177.311 553.51 177.311C554.419 177.311 555.119 177.532 555.611 177.974C556.102 178.416 556.348 179.091 556.348 179.999V184H555.211ZM553.035 184.075C552.543 184.075 552.11 183.992 551.735 183.825C551.368 183.658 551.085 183.429 550.885 183.137C550.685 182.837 550.585 182.5 550.585 182.125C550.585 181.766 550.668 181.441 550.835 181.149C551.01 180.858 551.289 180.624 551.672 180.449C552.064 180.274 552.589 180.187 553.248 180.187H555.348V181.049H553.298C552.698 181.049 552.293 181.149 552.085 181.349C551.877 181.55 551.772 181.791 551.772 182.075C551.772 182.4 551.902 182.662 552.16 182.862C552.418 183.054 552.777 183.15 553.235 183.15C553.685 183.15 554.077 183.05 554.41 182.85C554.752 182.65 554.998 182.358 555.148 181.975L555.386 182.8C555.227 183.192 554.948 183.504 554.548 183.737C554.148 183.962 553.644 184.075 553.035 184.075ZM557.459 184L560.31 180.299L560.297 180.912L557.584 177.374H558.922L560.998 180.099H560.485L562.56 177.374H563.873L561.123 180.937L561.135 180.299L564.011 184H562.648L560.46 181.099L560.948 181.174L558.797 184H557.459ZM569.215 184V182.6L569.152 182.337V179.949C569.152 179.441 569.002 179.049 568.702 178.774C568.411 178.491 567.969 178.349 567.377 178.349C566.985 178.349 566.602 178.416 566.227 178.549C565.852 178.674 565.535 178.845 565.277 179.062L564.776 178.161C565.118 177.886 565.527 177.678 566.002 177.536C566.485 177.386 566.989 177.311 567.515 177.311C568.423 177.311 569.123 177.532 569.615 177.974C570.107 178.416 570.353 179.091 570.353 179.999V184H569.215ZM567.039 184.075C566.548 184.075 566.114 183.992 565.739 183.825C565.372 183.658 565.089 183.429 564.889 183.137C564.689 182.837 564.589 182.5 564.589 182.125C564.589 181.766 564.672 181.441 564.839 181.149C565.014 180.858 565.293 180.624 565.677 180.449C566.068 180.274 566.593 180.187 567.252 180.187H569.352V181.049H567.302C566.702 181.049 566.298 181.149 566.089 181.349C565.881 181.55 565.777 181.791 565.777 182.075C565.777 182.4 565.906 182.662 566.164 182.862C566.423 183.054 566.781 183.15 567.239 183.15C567.69 183.15 568.081 183.05 568.415 182.85C568.756 182.65 569.002 182.358 569.152 181.975L569.39 182.8C569.232 183.192 568.952 183.504 568.552 183.737C568.152 183.962 567.648 184.075 567.039 184.075ZM576.69 181.287C576.34 181.454 575.977 181.587 575.602 181.687C575.235 181.779 574.856 181.825 574.464 181.825C573.664 181.825 573.031 181.637 572.564 181.262C572.105 180.887 571.876 180.308 571.876 179.524V177.374H573.076V179.449C573.076 179.924 573.222 180.274 573.514 180.499C573.814 180.724 574.214 180.837 574.714 180.837C575.031 180.837 575.356 180.795 575.69 180.712C576.031 180.628 576.365 180.512 576.69 180.362V181.287ZM576.602 184V177.374H577.802V184H576.602ZM584.934 184L582.371 180.774L583.358 180.174L586.346 184H584.934ZM580.133 184V177.374H581.333V184H580.133ZM580.97 181.199V180.174H583.158V181.199H580.97ZM583.458 180.824L582.346 180.674L584.884 177.374H586.171L583.458 180.824ZM591.546 184V182.6L591.484 182.337V179.949C591.484 179.441 591.333 179.049 591.033 178.774C590.742 178.491 590.3 178.349 589.708 178.349C589.316 178.349 588.933 178.416 588.558 178.549C588.183 178.674 587.866 178.845 587.608 179.062L587.108 178.161C587.449 177.886 587.858 177.678 588.333 177.536C588.816 177.386 589.321 177.311 589.846 177.311C590.754 177.311 591.454 177.532 591.946 177.974C592.438 178.416 592.684 179.091 592.684 179.999V184H591.546ZM589.371 184.075C588.879 184.075 588.445 183.992 588.07 183.825C587.704 183.658 587.42 183.429 587.22 183.137C587.02 182.837 586.92 182.5 586.92 182.125C586.92 181.766 587.003 181.441 587.17 181.149C587.345 180.858 587.624 180.624 588.008 180.449C588.4 180.274 588.925 180.187 589.583 180.187H591.684V181.049H589.633C589.033 181.049 588.629 181.149 588.42 181.349C588.212 181.55 588.108 181.791 588.108 182.075C588.108 182.4 588.237 182.662 588.495 182.862C588.754 183.054 589.112 183.15 589.571 183.15C590.021 183.15 590.412 183.05 590.746 182.85C591.088 182.65 591.333 182.358 591.484 181.975L591.721 182.8C591.563 183.192 591.283 183.504 590.883 183.737C590.483 183.962 589.979 184.075 589.371 184.075ZM593.745 183.987L593.82 182.975C593.878 182.983 593.932 182.991 593.982 183C594.032 183.008 594.078 183.012 594.12 183.012C594.387 183.012 594.595 182.921 594.745 182.737C594.903 182.554 595.02 182.312 595.095 182.012C595.17 181.704 595.224 181.358 595.258 180.974C595.291 180.591 595.316 180.208 595.333 179.824L595.445 177.374H600.534V184H599.333V178.074L599.621 178.424H596.22L596.495 178.061L596.408 179.899C596.383 180.483 596.337 181.029 596.27 181.537C596.204 182.045 596.099 182.491 595.958 182.875C595.824 183.258 595.637 183.558 595.395 183.775C595.162 183.992 594.858 184.1 594.482 184.1C594.374 184.1 594.257 184.088 594.132 184.063C594.016 184.046 593.887 184.021 593.745 183.987ZM606.918 184V182.6L606.855 182.337V179.949C606.855 179.441 606.705 179.049 606.405 178.774C606.113 178.491 605.672 178.349 605.08 178.349C604.688 178.349 604.305 178.416 603.93 178.549C603.555 178.674 603.238 178.845 602.979 179.062L602.479 178.161C602.821 177.886 603.23 177.678 603.705 177.536C604.188 177.386 604.692 177.311 605.217 177.311C606.126 177.311 606.826 177.532 607.318 177.974C607.81 178.416 608.056 179.091 608.056 179.999V184H606.918ZM604.742 184.075C604.251 184.075 603.817 183.992 603.442 183.825C603.075 183.658 602.792 183.429 602.592 183.137C602.392 182.837 602.292 182.5 602.292 182.125C602.292 181.766 602.375 181.441 602.542 181.149C602.717 180.858 602.996 180.624 603.38 180.449C603.771 180.274 604.296 180.187 604.955 180.187H607.055V181.049H605.005C604.405 181.049 604.001 181.149 603.792 181.349C603.584 181.55 603.48 181.791 603.48 182.075C603.48 182.4 603.609 182.662 603.867 182.862C604.126 183.054 604.484 183.15 604.942 183.15C605.392 183.15 605.784 183.05 606.118 182.85C606.459 182.65 606.705 182.358 606.855 181.975L607.093 182.8C606.934 183.192 606.655 183.504 606.255 183.737C605.855 183.962 605.351 184.075 604.742 184.075Z" fill="white"/>
<path d="M333 80C333 79.4477 332.552 79 332 79C331.448 79 331 79.4477 331 80H333ZM93.5598 131C93.0075 131 92.617 131.676 92.8932 132.155L97.3333 139.845C97.6095 140.324 98.3905 140.324 98.6667 139.845L103.107 132.155C103.383 131.676 102.992 131 102.44 131H93.5598ZM332 80H333H332ZM311.293 99.707H122V101.707H311.293V99.707ZM97 124.707V132H99V124.707H97ZM122 99.707C108.193 99.707 97 110.9 97 124.707H99C99 112.004 109.297 101.707 122 101.707V99.707ZM331 80C331 90.8839 322.177 99.707 311.293 99.707V101.707C323.281 101.707 333 91.9885 333 80H331Z" fill="#456AA0"/>
<path d="M333 80C333 79.4477 332.552 79 332 79C331.448 79 331 79.4477 331 80H333ZM327.56 131C327.008 131 326.617 131.676 326.893 132.155L331.333 139.845C331.609 140.324 332.391 140.324 332.667 139.845L337.107 132.155C337.383 131.676 336.992 131 336.44 131H327.56ZM331 80V132H333V80H331Z" fill="#456AA0"/>
<path d="M333 80C333 79.4477 332.552 79 332 79C331.448 79 331 79.4477 331 80H333ZM564.56 131C564.008 131 563.617 131.676 563.893 132.155L568.333 139.845C568.609 140.324 569.391 140.324 569.667 139.845L574.107 132.155C574.383 131.676 573.992 131 573.44 131H564.56ZM332 80H333H332ZM352.707 101.707H545V99.707H352.707V101.707ZM568 124.707V132H570V124.707H568ZM545 101.707C557.703 101.707 568 112.004 568 124.707H570C570 110.9 558.807 99.707 545 99.707V101.707ZM331 80C331 91.9885 340.719 101.707 352.707 101.707V99.707C341.823 99.707 333 90.8839 333 80H331Z" fill="#456AA0"/>
</svg>
