<svg width="422" height="386" viewBox="0 0 422 386" fill="none" xmlns="http://www.w3.org/2000/svg">
<circle cx="281" cy="58" r="58" fill="#456AA0" fill-opacity="0.41"/>
<circle cx="346.5" cy="225.5" r="74.5" fill="#456AA0" fill-opacity="0.41"/>
<circle cx="74.5" cy="240.5" r="74.5" fill="#456AA0" fill-opacity="0.41"/>
<circle cx="93" cy="90" r="62" fill="#456AA0" fill-opacity="0.41"/>
<circle cx="214" cy="160" r="108" fill="#B2C2D8"/>
<path d="M146.893 142.16C145.826 142.16 144.84 141.987 143.933 141.64C143.04 141.28 142.26 140.78 141.593 140.14C140.94 139.487 140.426 138.727 140.053 137.86C139.68 136.993 139.493 136.04 139.493 135C139.493 133.96 139.68 133.007 140.053 132.14C140.426 131.273 140.946 130.52 141.613 129.88C142.28 129.227 143.06 128.727 143.953 128.38C144.86 128.02 145.846 127.84 146.913 127.84C147.993 127.84 148.986 128.027 149.893 128.4C150.813 128.76 151.593 129.3 152.233 130.02L150.933 131.28C150.4 130.72 149.8 130.307 149.133 130.04C148.466 129.76 147.753 129.62 146.993 129.62C146.206 129.62 145.473 129.753 144.793 130.02C144.126 130.287 143.546 130.66 143.053 131.14C142.56 131.62 142.173 132.193 141.893 132.86C141.626 133.513 141.493 134.227 141.493 135C141.493 135.773 141.626 136.493 141.893 137.16C142.173 137.813 142.56 138.38 143.053 138.86C143.546 139.34 144.126 139.713 144.793 139.98C145.473 140.247 146.206 140.38 146.993 140.38C147.753 140.38 148.466 140.247 149.133 139.98C149.8 139.7 150.4 139.273 150.933 138.7L152.233 139.96C151.593 140.68 150.813 141.227 149.893 141.6C148.986 141.973 147.986 142.16 146.893 142.16ZM158.759 142.12C157.693 142.12 156.746 141.887 155.919 141.42C155.093 140.953 154.439 140.313 153.959 139.5C153.479 138.673 153.239 137.74 153.239 136.7C153.239 135.647 153.479 134.713 153.959 133.9C154.439 133.087 155.093 132.453 155.919 132C156.746 131.533 157.693 131.3 158.759 131.3C159.813 131.3 160.753 131.533 161.579 132C162.419 132.453 163.073 133.087 163.539 133.9C164.019 134.7 164.259 135.633 164.259 136.7C164.259 137.753 164.019 138.687 163.539 139.5C163.073 140.313 162.419 140.953 161.579 141.42C160.753 141.887 159.813 142.12 158.759 142.12ZM158.759 140.44C159.439 140.44 160.046 140.287 160.579 139.98C161.126 139.673 161.553 139.24 161.859 138.68C162.166 138.107 162.319 137.447 162.319 136.7C162.319 135.94 162.166 135.287 161.859 134.74C161.553 134.18 161.126 133.747 160.579 133.44C160.046 133.133 159.439 132.98 158.759 132.98C158.079 132.98 157.473 133.133 156.939 133.44C156.406 133.747 155.979 134.18 155.659 134.74C155.339 135.287 155.179 135.94 155.179 136.7C155.179 137.447 155.339 138.107 155.659 138.68C155.979 139.24 156.406 139.673 156.939 139.98C157.473 140.287 158.079 140.44 158.759 140.44ZM167.032 142V131.4H171.952C173.192 131.4 174.165 131.64 174.872 132.12C175.592 132.587 175.952 133.253 175.952 134.12C175.952 134.987 175.612 135.66 174.932 136.14C174.265 136.607 173.379 136.84 172.272 136.84L172.572 136.32C173.839 136.32 174.779 136.553 175.392 137.02C176.005 137.487 176.312 138.173 176.312 139.08C176.312 140 175.965 140.72 175.272 141.24C174.592 141.747 173.545 142 172.132 142H167.032ZM168.912 140.52H171.992C172.792 140.52 173.392 140.4 173.792 140.16C174.192 139.907 174.392 139.507 174.392 138.96C174.392 138.4 174.205 137.993 173.832 137.74C173.472 137.473 172.899 137.34 172.112 137.34H168.912V140.52ZM168.912 135.96H171.792C172.525 135.96 173.079 135.827 173.452 135.56C173.839 135.28 174.032 134.893 174.032 134.4C174.032 133.893 173.839 133.513 173.452 133.26C173.079 133.007 172.525 132.88 171.792 132.88H168.912V135.96ZM184.937 142.12C184.057 142.12 183.25 141.92 182.517 141.52C181.797 141.107 181.217 140.5 180.777 139.7C180.35 138.9 180.137 137.9 180.137 136.7C180.137 135.5 180.344 134.5 180.757 133.7C181.184 132.9 181.757 132.3 182.477 131.9C183.21 131.5 184.03 131.3 184.937 131.3C185.977 131.3 186.897 131.527 187.697 131.98C188.497 132.433 189.13 133.067 189.597 133.88C190.064 134.68 190.297 135.62 190.297 136.7C190.297 137.78 190.064 138.727 189.597 139.54C189.13 140.353 188.497 140.987 187.697 141.44C186.897 141.893 185.977 142.12 184.937 142.12ZM179.317 145.88V131.4H181.157V134.26L181.037 136.72L181.237 139.18V145.88H179.317ZM184.777 140.44C185.457 140.44 186.064 140.287 186.597 139.98C187.144 139.673 187.57 139.24 187.877 138.68C188.197 138.107 188.357 137.447 188.357 136.7C188.357 135.94 188.197 135.287 187.877 134.74C187.57 134.18 187.144 133.747 186.597 133.44C186.064 133.133 185.457 132.98 184.777 132.98C184.11 132.98 183.504 133.133 182.957 133.44C182.424 133.747 181.997 134.18 181.677 134.74C181.37 135.287 181.217 135.94 181.217 136.7C181.217 137.447 181.37 138.107 181.677 138.68C181.997 139.24 182.424 139.673 182.957 139.98C183.504 140.287 184.11 140.44 184.777 140.44ZM197.807 142.12C196.673 142.12 195.673 141.887 194.807 141.42C193.953 140.953 193.287 140.313 192.807 139.5C192.34 138.687 192.107 137.753 192.107 136.7C192.107 135.647 192.333 134.713 192.787 133.9C193.253 133.087 193.887 132.453 194.687 132C195.5 131.533 196.413 131.3 197.427 131.3C198.453 131.3 199.36 131.527 200.147 131.98C200.933 132.433 201.547 133.073 201.987 133.9C202.44 134.713 202.667 135.667 202.667 136.76C202.667 136.84 202.66 136.933 202.647 137.04C202.647 137.147 202.64 137.247 202.627 137.34H193.607V135.96H201.627L200.847 136.44C200.86 135.76 200.72 135.153 200.427 134.62C200.133 134.087 199.727 133.673 199.207 133.38C198.7 133.073 198.107 132.92 197.427 132.92C196.76 132.92 196.167 133.073 195.647 133.38C195.127 133.673 194.72 134.093 194.427 134.64C194.133 135.173 193.987 135.787 193.987 136.48V136.8C193.987 137.507 194.147 138.14 194.467 138.7C194.8 139.247 195.26 139.673 195.847 139.98C196.433 140.287 197.107 140.44 197.867 140.44C198.493 140.44 199.06 140.333 199.567 140.12C200.087 139.907 200.54 139.587 200.927 139.16L201.987 140.4C201.507 140.96 200.907 141.387 200.187 141.68C199.48 141.973 198.687 142.12 197.807 142.12ZM205.645 142V131.4H207.625L212.185 139.24H211.385L216.065 131.4H217.865V142H216.125V133.56L216.445 133.74L212.165 140.8H211.325L207.025 133.6L207.405 133.52V142H205.645ZM226.322 142.12C225.189 142.12 224.189 141.887 223.322 141.42C222.469 140.953 221.802 140.313 221.322 139.5C220.856 138.687 220.622 137.753 220.622 136.7C220.622 135.647 220.849 134.713 221.302 133.9C221.769 133.087 222.402 132.453 223.202 132C224.016 131.533 224.929 131.3 225.942 131.3C226.969 131.3 227.876 131.527 228.662 131.98C229.449 132.433 230.062 133.073 230.502 133.9C230.956 134.713 231.182 135.667 231.182 136.76C231.182 136.84 231.176 136.933 231.162 137.04C231.162 137.147 231.156 137.247 231.142 137.34H222.122V135.96H230.142L229.362 136.44C229.376 135.76 229.236 135.153 228.942 134.62C228.649 134.087 228.242 133.673 227.722 133.38C227.216 133.073 226.622 132.92 225.942 132.92C225.276 132.92 224.682 133.073 224.162 133.38C223.642 133.673 223.236 134.093 222.942 134.64C222.649 135.173 222.502 135.787 222.502 136.48V136.8C222.502 137.507 222.662 138.14 222.982 138.7C223.316 139.247 223.776 139.673 224.362 139.98C224.949 140.287 225.622 140.44 226.382 140.44C227.009 140.44 227.576 140.333 228.082 140.12C228.602 139.907 229.056 139.587 229.442 139.16L230.502 140.4C230.022 140.96 229.422 141.387 228.702 141.68C227.996 141.973 227.202 142.12 226.322 142.12ZM234.161 142V131.4H236.081V135.9H242.121V131.4H244.041V142H242.121V137.56H236.081V142H234.161ZM247.774 142V131.4H249.694V135.9H255.734V131.4H257.654V142H255.734V137.56H249.694V142H247.774ZM271.867 142V131.4H273.787V142H271.867ZM266.167 135C267.514 135.013 268.534 135.32 269.227 135.92C269.934 136.52 270.287 137.367 270.287 138.46C270.287 139.607 269.901 140.493 269.127 141.12C268.367 141.733 267.274 142.033 265.847 142.02L261.387 142V131.4H263.307V134.98L266.167 135ZM265.707 140.56C266.561 140.573 267.214 140.4 267.667 140.04C268.121 139.68 268.347 139.147 268.347 138.44C268.347 137.747 268.121 137.24 267.667 136.92C267.227 136.6 266.574 136.433 265.707 136.42L263.307 136.38V140.54L265.707 140.56ZM277.52 142V131.4H279.44V139.12L285.94 131.4H287.68V142H285.76V134.28L279.28 142H277.52ZM282.48 130.02C281.507 130.02 280.74 129.787 280.18 129.32C279.633 128.84 279.353 128.153 279.34 127.26H280.64C280.653 127.767 280.82 128.167 281.14 128.46C281.473 128.753 281.913 128.9 282.46 128.9C283.007 128.9 283.447 128.753 283.78 128.46C284.113 128.167 284.287 127.767 284.3 127.26H285.64C285.627 128.153 285.34 128.84 284.78 129.32C284.22 129.787 283.453 130.02 282.48 130.02ZM169.727 160V149.4H171.707L176.267 157.24H175.467L180.147 149.4H181.947V160H180.207V151.56L180.527 151.74L176.247 158.8H175.407L171.107 151.6L171.487 151.52V160H169.727ZM190.224 160.12C189.158 160.12 188.211 159.887 187.384 159.42C186.558 158.953 185.904 158.313 185.424 157.5C184.944 156.673 184.704 155.74 184.704 154.7C184.704 153.647 184.944 152.713 185.424 151.9C185.904 151.087 186.558 150.453 187.384 150C188.211 149.533 189.158 149.3 190.224 149.3C191.278 149.3 192.218 149.533 193.044 150C193.884 150.453 194.538 151.087 195.004 151.9C195.484 152.7 195.724 153.633 195.724 154.7C195.724 155.753 195.484 156.687 195.004 157.5C194.538 158.313 193.884 158.953 193.044 159.42C192.218 159.887 191.278 160.12 190.224 160.12ZM190.224 158.44C190.904 158.44 191.511 158.287 192.044 157.98C192.591 157.673 193.018 157.24 193.324 156.68C193.631 156.107 193.784 155.447 193.784 154.7C193.784 153.94 193.631 153.287 193.324 152.74C193.018 152.18 192.591 151.747 192.044 151.44C191.511 151.133 190.904 150.98 190.224 150.98C189.544 150.98 188.938 151.133 188.404 151.44C187.871 151.747 187.444 152.18 187.124 152.74C186.804 153.287 186.644 153.94 186.644 154.7C186.644 155.447 186.804 156.107 187.124 156.68C187.444 157.24 187.871 157.673 188.404 157.98C188.938 158.287 189.544 158.44 190.224 158.44ZM204.117 160.12C203.237 160.12 202.43 159.92 201.697 159.52C200.977 159.107 200.397 158.5 199.957 157.7C199.53 156.9 199.317 155.9 199.317 154.7C199.317 153.5 199.523 152.5 199.937 151.7C200.363 150.9 200.937 150.3 201.657 149.9C202.39 149.5 203.21 149.3 204.117 149.3C205.157 149.3 206.077 149.527 206.877 149.98C207.677 150.433 208.31 151.067 208.777 151.88C209.243 152.68 209.477 153.62 209.477 154.7C209.477 155.78 209.243 156.727 208.777 157.54C208.31 158.353 207.677 158.987 206.877 159.44C206.077 159.893 205.157 160.12 204.117 160.12ZM198.497 163.88V149.4H200.337V152.26L200.217 154.72L200.417 157.18V163.88H198.497ZM203.957 158.44C204.637 158.44 205.243 158.287 205.777 157.98C206.323 157.673 206.75 157.24 207.057 156.68C207.377 156.107 207.537 155.447 207.537 154.7C207.537 153.94 207.377 153.287 207.057 152.74C206.75 152.18 206.323 151.747 205.777 151.44C205.243 151.133 204.637 150.98 203.957 150.98C203.29 150.98 202.683 151.133 202.137 151.44C201.603 151.747 201.177 152.18 200.857 152.74C200.55 153.287 200.397 153.94 200.397 154.7C200.397 155.447 200.55 156.107 200.857 156.68C201.177 157.24 201.603 157.673 202.137 157.98C202.683 158.287 203.29 158.44 203.957 158.44ZM216.886 160.12C215.806 160.12 214.84 159.887 213.986 159.42C213.146 158.953 212.486 158.313 212.006 157.5C211.526 156.687 211.286 155.753 211.286 154.7C211.286 153.647 211.526 152.713 212.006 151.9C212.486 151.087 213.146 150.453 213.986 150C214.84 149.533 215.806 149.3 216.886 149.3C217.846 149.3 218.7 149.493 219.446 149.88C220.206 150.253 220.793 150.813 221.206 151.56L219.746 152.5C219.4 151.98 218.973 151.6 218.466 151.36C217.973 151.107 217.44 150.98 216.866 150.98C216.173 150.98 215.553 151.133 215.006 151.44C214.46 151.747 214.026 152.18 213.706 152.74C213.386 153.287 213.226 153.94 213.226 154.7C213.226 155.46 213.386 156.12 213.706 156.68C214.026 157.24 214.46 157.673 215.006 157.98C215.553 158.287 216.173 158.44 216.866 158.44C217.44 158.44 217.973 158.32 218.466 158.08C218.973 157.827 219.4 157.44 219.746 156.92L221.206 157.84C220.793 158.573 220.206 159.14 219.446 159.54C218.7 159.927 217.846 160.12 216.886 160.12ZM231.372 160L227.272 154.84L228.852 153.88L233.632 160H231.372ZM223.692 160V149.4H225.612V160H223.692ZM225.032 155.52V153.88H228.532V155.52H225.032ZM229.012 154.92L227.232 154.68L231.292 149.4H233.352L229.012 154.92ZM239.834 160.12C238.767 160.12 237.82 159.887 236.994 159.42C236.167 158.953 235.514 158.313 235.034 157.5C234.554 156.673 234.314 155.74 234.314 154.7C234.314 153.647 234.554 152.713 235.034 151.9C235.514 151.087 236.167 150.453 236.994 150C237.82 149.533 238.767 149.3 239.834 149.3C240.887 149.3 241.827 149.533 242.654 150C243.494 150.453 244.147 151.087 244.614 151.9C245.094 152.7 245.334 153.633 245.334 154.7C245.334 155.753 245.094 156.687 244.614 157.5C244.147 158.313 243.494 158.953 242.654 159.42C241.827 159.887 240.887 160.12 239.834 160.12ZM239.834 158.44C240.514 158.44 241.12 158.287 241.654 157.98C242.2 157.673 242.627 157.24 242.934 156.68C243.24 156.107 243.394 155.447 243.394 154.7C243.394 153.94 243.24 153.287 242.934 152.74C242.627 152.18 242.2 151.747 241.654 151.44C241.12 151.133 240.514 150.98 239.834 150.98C239.154 150.98 238.547 151.133 238.014 151.44C237.48 151.747 237.054 152.18 236.734 152.74C236.414 153.287 236.254 153.94 236.254 154.7C236.254 155.447 236.414 156.107 236.734 156.68C237.054 157.24 237.48 157.673 238.014 157.98C238.547 158.287 239.154 158.44 239.834 158.44ZM248.106 160V149.4H250.026V157.12L256.526 149.4H258.266V160H256.346V152.28L249.866 160H248.106ZM253.066 148.02C252.093 148.02 251.326 147.787 250.766 147.32C250.219 146.84 249.939 146.153 249.926 145.26H251.226C251.239 145.767 251.406 146.167 251.726 146.46C252.059 146.753 252.499 146.9 253.046 146.9C253.593 146.9 254.033 146.753 254.366 146.46C254.699 146.167 254.873 145.767 254.886 145.26H256.226C256.213 146.153 255.926 146.84 255.366 147.32C254.806 147.787 254.039 148.02 253.066 148.02ZM162.989 178V168.58L163.469 169.08H159.109V167.4H168.789V169.08H164.449L164.909 168.58V178H162.989ZM176.373 178.12C175.493 178.12 174.686 177.92 173.953 177.52C173.233 177.107 172.653 176.5 172.213 175.7C171.786 174.9 171.573 173.9 171.573 172.7C171.573 171.5 171.779 170.5 172.193 169.7C172.619 168.9 173.193 168.3 173.913 167.9C174.646 167.5 175.466 167.3 176.373 167.3C177.413 167.3 178.333 167.527 179.133 167.98C179.933 168.433 180.566 169.067 181.033 169.88C181.499 170.68 181.733 171.62 181.733 172.7C181.733 173.78 181.499 174.727 181.033 175.54C180.566 176.353 179.933 176.987 179.133 177.44C178.333 177.893 177.413 178.12 176.373 178.12ZM170.753 181.88V167.4H172.593V170.26L172.473 172.72L172.673 175.18V181.88H170.753ZM176.213 176.44C176.893 176.44 177.499 176.287 178.033 175.98C178.579 175.673 179.006 175.24 179.313 174.68C179.633 174.107 179.793 173.447 179.793 172.7C179.793 171.94 179.633 171.287 179.313 170.74C179.006 170.18 178.579 169.747 178.033 169.44C177.499 169.133 176.893 168.98 176.213 168.98C175.546 168.98 174.939 169.133 174.393 169.44C173.859 169.747 173.433 170.18 173.113 170.74C172.806 171.287 172.653 171.94 172.653 172.7C172.653 173.447 172.806 174.107 173.113 174.68C173.433 175.24 173.859 175.673 174.393 175.98C174.939 176.287 175.546 176.44 176.213 176.44ZM190.924 178V175.76L190.824 175.34V171.52C190.824 170.707 190.584 170.08 190.104 169.64C189.638 169.187 188.931 168.96 187.984 168.96C187.358 168.96 186.744 169.067 186.144 169.28C185.544 169.48 185.038 169.753 184.624 170.1L183.824 168.66C184.371 168.22 185.024 167.887 185.784 167.66C186.558 167.42 187.364 167.3 188.204 167.3C189.658 167.3 190.778 167.653 191.564 168.36C192.351 169.067 192.744 170.147 192.744 171.6V178H190.924ZM187.444 178.12C186.658 178.12 185.964 177.987 185.364 177.72C184.778 177.453 184.324 177.087 184.004 176.62C183.684 176.14 183.524 175.6 183.524 175C183.524 174.427 183.658 173.907 183.924 173.44C184.204 172.973 184.651 172.6 185.264 172.32C185.891 172.04 186.731 171.9 187.784 171.9H191.144V173.28H187.864C186.904 173.28 186.258 173.44 185.924 173.76C185.591 174.08 185.424 174.467 185.424 174.92C185.424 175.44 185.631 175.86 186.044 176.18C186.458 176.487 187.031 176.64 187.764 176.64C188.484 176.64 189.111 176.48 189.644 176.16C190.191 175.84 190.584 175.373 190.824 174.76L191.204 176.08C190.951 176.707 190.504 177.207 189.864 177.58C189.224 177.94 188.418 178.12 187.444 178.12ZM196.202 178V167.4H198.122V171.9H204.162V167.4H206.082V178H204.162V173.56H198.122V178H196.202ZM214.435 178.12C213.355 178.12 212.388 177.887 211.535 177.42C210.695 176.953 210.035 176.313 209.555 175.5C209.075 174.687 208.835 173.753 208.835 172.7C208.835 171.647 209.075 170.713 209.555 169.9C210.035 169.087 210.695 168.453 211.535 168C212.388 167.533 213.355 167.3 214.435 167.3C215.395 167.3 216.248 167.493 216.995 167.88C217.755 168.253 218.342 168.813 218.755 169.56L217.295 170.5C216.948 169.98 216.522 169.6 216.015 169.36C215.522 169.107 214.988 168.98 214.415 168.98C213.722 168.98 213.102 169.133 212.555 169.44C212.008 169.747 211.575 170.18 211.255 170.74C210.935 171.287 210.775 171.94 210.775 172.7C210.775 173.46 210.935 174.12 211.255 174.68C211.575 175.24 212.008 175.673 212.555 175.98C213.102 176.287 213.722 176.44 214.415 176.44C214.988 176.44 215.522 176.32 216.015 176.08C216.522 175.827 216.948 175.44 217.295 174.92L218.755 175.84C218.342 176.573 217.755 177.14 216.995 177.54C216.248 177.927 215.395 178.12 214.435 178.12ZM221.241 178V167.4H231.061V178H229.141V168.6L229.601 169.08H222.701L223.161 168.6V178H221.241ZM239.316 178.12C238.249 178.12 237.303 177.887 236.476 177.42C235.649 176.953 234.996 176.313 234.516 175.5C234.036 174.673 233.796 173.74 233.796 172.7C233.796 171.647 234.036 170.713 234.516 169.9C234.996 169.087 235.649 168.453 236.476 168C237.303 167.533 238.249 167.3 239.316 167.3C240.369 167.3 241.309 167.533 242.136 168C242.976 168.453 243.629 169.087 244.096 169.9C244.576 170.7 244.816 171.633 244.816 172.7C244.816 173.753 244.576 174.687 244.096 175.5C243.629 176.313 242.976 176.953 242.136 177.42C241.309 177.887 240.369 178.12 239.316 178.12ZM239.316 176.44C239.996 176.44 240.603 176.287 241.136 175.98C241.683 175.673 242.109 175.24 242.416 174.68C242.723 174.107 242.876 173.447 242.876 172.7C242.876 171.94 242.723 171.287 242.416 170.74C242.109 170.18 241.683 169.747 241.136 169.44C240.603 169.133 239.996 168.98 239.316 168.98C238.636 168.98 238.029 169.133 237.496 169.44C236.963 169.747 236.536 170.18 236.216 170.74C235.896 171.287 235.736 171.94 235.736 172.7C235.736 173.447 235.896 174.107 236.216 174.68C236.536 175.24 236.963 175.673 237.496 175.98C238.029 176.287 238.636 176.44 239.316 176.44ZM253.209 178.12C252.329 178.12 251.522 177.92 250.789 177.52C250.069 177.107 249.489 176.5 249.049 175.7C248.622 174.9 248.409 173.9 248.409 172.7C248.409 171.5 248.615 170.5 249.029 169.7C249.455 168.9 250.029 168.3 250.749 167.9C251.482 167.5 252.302 167.3 253.209 167.3C254.249 167.3 255.169 167.527 255.969 167.98C256.769 168.433 257.402 169.067 257.869 169.88C258.335 170.68 258.569 171.62 258.569 172.7C258.569 173.78 258.335 174.727 257.869 175.54C257.402 176.353 256.769 176.987 255.969 177.44C255.169 177.893 254.249 178.12 253.209 178.12ZM247.589 181.88V167.4H249.429V170.26L249.309 172.72L249.509 175.18V181.88H247.589ZM253.049 176.44C253.729 176.44 254.335 176.287 254.869 175.98C255.415 175.673 255.842 175.24 256.149 174.68C256.469 174.107 256.629 173.447 256.629 172.7C256.629 171.94 256.469 171.287 256.149 170.74C255.842 170.18 255.415 169.747 254.869 169.44C254.335 169.133 253.729 168.98 253.049 168.98C252.382 168.98 251.775 169.133 251.229 169.44C250.695 169.747 250.269 170.18 249.949 170.74C249.642 171.287 249.489 171.94 249.489 172.7C249.489 173.447 249.642 174.107 249.949 174.68C250.269 175.24 250.695 175.673 251.229 175.98C251.775 176.287 252.382 176.44 253.049 176.44ZM263.067 178V168.58L263.547 169.08H259.187V167.4H268.867V169.08H264.527L264.987 168.58V178H263.067Z" fill="white"/>
<path d="M253.509 50V42.58H254.895L258.087 48.068H257.527L260.803 42.58H262.063V50H260.845V44.092L261.069 44.218L258.073 49.16H257.485L254.475 44.12L254.741 44.064V50H253.509ZM267.857 50.084C267.11 50.084 266.448 49.9207 265.869 49.594C265.29 49.2673 264.833 48.8193 264.497 48.25C264.161 47.6713 263.993 47.018 263.993 46.29C263.993 45.5527 264.161 44.8993 264.497 44.33C264.833 43.7607 265.29 43.3173 265.869 43C266.448 42.6733 267.11 42.51 267.857 42.51C268.594 42.51 269.252 42.6733 269.831 43C270.419 43.3173 270.876 43.7607 271.203 44.33C271.539 44.89 271.707 45.5433 271.707 46.29C271.707 47.0273 271.539 47.6807 271.203 48.25C270.876 48.8193 270.419 49.2673 269.831 49.594C269.252 49.9207 268.594 50.084 267.857 50.084ZM267.857 48.908C268.333 48.908 268.758 48.8007 269.131 48.586C269.514 48.3713 269.812 48.068 270.027 47.676C270.242 47.2747 270.349 46.8127 270.349 46.29C270.349 45.758 270.242 45.3007 270.027 44.918C269.812 44.526 269.514 44.2227 269.131 44.008C268.758 43.7933 268.333 43.686 267.857 43.686C267.381 43.686 266.956 43.7933 266.583 44.008C266.21 44.2227 265.911 44.526 265.687 44.918C265.463 45.3007 265.351 45.758 265.351 46.29C265.351 46.8127 265.463 47.2747 265.687 47.676C265.911 48.068 266.21 48.3713 266.583 48.586C266.956 48.8007 267.381 48.908 267.857 48.908ZM277.582 50.084C276.966 50.084 276.401 49.944 275.888 49.664C275.384 49.3747 274.978 48.95 274.67 48.39C274.371 47.83 274.222 47.13 274.222 46.29C274.222 45.45 274.366 44.75 274.656 44.19C274.954 43.63 275.356 43.21 275.86 42.93C276.373 42.65 276.947 42.51 277.582 42.51C278.31 42.51 278.954 42.6687 279.514 42.986C280.074 43.3033 280.517 43.7467 280.844 44.316C281.17 44.876 281.334 45.534 281.334 46.29C281.334 47.046 281.17 47.7087 280.844 48.278C280.517 48.8473 280.074 49.2907 279.514 49.608C278.954 49.9253 278.31 50.084 277.582 50.084ZM273.648 52.716V42.58H274.936V44.582L274.852 46.304L274.992 48.026V52.716H273.648ZM277.47 48.908C277.946 48.908 278.37 48.8007 278.744 48.586C279.126 48.3713 279.425 48.068 279.64 47.676C279.864 47.2747 279.976 46.8127 279.976 46.29C279.976 45.758 279.864 45.3007 279.64 44.918C279.425 44.526 279.126 44.2227 278.744 44.008C278.37 43.7933 277.946 43.686 277.47 43.686C277.003 43.686 276.578 43.7933 276.196 44.008C275.822 44.2227 275.524 44.526 275.3 44.918C275.085 45.3007 274.978 45.758 274.978 46.29C274.978 46.8127 275.085 47.2747 275.3 47.676C275.524 48.068 275.822 48.3713 276.196 48.586C276.578 48.8007 277.003 48.908 277.47 48.908ZM286.52 50.084C285.764 50.084 285.088 49.9207 284.49 49.594C283.902 49.2673 283.44 48.8193 283.104 48.25C282.768 47.6807 282.6 47.0273 282.6 46.29C282.6 45.5527 282.768 44.8993 283.104 44.33C283.44 43.7607 283.902 43.3173 284.49 43C285.088 42.6733 285.764 42.51 286.52 42.51C287.192 42.51 287.79 42.6453 288.312 42.916C288.844 43.1773 289.255 43.5693 289.544 44.092L288.522 44.75C288.28 44.386 287.981 44.12 287.626 43.952C287.281 43.7747 286.908 43.686 286.506 43.686C286.021 43.686 285.587 43.7933 285.204 44.008C284.822 44.2227 284.518 44.526 284.294 44.918C284.07 45.3007 283.958 45.758 283.958 46.29C283.958 46.822 284.07 47.284 284.294 47.676C284.518 48.068 284.822 48.3713 285.204 48.586C285.587 48.8007 286.021 48.908 286.506 48.908C286.908 48.908 287.281 48.824 287.626 48.656C287.981 48.4787 288.28 48.208 288.522 47.844L289.544 48.488C289.255 49.0013 288.844 49.398 288.312 49.678C287.79 49.9487 287.192 50.084 286.52 50.084ZM296.66 50L293.79 46.388L294.896 45.716L298.242 50H296.66ZM291.284 50V42.58H292.628V50H291.284ZM292.222 46.864V45.716H294.672V46.864H292.222ZM295.008 46.444L293.762 46.276L296.604 42.58H298.046L295.008 46.444ZM302.584 50.084C301.837 50.084 301.174 49.9207 300.596 49.594C300.017 49.2673 299.56 48.8193 299.224 48.25C298.888 47.6713 298.72 47.018 298.72 46.29C298.72 45.5527 298.888 44.8993 299.224 44.33C299.56 43.7607 300.017 43.3173 300.596 43C301.174 42.6733 301.837 42.51 302.584 42.51C303.321 42.51 303.979 42.6733 304.558 43C305.146 43.3173 305.603 43.7607 305.93 44.33C306.266 44.89 306.434 45.5433 306.434 46.29C306.434 47.0273 306.266 47.6807 305.93 48.25C305.603 48.8193 305.146 49.2673 304.558 49.594C303.979 49.9207 303.321 50.084 302.584 50.084ZM302.584 48.908C303.06 48.908 303.484 48.8007 303.858 48.586C304.24 48.3713 304.539 48.068 304.754 47.676C304.968 47.2747 305.076 46.8127 305.076 46.29C305.076 45.758 304.968 45.3007 304.754 44.918C304.539 44.526 304.24 44.2227 303.858 44.008C303.484 43.7933 303.06 43.686 302.584 43.686C302.108 43.686 301.683 43.7933 301.31 44.008C300.936 44.2227 300.638 44.526 300.414 44.918C300.19 45.3007 300.078 45.758 300.078 46.29C300.078 46.8127 300.19 47.2747 300.414 47.676C300.638 48.068 300.936 48.3713 301.31 48.586C301.683 48.8007 302.108 48.908 302.584 48.908ZM308.374 50V42.58H309.718V47.984L314.268 42.58H315.486V50H314.142V44.596L309.606 50H308.374ZM311.846 41.614C311.165 41.614 310.628 41.4507 310.236 41.124C309.854 40.788 309.658 40.3073 309.648 39.682H310.558C310.568 40.0367 310.684 40.3167 310.908 40.522C311.142 40.7273 311.45 40.83 311.832 40.83C312.215 40.83 312.523 40.7273 312.756 40.522C312.99 40.3167 313.111 40.0367 313.12 39.682H314.058C314.049 40.3073 313.848 40.788 313.456 41.124C313.064 41.4507 312.528 41.614 311.846 41.614ZM248.793 63V56.406L249.129 56.756H246.077V55.58H252.853V56.756H249.815L250.137 56.406V63H248.793ZM258.161 63.084C257.545 63.084 256.98 62.944 256.467 62.664C255.963 62.3747 255.557 61.95 255.249 61.39C254.95 60.83 254.801 60.13 254.801 59.29C254.801 58.45 254.945 57.75 255.235 57.19C255.533 56.63 255.935 56.21 256.439 55.93C256.952 55.65 257.526 55.51 258.161 55.51C258.889 55.51 259.533 55.6687 260.093 55.986C260.653 56.3033 261.096 56.7467 261.423 57.316C261.749 57.876 261.913 58.534 261.913 59.29C261.913 60.046 261.749 60.7087 261.423 61.278C261.096 61.8473 260.653 62.2907 260.093 62.608C259.533 62.9253 258.889 63.084 258.161 63.084ZM254.227 65.716V55.58H255.515V57.582L255.431 59.304L255.571 61.026V65.716H254.227ZM258.049 61.908C258.525 61.908 258.949 61.8007 259.323 61.586C259.705 61.3713 260.004 61.068 260.219 60.676C260.443 60.2747 260.555 59.8127 260.555 59.29C260.555 58.758 260.443 58.3007 260.219 57.918C260.004 57.526 259.705 57.2227 259.323 57.008C258.949 56.7933 258.525 56.686 258.049 56.686C257.582 56.686 257.157 56.7933 256.775 57.008C256.401 57.2227 256.103 57.526 255.879 57.918C255.664 58.3007 255.557 58.758 255.557 59.29C255.557 59.8127 255.664 60.2747 255.879 60.676C256.103 61.068 256.401 61.3713 256.775 61.586C257.157 61.8007 257.582 61.908 258.049 61.908ZM268.347 63V61.432L268.277 61.138V58.464C268.277 57.8947 268.109 57.456 267.773 57.148C267.446 56.8307 266.952 56.672 266.289 56.672C265.85 56.672 265.421 56.7467 265.001 56.896C264.581 57.036 264.226 57.2273 263.937 57.47L263.377 56.462C263.76 56.154 264.217 55.9207 264.749 55.762C265.29 55.594 265.855 55.51 266.443 55.51C267.46 55.51 268.244 55.7573 268.795 56.252C269.346 56.7467 269.621 57.5027 269.621 58.52V63H268.347ZM265.911 63.084C265.36 63.084 264.875 62.9907 264.455 62.804C264.044 62.6173 263.727 62.3607 263.503 62.034C263.279 61.698 263.167 61.32 263.167 60.9C263.167 60.4987 263.26 60.1347 263.447 59.808C263.643 59.4813 263.956 59.22 264.385 59.024C264.824 58.828 265.412 58.73 266.149 58.73H268.501V59.696H266.205C265.533 59.696 265.08 59.808 264.847 60.032C264.614 60.256 264.497 60.5267 264.497 60.844C264.497 61.208 264.642 61.502 264.931 61.726C265.22 61.9407 265.622 62.048 266.135 62.048C266.639 62.048 267.078 61.936 267.451 61.712C267.834 61.488 268.109 61.1613 268.277 60.732L268.543 61.656C268.366 62.0947 268.053 62.4447 267.605 62.706C267.157 62.958 266.592 63.084 265.911 63.084ZM272.041 63V55.58H273.385V58.73H277.613V55.58H278.957V63H277.613V59.892H273.385V63H272.041ZM284.805 63.084C284.049 63.084 283.372 62.9207 282.775 62.594C282.187 62.2673 281.725 61.8193 281.389 61.25C281.053 60.6807 280.885 60.0273 280.885 59.29C280.885 58.5527 281.053 57.8993 281.389 57.33C281.725 56.7607 282.187 56.3173 282.775 56C283.372 55.6733 284.049 55.51 284.805 55.51C285.477 55.51 286.074 55.6453 286.597 55.916C287.129 56.1773 287.539 56.5693 287.829 57.092L286.807 57.75C286.564 57.386 286.265 57.12 285.911 56.952C285.565 56.7747 285.192 56.686 284.791 56.686C284.305 56.686 283.871 56.7933 283.489 57.008C283.106 57.2227 282.803 57.526 282.579 57.918C282.355 58.3007 282.243 58.758 282.243 59.29C282.243 59.822 282.355 60.284 282.579 60.676C282.803 61.068 283.106 61.3713 283.489 61.586C283.871 61.8007 284.305 61.908 284.791 61.908C285.192 61.908 285.565 61.824 285.911 61.656C286.265 61.4787 286.564 61.208 286.807 60.844L287.829 61.488C287.539 62.0013 287.129 62.398 286.597 62.678C286.074 62.9487 285.477 63.084 284.805 63.084ZM289.569 63V55.58H296.443V63H295.099V56.42L295.421 56.756H290.591L290.913 56.42V63H289.569ZM302.221 63.084C301.475 63.084 300.812 62.9207 300.233 62.594C299.655 62.2673 299.197 61.8193 298.861 61.25C298.525 60.6713 298.357 60.018 298.357 59.29C298.357 58.5527 298.525 57.8993 298.861 57.33C299.197 56.7607 299.655 56.3173 300.233 56C300.812 55.6733 301.475 55.51 302.221 55.51C302.959 55.51 303.617 55.6733 304.195 56C304.783 56.3173 305.241 56.7607 305.567 57.33C305.903 57.89 306.071 58.5433 306.071 59.29C306.071 60.0273 305.903 60.6807 305.567 61.25C305.241 61.8193 304.783 62.2673 304.195 62.594C303.617 62.9207 302.959 63.084 302.221 63.084ZM302.221 61.908C302.697 61.908 303.122 61.8007 303.495 61.586C303.878 61.3713 304.177 61.068 304.391 60.676C304.606 60.2747 304.713 59.8127 304.713 59.29C304.713 58.758 304.606 58.3007 304.391 57.918C304.177 57.526 303.878 57.2227 303.495 57.008C303.122 56.7933 302.697 56.686 302.221 56.686C301.745 56.686 301.321 56.7933 300.947 57.008C300.574 57.2227 300.275 57.526 300.051 57.918C299.827 58.3007 299.715 58.758 299.715 59.29C299.715 59.8127 299.827 60.2747 300.051 60.676C300.275 61.068 300.574 61.3713 300.947 61.586C301.321 61.8007 301.745 61.908 302.221 61.908ZM311.946 63.084C311.33 63.084 310.765 62.944 310.252 62.664C309.748 62.3747 309.342 61.95 309.034 61.39C308.735 60.83 308.586 60.13 308.586 59.29C308.586 58.45 308.731 57.75 309.02 57.19C309.319 56.63 309.72 56.21 310.224 55.93C310.737 55.65 311.311 55.51 311.946 55.51C312.674 55.51 313.318 55.6687 313.878 55.986C314.438 56.3033 314.881 56.7467 315.208 57.316C315.535 57.876 315.698 58.534 315.698 59.29C315.698 60.046 315.535 60.7087 315.208 61.278C314.881 61.8473 314.438 62.2907 313.878 62.608C313.318 62.9253 312.674 63.084 311.946 63.084ZM308.012 65.716V55.58H309.3V57.582L309.216 59.304L309.356 61.026V65.716H308.012ZM311.834 61.908C312.31 61.908 312.735 61.8007 313.108 61.586C313.491 61.3713 313.789 61.068 314.004 60.676C314.228 60.2747 314.34 59.8127 314.34 59.29C314.34 58.758 314.228 58.3007 314.004 57.918C313.789 57.526 313.491 57.2227 313.108 57.008C312.735 56.7933 312.31 56.686 311.834 56.686C311.367 56.686 310.943 56.7933 310.56 57.008C310.187 57.2227 309.888 57.526 309.664 57.918C309.449 58.3007 309.342 58.758 309.342 59.29C309.342 59.8127 309.449 60.2747 309.664 60.676C309.888 61.068 310.187 61.3713 310.56 61.586C310.943 61.8007 311.367 61.908 311.834 61.908ZM318.847 63V56.406L319.183 56.756H316.131V55.58H322.907V56.756H319.869L320.191 56.406V63H318.847Z" fill="white"/>
<path d="M285.815 225V218.406L286.151 218.756H283.099V217.58H289.875V218.756H286.837L287.159 218.406V225H285.815ZM295.183 225.084C294.567 225.084 294.003 224.944 293.489 224.664C292.985 224.375 292.579 223.95 292.271 223.39C291.973 222.83 291.823 222.13 291.823 221.29C291.823 220.45 291.968 219.75 292.257 219.19C292.556 218.63 292.957 218.21 293.461 217.93C293.975 217.65 294.549 217.51 295.183 217.51C295.911 217.51 296.555 217.669 297.115 217.986C297.675 218.303 298.119 218.747 298.445 219.316C298.772 219.876 298.935 220.534 298.935 221.29C298.935 222.046 298.772 222.709 298.445 223.278C298.119 223.847 297.675 224.291 297.115 224.608C296.555 224.925 295.911 225.084 295.183 225.084ZM291.249 227.716V217.58H292.537V219.582L292.453 221.304L292.593 223.026V227.716H291.249ZM295.071 223.908C295.547 223.908 295.972 223.801 296.345 223.586C296.728 223.371 297.027 223.068 297.241 222.676C297.465 222.275 297.577 221.813 297.577 221.29C297.577 220.758 297.465 220.301 297.241 219.918C297.027 219.526 296.728 219.223 296.345 219.008C295.972 218.793 295.547 218.686 295.071 218.686C294.605 218.686 294.18 218.793 293.797 219.008C293.424 219.223 293.125 219.526 292.901 219.918C292.687 220.301 292.579 220.758 292.579 221.29C292.579 221.813 292.687 222.275 292.901 222.676C293.125 223.068 293.424 223.371 293.797 223.586C294.18 223.801 294.605 223.908 295.071 223.908ZM301.061 227.8C300.706 227.8 300.361 227.739 300.025 227.618C299.689 227.506 299.4 227.338 299.157 227.114L299.731 226.106C299.918 226.283 300.123 226.419 300.347 226.512C300.571 226.605 300.809 226.652 301.061 226.652C301.388 226.652 301.658 226.568 301.873 226.4C302.088 226.232 302.288 225.933 302.475 225.504L302.937 224.482L303.077 224.314L305.989 217.58H307.305L303.707 225.742C303.492 226.265 303.25 226.675 302.979 226.974C302.718 227.273 302.428 227.483 302.111 227.604C301.794 227.735 301.444 227.8 301.061 227.8ZM302.825 225.238L299.437 217.58H300.837L303.721 224.188L302.825 225.238ZM312.015 225.112C311.399 225.112 310.853 225.014 310.377 224.818C309.911 224.622 309.509 224.333 309.173 223.95C308.837 223.558 308.581 223.068 308.403 222.48C308.235 221.883 308.151 221.183 308.151 220.38C308.151 219.745 308.207 219.176 308.319 218.672C308.431 218.168 308.59 217.72 308.795 217.328C309.01 216.936 309.271 216.595 309.579 216.306C309.897 216.017 310.251 215.779 310.643 215.592C311.045 215.396 311.483 215.247 311.959 215.144L315.347 214.388L315.543 215.634L312.421 216.306C312.235 216.343 312.011 216.399 311.749 216.474C311.488 216.549 311.222 216.665 310.951 216.824C310.681 216.973 310.429 217.183 310.195 217.454C309.962 217.725 309.775 218.079 309.635 218.518C309.495 218.947 309.425 219.479 309.425 220.114C309.425 220.291 309.43 220.427 309.439 220.52C309.449 220.613 309.458 220.707 309.467 220.8C309.486 220.893 309.5 221.033 309.509 221.22L308.949 220.646C309.099 220.133 309.337 219.685 309.663 219.302C309.99 218.919 310.382 218.625 310.839 218.42C311.306 218.205 311.815 218.098 312.365 218.098C313.056 218.098 313.667 218.247 314.199 218.546C314.741 218.845 315.165 219.255 315.473 219.778C315.781 220.301 315.935 220.898 315.935 221.57C315.935 222.251 315.772 222.863 315.445 223.404C315.128 223.936 314.675 224.356 314.087 224.664C313.499 224.963 312.809 225.112 312.015 225.112ZM312.141 223.992C312.617 223.992 313.037 223.889 313.401 223.684C313.765 223.469 314.05 223.185 314.255 222.83C314.461 222.466 314.563 222.06 314.563 221.612C314.563 221.164 314.461 220.767 314.255 220.422C314.05 220.077 313.765 219.806 313.401 219.61C313.037 219.405 312.608 219.302 312.113 219.302C311.647 219.302 311.227 219.4 310.853 219.596C310.48 219.783 310.191 220.049 309.985 220.394C309.78 220.73 309.677 221.122 309.677 221.57C309.677 222.018 309.78 222.429 309.985 222.802C310.2 223.166 310.489 223.455 310.853 223.67C311.227 223.885 311.656 223.992 312.141 223.992ZM321.033 225.084C320.286 225.084 319.623 224.921 319.045 224.594C318.466 224.267 318.009 223.819 317.673 223.25C317.337 222.671 317.169 222.018 317.169 221.29C317.169 220.553 317.337 219.899 317.673 219.33C318.009 218.761 318.466 218.317 319.045 218C319.623 217.673 320.286 217.51 321.033 217.51C321.77 217.51 322.428 217.673 323.007 218C323.595 218.317 324.052 218.761 324.379 219.33C324.715 219.89 324.883 220.543 324.883 221.29C324.883 222.027 324.715 222.681 324.379 223.25C324.052 223.819 323.595 224.267 323.007 224.594C322.428 224.921 321.77 225.084 321.033 225.084ZM321.033 223.908C321.509 223.908 321.933 223.801 322.307 223.586C322.689 223.371 322.988 223.068 323.203 222.676C323.417 222.275 323.525 221.813 323.525 221.29C323.525 220.758 323.417 220.301 323.203 219.918C322.988 219.526 322.689 219.223 322.307 219.008C321.933 218.793 321.509 218.686 321.033 218.686C320.557 218.686 320.132 218.793 319.759 219.008C319.385 219.223 319.087 219.526 318.863 219.918C318.639 220.301 318.527 220.758 318.527 221.29C318.527 221.813 318.639 222.275 318.863 222.676C319.087 223.068 319.385 223.371 319.759 223.586C320.132 223.801 320.557 223.908 321.033 223.908ZM326.823 225V217.58H333.697V225H332.353V218.42L332.675 218.756H327.845L328.167 218.42V225H326.823ZM340.232 225.084C339.616 225.084 339.051 224.944 338.538 224.664C338.034 224.375 337.628 223.95 337.32 223.39C337.021 222.83 336.872 222.13 336.872 221.29C336.872 220.45 337.017 219.75 337.306 219.19C337.605 218.63 338.006 218.21 338.51 217.93C339.023 217.65 339.597 217.51 340.232 217.51C340.96 217.51 341.604 217.669 342.164 217.986C342.724 218.303 343.167 218.747 343.494 219.316C343.821 219.876 343.984 220.534 343.984 221.29C343.984 222.046 343.821 222.709 343.494 223.278C343.167 223.847 342.724 224.291 342.164 224.608C341.604 224.925 340.96 225.084 340.232 225.084ZM336.298 227.716V217.58H337.586V219.582L337.502 221.304L337.642 223.026V227.716H336.298ZM340.12 223.908C340.596 223.908 341.021 223.801 341.394 223.586C341.777 223.371 342.075 223.068 342.29 222.676C342.514 222.275 342.626 221.813 342.626 221.29C342.626 220.758 342.514 220.301 342.29 219.918C342.075 219.526 341.777 219.223 341.394 219.008C341.021 218.793 340.596 218.686 340.12 218.686C339.653 218.686 339.229 218.793 338.846 219.008C338.473 219.223 338.174 219.526 337.95 219.918C337.735 220.301 337.628 220.758 337.628 221.29C337.628 221.813 337.735 222.275 337.95 222.676C338.174 223.068 338.473 223.371 338.846 223.586C339.229 223.801 339.653 223.908 340.12 223.908ZM349.115 225.084C348.368 225.084 347.705 224.921 347.127 224.594C346.548 224.267 346.091 223.819 345.755 223.25C345.419 222.671 345.251 222.018 345.251 221.29C345.251 220.553 345.419 219.899 345.755 219.33C346.091 218.761 346.548 218.317 347.127 218C347.705 217.673 348.368 217.51 349.115 217.51C349.852 217.51 350.51 217.673 351.089 218C351.677 218.317 352.134 218.761 352.461 219.33C352.797 219.89 352.965 220.543 352.965 221.29C352.965 222.027 352.797 222.681 352.461 223.25C352.134 223.819 351.677 224.267 351.089 224.594C350.51 224.921 349.852 225.084 349.115 225.084ZM349.115 223.908C349.591 223.908 350.015 223.801 350.389 223.586C350.771 223.371 351.07 223.068 351.285 222.676C351.499 222.275 351.607 221.813 351.607 221.29C351.607 220.758 351.499 220.301 351.285 219.918C351.07 219.526 350.771 219.223 350.389 219.008C350.015 218.793 349.591 218.686 349.115 218.686C348.639 218.686 348.214 218.793 347.841 219.008C347.467 219.223 347.169 219.526 346.945 219.918C346.721 220.301 346.609 220.758 346.609 221.29C346.609 221.813 346.721 222.275 346.945 222.676C347.169 223.068 347.467 223.371 347.841 223.586C348.214 223.801 348.639 223.908 349.115 223.908ZM354.906 225V217.58H358.35C359.218 217.58 359.899 217.748 360.394 218.084C360.898 218.411 361.15 218.877 361.15 219.484C361.15 220.091 360.912 220.562 360.436 220.898C359.969 221.225 359.348 221.388 358.574 221.388L358.784 221.024C359.67 221.024 360.328 221.187 360.758 221.514C361.187 221.841 361.402 222.321 361.402 222.956C361.402 223.6 361.159 224.104 360.674 224.468C360.198 224.823 359.465 225 358.476 225H354.906ZM356.222 223.964H358.378C358.938 223.964 359.358 223.88 359.638 223.712C359.918 223.535 360.058 223.255 360.058 222.872C360.058 222.48 359.927 222.195 359.666 222.018C359.414 221.831 359.012 221.738 358.462 221.738H356.222V223.964ZM356.222 220.772H358.238C358.751 220.772 359.138 220.679 359.4 220.492C359.67 220.296 359.806 220.025 359.806 219.68C359.806 219.325 359.67 219.059 359.4 218.882C359.138 218.705 358.751 218.616 358.238 218.616H356.222V220.772ZM366.683 225.084C365.936 225.084 365.274 224.921 364.695 224.594C364.116 224.267 363.659 223.819 363.323 223.25C362.987 222.671 362.819 222.018 362.819 221.29C362.819 220.553 362.987 219.899 363.323 219.33C363.659 218.761 364.116 218.317 364.695 218C365.274 217.673 365.936 217.51 366.683 217.51C367.42 217.51 368.078 217.673 368.657 218C369.245 218.317 369.702 218.761 370.029 219.33C370.365 219.89 370.533 220.543 370.533 221.29C370.533 222.027 370.365 222.681 370.029 223.25C369.702 223.819 369.245 224.267 368.657 224.594C368.078 224.921 367.42 225.084 366.683 225.084ZM366.683 223.908C367.159 223.908 367.584 223.801 367.957 223.586C368.34 223.371 368.638 223.068 368.853 222.676C369.068 222.275 369.175 221.813 369.175 221.29C369.175 220.758 369.068 220.301 368.853 219.918C368.638 219.526 368.34 219.223 367.957 219.008C367.584 218.793 367.159 218.686 366.683 218.686C366.207 218.686 365.782 218.793 365.409 219.008C365.036 219.223 364.737 219.526 364.513 219.918C364.289 220.301 364.177 220.758 364.177 221.29C364.177 221.813 364.289 222.275 364.513 222.676C364.737 223.068 365.036 223.371 365.409 223.586C365.782 223.801 366.207 223.908 366.683 223.908ZM377.487 224.37V218.756H374.267L374.197 220.184C374.179 220.651 374.146 221.103 374.099 221.542C374.062 221.971 373.997 222.368 373.903 222.732C373.819 223.096 373.693 223.395 373.525 223.628C373.357 223.861 373.133 224.006 372.853 224.062L371.523 223.824C371.813 223.833 372.046 223.74 372.223 223.544C372.401 223.339 372.536 223.059 372.629 222.704C372.732 222.349 372.807 221.948 372.853 221.5C372.9 221.043 372.937 220.571 372.965 220.086L373.077 217.58H378.831V224.37H377.487ZM371.229 226.722V223.824H379.965V226.722H378.705V225H372.503V226.722H371.229ZM381.716 225V217.58H383.06V220.73H387.288V217.58H388.632V225H387.288V221.892H383.06V225H381.716ZM398.581 225V217.58H399.925V225H398.581ZM394.591 220.1C395.534 220.109 396.248 220.324 396.733 220.744C397.228 221.164 397.475 221.757 397.475 222.522C397.475 223.325 397.205 223.945 396.663 224.384C396.131 224.813 395.366 225.023 394.367 225.014L391.245 225V217.58H392.589V220.086L394.591 220.1ZM394.269 223.992C394.867 224.001 395.324 223.88 395.641 223.628C395.959 223.376 396.117 223.003 396.117 222.508C396.117 222.023 395.959 221.668 395.641 221.444C395.333 221.22 394.876 221.103 394.269 221.094L392.589 221.066V223.978L394.269 223.992ZM402.538 225V217.58H403.882V222.984L408.432 217.58H409.65V225H408.306V219.596L403.77 225H402.538ZM406.01 216.614C405.329 216.614 404.792 216.451 404.4 216.124C404.018 215.788 403.822 215.307 403.812 214.682H404.722C404.732 215.037 404.848 215.317 405.072 215.522C405.306 215.727 405.614 215.83 405.996 215.83C406.379 215.83 406.687 215.727 406.92 215.522C407.154 215.317 407.275 215.037 407.284 214.682H408.222C408.213 215.307 408.012 215.788 407.62 216.124C407.228 216.451 406.692 216.614 406.01 216.614ZM311.293 244V237.406L311.629 237.756H308.577V236.58H315.353V237.756H312.315L312.637 237.406V244H311.293ZM320.661 244.084C320.045 244.084 319.48 243.944 318.967 243.664C318.463 243.375 318.057 242.95 317.749 242.39C317.45 241.83 317.301 241.13 317.301 240.29C317.301 239.45 317.445 238.75 317.735 238.19C318.033 237.63 318.435 237.21 318.939 236.93C319.452 236.65 320.026 236.51 320.661 236.51C321.389 236.51 322.033 236.669 322.593 236.986C323.153 237.303 323.596 237.747 323.923 238.316C324.249 238.876 324.413 239.534 324.413 240.29C324.413 241.046 324.249 241.709 323.923 242.278C323.596 242.847 323.153 243.291 322.593 243.608C322.033 243.925 321.389 244.084 320.661 244.084ZM316.727 246.716V236.58H318.015V238.582L317.931 240.304L318.071 242.026V246.716H316.727ZM320.549 242.908C321.025 242.908 321.449 242.801 321.823 242.586C322.205 242.371 322.504 242.068 322.719 241.676C322.943 241.275 323.055 240.813 323.055 240.29C323.055 239.758 322.943 239.301 322.719 238.918C322.504 238.526 322.205 238.223 321.823 238.008C321.449 237.793 321.025 237.686 320.549 237.686C320.082 237.686 319.657 237.793 319.275 238.008C318.901 238.223 318.603 238.526 318.379 238.918C318.164 239.301 318.057 239.758 318.057 240.29C318.057 240.813 318.164 241.275 318.379 241.676C318.603 242.068 318.901 242.371 319.275 242.586C319.657 242.801 320.082 242.908 320.549 242.908ZM330.847 244V242.432L330.777 242.138V239.464C330.777 238.895 330.609 238.456 330.273 238.148C329.946 237.831 329.452 237.672 328.789 237.672C328.35 237.672 327.921 237.747 327.501 237.896C327.081 238.036 326.726 238.227 326.437 238.47L325.877 237.462C326.26 237.154 326.717 236.921 327.249 236.762C327.79 236.594 328.355 236.51 328.943 236.51C329.96 236.51 330.744 236.757 331.295 237.252C331.846 237.747 332.121 238.503 332.121 239.52V244H330.847ZM328.411 244.084C327.86 244.084 327.375 243.991 326.955 243.804C326.544 243.617 326.227 243.361 326.003 243.034C325.779 242.698 325.667 242.32 325.667 241.9C325.667 241.499 325.76 241.135 325.947 240.808C326.143 240.481 326.456 240.22 326.885 240.024C327.324 239.828 327.912 239.73 328.649 239.73H331.001V240.696H328.705C328.033 240.696 327.58 240.808 327.347 241.032C327.114 241.256 326.997 241.527 326.997 241.844C326.997 242.208 327.142 242.502 327.431 242.726C327.72 242.941 328.122 243.048 328.635 243.048C329.139 243.048 329.578 242.936 329.951 242.712C330.334 242.488 330.609 242.161 330.777 241.732L331.043 242.656C330.866 243.095 330.553 243.445 330.105 243.706C329.657 243.958 329.092 244.084 328.411 244.084ZM334.541 244V236.58H335.885V239.73H340.113V236.58H341.457V244H340.113V240.892H335.885V244H334.541ZM347.305 244.084C346.549 244.084 345.872 243.921 345.275 243.594C344.687 243.267 344.225 242.819 343.889 242.25C343.553 241.681 343.385 241.027 343.385 240.29C343.385 239.553 343.553 238.899 343.889 238.33C344.225 237.761 344.687 237.317 345.275 237C345.872 236.673 346.549 236.51 347.305 236.51C347.977 236.51 348.574 236.645 349.097 236.916C349.629 237.177 350.039 237.569 350.329 238.092L349.307 238.75C349.064 238.386 348.765 238.12 348.411 237.952C348.065 237.775 347.692 237.686 347.291 237.686C346.805 237.686 346.371 237.793 345.989 238.008C345.606 238.223 345.303 238.526 345.079 238.918C344.855 239.301 344.743 239.758 344.743 240.29C344.743 240.822 344.855 241.284 345.079 241.676C345.303 242.068 345.606 242.371 345.989 242.586C346.371 242.801 346.805 242.908 347.291 242.908C347.692 242.908 348.065 242.824 348.411 242.656C348.765 242.479 349.064 242.208 349.307 241.844L350.329 242.488C350.039 243.001 349.629 243.398 349.097 243.678C348.574 243.949 347.977 244.084 347.305 244.084ZM352.069 244V236.58H358.943V244H357.599V237.42L357.921 237.756H353.091L353.413 237.42V244H352.069ZM364.721 244.084C363.975 244.084 363.312 243.921 362.733 243.594C362.155 243.267 361.697 242.819 361.361 242.25C361.025 241.671 360.857 241.018 360.857 240.29C360.857 239.553 361.025 238.899 361.361 238.33C361.697 237.761 362.155 237.317 362.733 237C363.312 236.673 363.975 236.51 364.721 236.51C365.459 236.51 366.117 236.673 366.695 237C367.283 237.317 367.741 237.761 368.067 238.33C368.403 238.89 368.571 239.543 368.571 240.29C368.571 241.027 368.403 241.681 368.067 242.25C367.741 242.819 367.283 243.267 366.695 243.594C366.117 243.921 365.459 244.084 364.721 244.084ZM364.721 242.908C365.197 242.908 365.622 242.801 365.995 242.586C366.378 242.371 366.677 242.068 366.891 241.676C367.106 241.275 367.213 240.813 367.213 240.29C367.213 239.758 367.106 239.301 366.891 238.918C366.677 238.526 366.378 238.223 365.995 238.008C365.622 237.793 365.197 237.686 364.721 237.686C364.245 237.686 363.821 237.793 363.447 238.008C363.074 238.223 362.775 238.526 362.551 238.918C362.327 239.301 362.215 239.758 362.215 240.29C362.215 240.813 362.327 241.275 362.551 241.676C362.775 242.068 363.074 242.371 363.447 242.586C363.821 242.801 364.245 242.908 364.721 242.908ZM374.446 244.084C373.83 244.084 373.265 243.944 372.752 243.664C372.248 243.375 371.842 242.95 371.534 242.39C371.235 241.83 371.086 241.13 371.086 240.29C371.086 239.45 371.231 238.75 371.52 238.19C371.819 237.63 372.22 237.21 372.724 236.93C373.237 236.65 373.811 236.51 374.446 236.51C375.174 236.51 375.818 236.669 376.378 236.986C376.938 237.303 377.381 237.747 377.708 238.316C378.035 238.876 378.198 239.534 378.198 240.29C378.198 241.046 378.035 241.709 377.708 242.278C377.381 242.847 376.938 243.291 376.378 243.608C375.818 243.925 375.174 244.084 374.446 244.084ZM370.512 246.716V236.58H371.8V238.582L371.716 240.304L371.856 242.026V246.716H370.512ZM374.334 242.908C374.81 242.908 375.235 242.801 375.608 242.586C375.991 242.371 376.289 242.068 376.504 241.676C376.728 241.275 376.84 240.813 376.84 240.29C376.84 239.758 376.728 239.301 376.504 238.918C376.289 238.526 375.991 238.223 375.608 238.008C375.235 237.793 374.81 237.686 374.334 237.686C373.867 237.686 373.443 237.793 373.06 238.008C372.687 238.223 372.388 238.526 372.164 238.918C371.949 239.301 371.842 239.758 371.842 240.29C371.842 240.813 371.949 241.275 372.164 241.676C372.388 242.068 372.687 242.371 373.06 242.586C373.443 242.801 373.867 242.908 374.334 242.908ZM381.347 244V237.406L381.683 237.756H378.631V236.58H385.407V237.756H382.369L382.691 237.406V244H381.347Z" fill="white"/>
<path d="M13.6041 237L11.2381 233.388L12.3441 232.716L15.2001 237H13.6041ZM9.69809 233.864V232.716H12.1061V233.864H9.69809ZM12.4701 233.444L11.1961 233.276L13.5621 229.58H15.0041L12.4701 233.444ZM5.27409 237H3.67809L6.52009 232.716L7.62609 233.388L5.27409 237ZM10.1041 237H8.76009V229.58H10.1041V237ZM9.16609 233.864H6.77209V232.716H9.16609V233.864ZM6.40809 233.444L3.87409 229.58H5.30209L7.66809 233.276L6.40809 233.444ZM19.7369 237.084C18.9435 237.084 18.2435 236.921 17.6369 236.594C17.0395 236.267 16.5729 235.819 16.2369 235.25C15.9102 234.681 15.7469 234.027 15.7469 233.29C15.7469 232.553 15.9055 231.899 16.2229 231.33C16.5495 230.761 16.9929 230.317 17.5529 230C18.1222 229.673 18.7615 229.51 19.4709 229.51C20.1895 229.51 20.8242 229.669 21.3749 229.986C21.9255 230.303 22.3549 230.751 22.6629 231.33C22.9802 231.899 23.1389 232.567 23.1389 233.332C23.1389 233.388 23.1342 233.453 23.1249 233.528C23.1249 233.603 23.1202 233.673 23.1109 233.738H16.7969V232.772H22.4109L21.8649 233.108C21.8742 232.632 21.7762 232.207 21.5709 231.834C21.3655 231.461 21.0809 231.171 20.7169 230.966C20.3622 230.751 19.9469 230.644 19.4709 230.644C19.0042 230.644 18.5889 230.751 18.2249 230.966C17.8609 231.171 17.5762 231.465 17.3709 231.848C17.1655 232.221 17.0629 232.651 17.0629 233.136V233.36C17.0629 233.855 17.1749 234.298 17.3989 234.69C17.6322 235.073 17.9542 235.371 18.3649 235.586C18.7755 235.801 19.2469 235.908 19.7789 235.908C20.2175 235.908 20.6142 235.833 20.9689 235.684C21.3329 235.535 21.6502 235.311 21.9209 235.012L22.6629 235.88C22.3269 236.272 21.9069 236.571 21.4029 236.776C20.9082 236.981 20.3529 237.084 19.7369 237.084ZM23.8688 236.986L23.9528 235.852C24.0182 235.861 24.0788 235.871 24.1348 235.88C24.1908 235.889 24.2422 235.894 24.2888 235.894C24.5875 235.894 24.8208 235.791 24.9888 235.586C25.1662 235.381 25.2968 235.11 25.3808 234.774C25.4648 234.429 25.5255 234.041 25.5628 233.612C25.6002 233.183 25.6282 232.753 25.6468 232.324L25.7728 229.58H31.4708V237H30.1268V230.364L30.4488 230.756H26.6408L26.9488 230.35L26.8508 232.408C26.8228 233.061 26.7715 233.673 26.6968 234.242C26.6222 234.811 26.5055 235.311 26.3468 235.74C26.1975 236.169 25.9875 236.505 25.7168 236.748C25.4555 236.991 25.1148 237.112 24.6948 237.112C24.5735 237.112 24.4428 237.098 24.3028 237.07C24.1722 237.051 24.0275 237.023 23.8688 236.986ZM37.3736 237.084C36.5802 237.084 35.8802 236.921 35.2736 236.594C34.6762 236.267 34.2096 235.819 33.8736 235.25C33.5469 234.681 33.3836 234.027 33.3836 233.29C33.3836 232.553 33.5422 231.899 33.8596 231.33C34.1862 230.761 34.6296 230.317 35.1896 230C35.7589 229.673 36.3982 229.51 37.1076 229.51C37.8262 229.51 38.4609 229.669 39.0116 229.986C39.5622 230.303 39.9916 230.751 40.2996 231.33C40.6169 231.899 40.7756 232.567 40.7756 233.332C40.7756 233.388 40.7709 233.453 40.7616 233.528C40.7616 233.603 40.7569 233.673 40.7476 233.738H34.4336V232.772H40.0476L39.5016 233.108C39.5109 232.632 39.4129 232.207 39.2076 231.834C39.0022 231.461 38.7176 231.171 38.3536 230.966C37.9989 230.751 37.5836 230.644 37.1076 230.644C36.6409 230.644 36.2256 230.751 35.8616 230.966C35.4976 231.171 35.2129 231.465 35.0076 231.848C34.8022 232.221 34.6996 232.651 34.6996 233.136V233.36C34.6996 233.855 34.8116 234.298 35.0356 234.69C35.2689 235.073 35.5909 235.371 36.0016 235.586C36.4122 235.801 36.8836 235.908 37.4156 235.908C37.8542 235.908 38.2509 235.833 38.6056 235.684C38.9696 235.535 39.2869 235.311 39.5576 235.012L40.2996 235.88C39.9636 236.272 39.5436 236.571 39.0396 236.776C38.5449 236.981 37.9896 237.084 37.3736 237.084ZM44.8665 237.098C45.5199 237.098 46.0985 237.005 46.6025 236.818C47.1159 236.622 47.5219 236.356 47.8205 236.02C48.1192 235.675 48.2685 235.278 48.2685 234.83C48.2685 234.27 48.0305 233.827 47.5545 233.5C47.0785 233.173 46.4252 233.01 45.5945 233.01L45.5385 233.332C46.0239 233.332 46.4532 233.253 46.8265 233.094C47.1999 232.935 47.4985 232.721 47.7225 232.45C47.9465 232.17 48.0585 231.853 48.0585 231.498C48.0585 231.078 47.9092 230.714 47.6105 230.406C47.3212 230.098 46.9245 229.865 46.4205 229.706C45.9165 229.538 45.3425 229.463 44.6985 229.482C44.2692 229.491 43.8352 229.557 43.3965 229.678C42.9672 229.79 42.5285 229.953 42.0805 230.168L42.4445 231.218C42.8459 231.022 43.2379 230.877 43.6205 230.784C44.0125 230.691 44.3952 230.639 44.7685 230.63C45.1512 230.63 45.4825 230.672 45.7625 230.756C46.0519 230.84 46.2759 230.961 46.4345 231.12C46.5932 231.279 46.6725 231.47 46.6725 231.694C46.6725 231.899 46.6025 232.081 46.4625 232.24C46.3319 232.389 46.1452 232.501 45.9025 232.576C45.6599 232.651 45.3752 232.688 45.0485 232.688H43.7885V233.654H45.1325C45.6832 233.654 46.1125 233.747 46.4205 233.934C46.7285 234.121 46.8825 234.387 46.8825 234.732C46.8825 234.975 46.7985 235.189 46.6305 235.376C46.4625 235.553 46.2199 235.693 45.9025 235.796C45.5945 235.899 45.2259 235.95 44.7965 235.95C44.3299 235.95 43.8679 235.889 43.4105 235.768C42.9532 235.637 42.5472 235.46 42.1925 235.236L41.7865 236.258C42.2065 236.529 42.6825 236.739 43.2145 236.888C43.7559 237.028 44.3065 237.098 44.8665 237.098ZM50.3118 237V229.58H51.6558V232.73H55.8838V229.58H57.2278V237H55.8838V233.892H51.6558V237H50.3118ZM63.0191 237.084C62.2724 237.084 61.6097 236.921 61.0311 236.594C60.4524 236.267 59.9951 235.819 59.6591 235.25C59.3231 234.671 59.1551 234.018 59.1551 233.29C59.1551 232.553 59.3231 231.899 59.6591 231.33C59.9951 230.761 60.4524 230.317 61.0311 230C61.6097 229.673 62.2724 229.51 63.0191 229.51C63.7564 229.51 64.4144 229.673 64.9931 230C65.5811 230.317 66.0384 230.761 66.3651 231.33C66.7011 231.89 66.8691 232.543 66.8691 233.29C66.8691 234.027 66.7011 234.681 66.3651 235.25C66.0384 235.819 65.5811 236.267 64.9931 236.594C64.4144 236.921 63.7564 237.084 63.0191 237.084ZM63.0191 235.908C63.4951 235.908 63.9197 235.801 64.2931 235.586C64.6757 235.371 64.9744 235.068 65.1891 234.676C65.4037 234.275 65.5111 233.813 65.5111 233.29C65.5111 232.758 65.4037 232.301 65.1891 231.918C64.9744 231.526 64.6757 231.223 64.2931 231.008C63.9197 230.793 63.4951 230.686 63.0191 230.686C62.5431 230.686 62.1184 230.793 61.7451 231.008C61.3717 231.223 61.0731 231.526 60.8491 231.918C60.6251 232.301 60.5131 232.758 60.5131 233.29C60.5131 233.813 60.6251 234.275 60.8491 234.676C61.0731 235.068 61.3717 235.371 61.7451 235.586C62.1184 235.801 62.5431 235.908 63.0191 235.908ZM73.8231 236.37V230.756H70.6031L70.5331 232.184C70.5145 232.651 70.4818 233.103 70.4351 233.542C70.3978 233.971 70.3325 234.368 70.2391 234.732C70.1551 235.096 70.0291 235.395 69.8611 235.628C69.6931 235.861 69.4691 236.006 69.1891 236.062L67.8591 235.824C68.1485 235.833 68.3818 235.74 68.5591 235.544C68.7365 235.339 68.8718 235.059 68.9651 234.704C69.0678 234.349 69.1425 233.948 69.1891 233.5C69.2358 233.043 69.2731 232.571 69.3011 232.086L69.4131 229.58H75.1671V236.37H73.8231ZM67.5651 238.722V235.824H76.3011V238.722H75.0411V237H68.8391V238.722H67.5651ZM81.23 237.084C80.4833 237.084 79.8207 236.921 79.242 236.594C78.6633 236.267 78.206 235.819 77.87 235.25C77.534 234.671 77.366 234.018 77.366 233.29C77.366 232.553 77.534 231.899 77.87 231.33C78.206 230.761 78.6633 230.317 79.242 230C79.8207 229.673 80.4833 229.51 81.23 229.51C81.9673 229.51 82.6253 229.673 83.204 230C83.792 230.317 84.2493 230.761 84.576 231.33C84.912 231.89 85.08 232.543 85.08 233.29C85.08 234.027 84.912 234.681 84.576 235.25C84.2493 235.819 83.792 236.267 83.204 236.594C82.6253 236.921 81.9673 237.084 81.23 237.084ZM81.23 235.908C81.706 235.908 82.1307 235.801 82.504 235.586C82.8867 235.371 83.1853 235.068 83.4 234.676C83.6147 234.275 83.722 233.813 83.722 233.29C83.722 232.758 83.6147 232.301 83.4 231.918C83.1853 231.526 82.8867 231.223 82.504 231.008C82.1307 230.793 81.706 230.686 81.23 230.686C80.754 230.686 80.3293 230.793 79.956 231.008C79.5827 231.223 79.284 231.526 79.06 231.918C78.836 232.301 78.724 232.758 78.724 233.29C78.724 233.813 78.836 234.275 79.06 234.676C79.284 235.068 79.5827 235.371 79.956 235.586C80.3293 235.801 80.754 235.908 81.23 235.908ZM90.9548 237.084C90.3388 237.084 89.7741 236.944 89.2608 236.664C88.7568 236.375 88.3508 235.95 88.0428 235.39C87.7441 234.83 87.5948 234.13 87.5948 233.29C87.5948 232.45 87.7394 231.75 88.0288 231.19C88.3274 230.63 88.7288 230.21 89.2328 229.93C89.7461 229.65 90.3201 229.51 90.9548 229.51C91.6828 229.51 92.3268 229.669 92.8868 229.986C93.4468 230.303 93.8901 230.747 94.2168 231.316C94.5434 231.876 94.7068 232.534 94.7068 233.29C94.7068 234.046 94.5434 234.709 94.2168 235.278C93.8901 235.847 93.4468 236.291 92.8868 236.608C92.3268 236.925 91.6828 237.084 90.9548 237.084ZM87.0208 239.716V229.58H88.3088V231.582L88.2248 233.304L88.3648 235.026V239.716H87.0208ZM90.8428 235.908C91.3188 235.908 91.7434 235.801 92.1168 235.586C92.4994 235.371 92.7981 235.068 93.0128 234.676C93.2368 234.275 93.3488 233.813 93.3488 233.29C93.3488 232.758 93.2368 232.301 93.0128 231.918C92.7981 231.526 92.4994 231.223 92.1168 231.008C91.7434 230.793 91.3188 230.686 90.8428 230.686C90.3761 230.686 89.9514 230.793 89.5688 231.008C89.1954 231.223 88.8968 231.526 88.6728 231.918C88.4581 232.301 88.3508 232.758 88.3508 233.29C88.3508 233.813 88.4581 234.275 88.6728 234.676C88.8968 235.068 89.1954 235.371 89.5688 235.586C89.9514 235.801 90.3761 235.908 90.8428 235.908ZM99.8374 237.084C99.0908 237.084 98.4281 236.921 97.8494 236.594C97.2708 236.267 96.8134 235.819 96.4774 235.25C96.1414 234.671 95.9734 234.018 95.9734 233.29C95.9734 232.553 96.1414 231.899 96.4774 231.33C96.8134 230.761 97.2708 230.317 97.8494 230C98.4281 229.673 99.0908 229.51 99.8374 229.51C100.575 229.51 101.233 229.673 101.811 230C102.399 230.317 102.857 230.761 103.183 231.33C103.519 231.89 103.687 232.543 103.687 233.29C103.687 234.027 103.519 234.681 103.183 235.25C102.857 235.819 102.399 236.267 101.811 236.594C101.233 236.921 100.575 237.084 99.8374 237.084ZM99.8374 235.908C100.313 235.908 100.738 235.801 101.111 235.586C101.494 235.371 101.793 235.068 102.007 234.676C102.222 234.275 102.329 233.813 102.329 233.29C102.329 232.758 102.222 232.301 102.007 231.918C101.793 231.526 101.494 231.223 101.111 231.008C100.738 230.793 100.313 230.686 99.8374 230.686C99.3614 230.686 98.9368 230.793 98.5634 231.008C98.1901 231.223 97.8914 231.526 97.6674 231.918C97.4434 232.301 97.3314 232.758 97.3314 233.29C97.3314 233.813 97.4434 234.275 97.6674 234.676C97.8914 235.068 98.1901 235.371 98.5634 235.586C98.9368 235.801 99.3614 235.908 99.8374 235.908ZM114.188 237L111.822 233.388L112.928 232.716L115.784 237H114.188ZM110.282 233.864V232.716H112.69V233.864H110.282ZM113.054 233.444L111.78 233.276L114.146 229.58H115.588L113.054 233.444ZM105.858 237H104.262L107.104 232.716L108.21 233.388L105.858 237ZM110.688 237H109.344V229.58H110.688V237ZM109.75 233.864H107.356V232.716H109.75V233.864ZM106.992 233.444L104.458 229.58H105.886L108.252 233.276L106.992 233.444ZM117.263 237V229.58H118.607V232.73H122.835V229.58H124.179V237H122.835V233.892H118.607V237H117.263ZM134.128 237V229.58H135.472V237H134.128ZM130.138 232.1C131.081 232.109 131.795 232.324 132.28 232.744C132.775 233.164 133.022 233.757 133.022 234.522C133.022 235.325 132.752 235.945 132.21 236.384C131.678 236.813 130.913 237.023 129.914 237.014L126.792 237V229.58H128.136V232.086L130.138 232.1ZM129.816 235.992C130.414 236.001 130.871 235.88 131.188 235.628C131.506 235.376 131.664 235.003 131.664 234.508C131.664 234.023 131.506 233.668 131.188 233.444C130.88 233.22 130.423 233.103 129.816 233.094L128.136 233.066V235.978L129.816 235.992ZM138.085 237V229.58H139.429V234.984L143.979 229.58H145.197V237H143.853V231.596L139.317 237H138.085ZM141.557 228.614C140.876 228.614 140.339 228.451 139.947 228.124C139.565 227.788 139.369 227.307 139.359 226.682H140.269C140.279 227.037 140.395 227.317 140.619 227.522C140.853 227.727 141.161 227.83 141.543 227.83C141.926 227.83 142.234 227.727 142.467 227.522C142.701 227.317 142.822 227.037 142.831 226.682H143.769C143.76 227.307 143.559 227.788 143.167 228.124C142.775 228.451 142.239 228.614 141.557 228.614ZM39.2925 256V249.406L39.6285 249.756H36.5765V248.58H43.3525V249.756H40.3145L40.6365 249.406V256H39.2925ZM48.6608 256.084C48.0448 256.084 47.4801 255.944 46.9668 255.664C46.4628 255.375 46.0568 254.95 45.7488 254.39C45.4501 253.83 45.3008 253.13 45.3008 252.29C45.3008 251.45 45.4455 250.75 45.7348 250.19C46.0335 249.63 46.4348 249.21 46.9388 248.93C47.4521 248.65 48.0261 248.51 48.6608 248.51C49.3888 248.51 50.0328 248.669 50.5928 248.986C51.1528 249.303 51.5961 249.747 51.9228 250.316C52.2495 250.876 52.4128 251.534 52.4128 252.29C52.4128 253.046 52.2495 253.709 51.9228 254.278C51.5961 254.847 51.1528 255.291 50.5928 255.608C50.0328 255.925 49.3888 256.084 48.6608 256.084ZM44.7268 258.716V248.58H46.0148V250.582L45.9308 252.304L46.0708 254.026V258.716H44.7268ZM48.5488 254.908C49.0248 254.908 49.4495 254.801 49.8228 254.586C50.2055 254.371 50.5041 254.068 50.7188 253.676C50.9428 253.275 51.0548 252.813 51.0548 252.29C51.0548 251.758 50.9428 251.301 50.7188 250.918C50.5041 250.526 50.2055 250.223 49.8228 250.008C49.4495 249.793 49.0248 249.686 48.5488 249.686C48.0821 249.686 47.6575 249.793 47.2748 250.008C46.9015 250.223 46.6028 250.526 46.3788 250.918C46.1641 251.301 46.0568 251.758 46.0568 252.29C46.0568 252.813 46.1641 253.275 46.3788 253.676C46.6028 254.068 46.9015 254.371 47.2748 254.586C47.6575 254.801 48.0821 254.908 48.5488 254.908ZM58.8471 256V254.432L58.7771 254.138V251.464C58.7771 250.895 58.6091 250.456 58.2731 250.148C57.9465 249.831 57.4518 249.672 56.7891 249.672C56.3505 249.672 55.9211 249.747 55.5011 249.896C55.0811 250.036 54.7265 250.227 54.4371 250.47L53.8771 249.462C54.2598 249.154 54.7171 248.921 55.2491 248.762C55.7905 248.594 56.3551 248.51 56.9431 248.51C57.9605 248.51 58.7445 248.757 59.2951 249.252C59.8458 249.747 60.1211 250.503 60.1211 251.52V256H58.8471ZM56.4111 256.084C55.8605 256.084 55.3751 255.991 54.9551 255.804C54.5445 255.617 54.2271 255.361 54.0031 255.034C53.7791 254.698 53.6671 254.32 53.6671 253.9C53.6671 253.499 53.7605 253.135 53.9471 252.808C54.1431 252.481 54.4558 252.22 54.8851 252.024C55.3238 251.828 55.9118 251.73 56.6491 251.73H59.0011V252.696H56.7051C56.0331 252.696 55.5805 252.808 55.3471 253.032C55.1138 253.256 54.9971 253.527 54.9971 253.844C54.9971 254.208 55.1418 254.502 55.4311 254.726C55.7205 254.941 56.1218 255.048 56.6351 255.048C57.1391 255.048 57.5778 254.936 57.9511 254.712C58.3338 254.488 58.6091 254.161 58.7771 253.732L59.0431 254.656C58.8658 255.095 58.5531 255.445 58.1051 255.706C57.6571 255.958 57.0925 256.084 56.4111 256.084ZM62.5413 256V248.58H63.8853V251.73H68.1133V248.58H69.4573V256H68.1133V252.892H63.8853V256H62.5413ZM75.3046 256.084C74.5486 256.084 73.8719 255.921 73.2746 255.594C72.6866 255.267 72.2246 254.819 71.8886 254.25C71.5526 253.681 71.3846 253.027 71.3846 252.29C71.3846 251.553 71.5526 250.899 71.8886 250.33C72.2246 249.761 72.6866 249.317 73.2746 249C73.8719 248.673 74.5486 248.51 75.3046 248.51C75.9766 248.51 76.5739 248.645 77.0966 248.916C77.6286 249.177 78.0392 249.569 78.3286 250.092L77.3066 250.75C77.0639 250.386 76.7652 250.12 76.4106 249.952C76.0652 249.775 75.6919 249.686 75.2906 249.686C74.8052 249.686 74.3712 249.793 73.9886 250.008C73.6059 250.223 73.3026 250.526 73.0786 250.918C72.8546 251.301 72.7426 251.758 72.7426 252.29C72.7426 252.822 72.8546 253.284 73.0786 253.676C73.3026 254.068 73.6059 254.371 73.9886 254.586C74.3712 254.801 74.8052 254.908 75.2906 254.908C75.6919 254.908 76.0652 254.824 76.4106 254.656C76.7652 254.479 77.0639 254.208 77.3066 253.844L78.3286 254.488C78.0392 255.001 77.6286 255.398 77.0966 255.678C76.5739 255.949 75.9766 256.084 75.3046 256.084ZM80.0686 256V248.58H86.9426V256H85.5986V249.42L85.9206 249.756H81.0906L81.4126 249.42V256H80.0686ZM92.7212 256.084C91.9745 256.084 91.3119 255.921 90.7332 255.594C90.1545 255.267 89.6972 254.819 89.3612 254.25C89.0252 253.671 88.8572 253.018 88.8572 252.29C88.8572 251.553 89.0252 250.899 89.3612 250.33C89.6972 249.761 90.1545 249.317 90.7332 249C91.3119 248.673 91.9745 248.51 92.7212 248.51C93.4585 248.51 94.1165 248.673 94.6952 249C95.2832 249.317 95.7405 249.761 96.0672 250.33C96.4032 250.89 96.5712 251.543 96.5712 252.29C96.5712 253.027 96.4032 253.681 96.0672 254.25C95.7405 254.819 95.2832 255.267 94.6952 255.594C94.1165 255.921 93.4585 256.084 92.7212 256.084ZM92.7212 254.908C93.1972 254.908 93.6219 254.801 93.9952 254.586C94.3779 254.371 94.6765 254.068 94.8912 253.676C95.1059 253.275 95.2132 252.813 95.2132 252.29C95.2132 251.758 95.1059 251.301 94.8912 250.918C94.6765 250.526 94.3779 250.223 93.9952 250.008C93.6219 249.793 93.1972 249.686 92.7212 249.686C92.2452 249.686 91.8205 249.793 91.4472 250.008C91.0739 250.223 90.7752 250.526 90.5512 250.918C90.3272 251.301 90.2152 251.758 90.2152 252.29C90.2152 252.813 90.3272 253.275 90.5512 253.676C90.7752 254.068 91.0739 254.371 91.4472 254.586C91.8205 254.801 92.2452 254.908 92.7212 254.908ZM102.446 256.084C101.83 256.084 101.265 255.944 100.752 255.664C100.248 255.375 99.842 254.95 99.534 254.39C99.2353 253.83 99.086 253.13 99.086 252.29C99.086 251.45 99.2306 250.75 99.52 250.19C99.8186 249.63 100.22 249.21 100.724 248.93C101.237 248.65 101.811 248.51 102.446 248.51C103.174 248.51 103.818 248.669 104.378 248.986C104.938 249.303 105.381 249.747 105.708 250.316C106.035 250.876 106.198 251.534 106.198 252.29C106.198 253.046 106.035 253.709 105.708 254.278C105.381 254.847 104.938 255.291 104.378 255.608C103.818 255.925 103.174 256.084 102.446 256.084ZM98.512 258.716V248.58H99.8V250.582L99.716 252.304L99.856 254.026V258.716H98.512ZM102.334 254.908C102.81 254.908 103.235 254.801 103.608 254.586C103.991 254.371 104.289 254.068 104.504 253.676C104.728 253.275 104.84 252.813 104.84 252.29C104.84 251.758 104.728 251.301 104.504 250.918C104.289 250.526 103.991 250.223 103.608 250.008C103.235 249.793 102.81 249.686 102.334 249.686C101.867 249.686 101.443 249.793 101.06 250.008C100.687 250.223 100.388 250.526 100.164 250.918C99.9493 251.301 99.842 251.758 99.842 252.29C99.842 252.813 99.9493 253.275 100.164 253.676C100.388 254.068 100.687 254.371 101.06 254.586C101.443 254.801 101.867 254.908 102.334 254.908ZM109.347 256V249.406L109.683 249.756H106.631V248.58H113.407V249.756H110.369L110.691 249.406V256H109.347Z" fill="white"/>
<path d="M70.6462 86.084C70.0302 86.084 69.4655 85.944 68.9522 85.664C68.4482 85.3747 68.0422 84.95 67.7342 84.39C67.4355 83.83 67.2862 83.13 67.2862 82.29C67.2862 81.45 67.4308 80.75 67.7202 80.19C68.0188 79.63 68.4202 79.21 68.9242 78.93C69.4375 78.65 70.0115 78.51 70.6462 78.51C71.3742 78.51 72.0182 78.6687 72.5782 78.986C73.1382 79.3033 73.5815 79.7467 73.9082 80.316C74.2348 80.876 74.3982 81.534 74.3982 82.29C74.3982 83.046 74.2348 83.7087 73.9082 84.278C73.5815 84.8473 73.1382 85.2907 72.5782 85.608C72.0182 85.9253 71.3742 86.084 70.6462 86.084ZM66.7122 88.716V78.58H68.0002V80.582L67.9162 82.304L68.0562 84.026V88.716H66.7122ZM70.5342 84.908C71.0102 84.908 71.4348 84.8007 71.8082 84.586C72.1908 84.3713 72.4895 84.068 72.7042 83.676C72.9282 83.2747 73.0402 82.8127 73.0402 82.29C73.0402 81.758 72.9282 81.3007 72.7042 80.918C72.4895 80.526 72.1908 80.2227 71.8082 80.008C71.4348 79.7933 71.0102 79.686 70.5342 79.686C70.0675 79.686 69.6428 79.7933 69.2602 80.008C68.8868 80.2227 68.5882 80.526 68.3642 80.918C68.1495 81.3007 68.0422 81.758 68.0422 82.29C68.0422 82.8127 68.1495 83.2747 68.3642 83.676C68.5882 84.068 68.8868 84.3713 69.2602 84.586C69.6428 84.8007 70.0675 84.908 70.5342 84.908ZM79.6548 86.084C78.8615 86.084 78.1615 85.9207 77.5548 85.594C76.9575 85.2673 76.4908 84.8193 76.1548 84.25C75.8282 83.6807 75.6648 83.0273 75.6648 82.29C75.6648 81.5527 75.8235 80.8993 76.1408 80.33C76.4675 79.7607 76.9108 79.3173 77.4708 79C78.0402 78.6733 78.6795 78.51 79.3888 78.51C80.1075 78.51 80.7422 78.6687 81.2928 78.986C81.8435 79.3033 82.2728 79.7513 82.5808 80.33C82.8982 80.8993 83.0568 81.5667 83.0568 82.332C83.0568 82.388 83.0522 82.4533 83.0428 82.528C83.0428 82.6027 83.0382 82.6727 83.0288 82.738H76.7148V81.772H82.3288L81.7828 82.108C81.7922 81.632 81.6942 81.2073 81.4888 80.834C81.2835 80.4607 80.9988 80.1713 80.6348 79.966C80.2802 79.7513 79.8648 79.644 79.3888 79.644C78.9222 79.644 78.5068 79.7513 78.1428 79.966C77.7788 80.1713 77.4942 80.4653 77.2888 80.848C77.0835 81.2213 76.9808 81.6507 76.9808 82.136V82.36C76.9808 82.8547 77.0928 83.298 77.3168 83.69C77.5502 84.0727 77.8722 84.3713 78.2828 84.586C78.6935 84.8007 79.1648 84.908 79.6968 84.908C80.1355 84.908 80.5322 84.8333 80.8868 84.684C81.2508 84.5347 81.5682 84.3107 81.8388 84.012L82.5808 84.88C82.2448 85.272 81.8248 85.5707 81.3208 85.776C80.8262 85.9813 80.2708 86.084 79.6548 86.084ZM89.8178 82.962C89.4258 83.1487 89.0198 83.298 88.5998 83.41C88.1892 83.5127 87.7645 83.564 87.3258 83.564C86.4298 83.564 85.7205 83.354 85.1978 82.934C84.6845 82.514 84.4278 81.8653 84.4278 80.988V78.58H85.7718V80.904C85.7718 81.436 85.9352 81.828 86.2618 82.08C86.5978 82.332 87.0458 82.458 87.6058 82.458C87.9605 82.458 88.3245 82.4113 88.6978 82.318C89.0805 82.2247 89.4538 82.094 89.8178 81.926V82.962ZM89.7198 86V78.58H91.0638V86H89.7198ZM93.6731 86V78.58H95.0171V81.73H99.2451V78.58H100.589V86H99.2451V82.892H95.0171V86H93.6731ZM106.38 86.084C105.634 86.084 104.971 85.9207 104.392 85.594C103.814 85.2673 103.356 84.8193 103.02 84.25C102.684 83.6713 102.516 83.018 102.516 82.29C102.516 81.5527 102.684 80.8993 103.02 80.33C103.356 79.7607 103.814 79.3173 104.392 79C104.971 78.6733 105.634 78.51 106.38 78.51C107.118 78.51 107.776 78.6733 108.354 79C108.942 79.3173 109.4 79.7607 109.726 80.33C110.062 80.89 110.23 81.5433 110.23 82.29C110.23 83.0273 110.062 83.6807 109.726 84.25C109.4 84.8193 108.942 85.2673 108.354 85.594C107.776 85.9207 107.118 86.084 106.38 86.084ZM106.38 84.908C106.856 84.908 107.281 84.8007 107.654 84.586C108.037 84.3713 108.336 84.068 108.55 83.676C108.765 83.2747 108.872 82.8127 108.872 82.29C108.872 81.758 108.765 81.3007 108.55 80.918C108.336 80.526 108.037 80.2227 107.654 80.008C107.281 79.7933 106.856 79.686 106.38 79.686C105.904 79.686 105.48 79.7933 105.106 80.008C104.733 80.2227 104.434 80.526 104.21 80.918C103.986 81.3007 103.874 81.758 103.874 82.29C103.874 82.8127 103.986 83.2747 104.21 83.676C104.434 84.068 104.733 84.3713 105.106 84.586C105.48 84.8007 105.904 84.908 106.38 84.908ZM112.171 86V78.58H113.515V83.984L118.065 78.58H119.283V86H117.939V80.596L113.403 86H112.171ZM115.643 77.614C114.962 77.614 114.425 77.4507 114.033 77.124C113.65 76.788 113.454 76.3073 113.445 75.682H114.355C114.364 76.0367 114.481 76.3167 114.705 76.522C114.938 76.7273 115.246 76.83 115.629 76.83C116.012 76.83 116.32 76.7273 116.553 76.522C116.786 76.3167 116.908 76.0367 116.917 75.682H117.855C117.846 76.3073 117.645 76.788 117.253 77.124C116.861 77.4507 116.324 77.614 115.643 77.614ZM57.2925 105V98.406L57.6285 98.756H54.5765V97.58H61.3525V98.756H58.3145L58.6365 98.406V105H57.2925ZM66.6608 105.084C66.0448 105.084 65.4801 104.944 64.9668 104.664C64.4628 104.375 64.0568 103.95 63.7488 103.39C63.4501 102.83 63.3008 102.13 63.3008 101.29C63.3008 100.45 63.4455 99.75 63.7348 99.19C64.0335 98.63 64.4348 98.21 64.9388 97.93C65.4521 97.65 66.0261 97.51 66.6608 97.51C67.3888 97.51 68.0328 97.6687 68.5928 97.986C69.1528 98.3033 69.5961 98.7467 69.9228 99.316C70.2495 99.876 70.4128 100.534 70.4128 101.29C70.4128 102.046 70.2495 102.709 69.9228 103.278C69.5961 103.847 69.1528 104.291 68.5928 104.608C68.0328 104.925 67.3888 105.084 66.6608 105.084ZM62.7268 107.716V97.58H64.0148V99.582L63.9308 101.304L64.0708 103.026V107.716H62.7268ZM66.5488 103.908C67.0248 103.908 67.4495 103.801 67.8228 103.586C68.2055 103.371 68.5041 103.068 68.7188 102.676C68.9428 102.275 69.0548 101.813 69.0548 101.29C69.0548 100.758 68.9428 100.301 68.7188 99.918C68.5041 99.526 68.2055 99.2227 67.8228 99.008C67.4495 98.7933 67.0248 98.686 66.5488 98.686C66.0821 98.686 65.6575 98.7933 65.2748 99.008C64.9015 99.2227 64.6028 99.526 64.3788 99.918C64.1641 100.301 64.0568 100.758 64.0568 101.29C64.0568 101.813 64.1641 102.275 64.3788 102.676C64.6028 103.068 64.9015 103.371 65.2748 103.586C65.6575 103.801 66.0821 103.908 66.5488 103.908ZM76.8471 105V103.432L76.7771 103.138V100.464C76.7771 99.8947 76.6091 99.456 76.2731 99.148C75.9465 98.8307 75.4518 98.672 74.7891 98.672C74.3505 98.672 73.9211 98.7467 73.5011 98.896C73.0811 99.036 72.7265 99.2273 72.4371 99.47L71.8771 98.462C72.2598 98.154 72.7171 97.9207 73.2491 97.762C73.7905 97.594 74.3551 97.51 74.9431 97.51C75.9605 97.51 76.7445 97.7573 77.2951 98.252C77.8458 98.7467 78.1211 99.5027 78.1211 100.52V105H76.8471ZM74.4111 105.084C73.8605 105.084 73.3751 104.991 72.9551 104.804C72.5445 104.617 72.2271 104.361 72.0031 104.034C71.7791 103.698 71.6671 103.32 71.6671 102.9C71.6671 102.499 71.7605 102.135 71.9471 101.808C72.1431 101.481 72.4558 101.22 72.8851 101.024C73.3238 100.828 73.9118 100.73 74.6491 100.73H77.0011V101.696H74.7051C74.0331 101.696 73.5805 101.808 73.3471 102.032C73.1138 102.256 72.9971 102.527 72.9971 102.844C72.9971 103.208 73.1418 103.502 73.4311 103.726C73.7205 103.941 74.1218 104.048 74.6351 104.048C75.1391 104.048 75.5778 103.936 75.9511 103.712C76.3338 103.488 76.6091 103.161 76.7771 102.732L77.0431 103.656C76.8658 104.095 76.5531 104.445 76.1051 104.706C75.6571 104.958 75.0925 105.084 74.4111 105.084ZM80.5413 105V97.58H81.8853V100.73H86.1133V97.58H87.4573V105H86.1133V101.892H81.8853V105H80.5413ZM93.3046 105.084C92.5486 105.084 91.8719 104.921 91.2746 104.594C90.6866 104.267 90.2246 103.819 89.8886 103.25C89.5526 102.681 89.3846 102.027 89.3846 101.29C89.3846 100.553 89.5526 99.8993 89.8886 99.33C90.2246 98.7607 90.6866 98.3173 91.2746 98C91.8719 97.6733 92.5486 97.51 93.3046 97.51C93.9766 97.51 94.5739 97.6453 95.0966 97.916C95.6286 98.1773 96.0392 98.5693 96.3286 99.092L95.3066 99.75C95.0639 99.386 94.7652 99.12 94.4106 98.952C94.0652 98.7747 93.6919 98.686 93.2906 98.686C92.8052 98.686 92.3712 98.7933 91.9886 99.008C91.6059 99.2227 91.3026 99.526 91.0786 99.918C90.8546 100.301 90.7426 100.758 90.7426 101.29C90.7426 101.822 90.8546 102.284 91.0786 102.676C91.3026 103.068 91.6059 103.371 91.9886 103.586C92.3712 103.801 92.8052 103.908 93.2906 103.908C93.6919 103.908 94.0652 103.824 94.4106 103.656C94.7652 103.479 95.0639 103.208 95.3066 102.844L96.3286 103.488C96.0392 104.001 95.6286 104.398 95.0966 104.678C94.5739 104.949 93.9766 105.084 93.3046 105.084ZM98.0686 105V97.58H104.943V105H103.599V98.42L103.921 98.756H99.0906L99.4126 98.42V105H98.0686ZM110.721 105.084C109.975 105.084 109.312 104.921 108.733 104.594C108.155 104.267 107.697 103.819 107.361 103.25C107.025 102.671 106.857 102.018 106.857 101.29C106.857 100.553 107.025 99.8993 107.361 99.33C107.697 98.7607 108.155 98.3173 108.733 98C109.312 97.6733 109.975 97.51 110.721 97.51C111.459 97.51 112.117 97.6733 112.695 98C113.283 98.3173 113.741 98.7607 114.067 99.33C114.403 99.89 114.571 100.543 114.571 101.29C114.571 102.027 114.403 102.681 114.067 103.25C113.741 103.819 113.283 104.267 112.695 104.594C112.117 104.921 111.459 105.084 110.721 105.084ZM110.721 103.908C111.197 103.908 111.622 103.801 111.995 103.586C112.378 103.371 112.677 103.068 112.891 102.676C113.106 102.275 113.213 101.813 113.213 101.29C113.213 100.758 113.106 100.301 112.891 99.918C112.677 99.526 112.378 99.2227 111.995 99.008C111.622 98.7933 111.197 98.686 110.721 98.686C110.245 98.686 109.821 98.7933 109.447 99.008C109.074 99.2227 108.775 99.526 108.551 99.918C108.327 100.301 108.215 100.758 108.215 101.29C108.215 101.813 108.327 102.275 108.551 102.676C108.775 103.068 109.074 103.371 109.447 103.586C109.821 103.801 110.245 103.908 110.721 103.908ZM120.446 105.084C119.83 105.084 119.265 104.944 118.752 104.664C118.248 104.375 117.842 103.95 117.534 103.39C117.235 102.83 117.086 102.13 117.086 101.29C117.086 100.45 117.231 99.75 117.52 99.19C117.819 98.63 118.22 98.21 118.724 97.93C119.237 97.65 119.811 97.51 120.446 97.51C121.174 97.51 121.818 97.6687 122.378 97.986C122.938 98.3033 123.381 98.7467 123.708 99.316C124.035 99.876 124.198 100.534 124.198 101.29C124.198 102.046 124.035 102.709 123.708 103.278C123.381 103.847 122.938 104.291 122.378 104.608C121.818 104.925 121.174 105.084 120.446 105.084ZM116.512 107.716V97.58H117.8V99.582L117.716 101.304L117.856 103.026V107.716H116.512ZM120.334 103.908C120.81 103.908 121.235 103.801 121.608 103.586C121.991 103.371 122.289 103.068 122.504 102.676C122.728 102.275 122.84 101.813 122.84 101.29C122.84 100.758 122.728 100.301 122.504 99.918C122.289 99.526 121.991 99.2227 121.608 99.008C121.235 98.7933 120.81 98.686 120.334 98.686C119.867 98.686 119.443 98.7933 119.06 99.008C118.687 99.2227 118.388 99.526 118.164 99.918C117.949 100.301 117.842 100.758 117.842 101.29C117.842 101.813 117.949 102.275 118.164 102.676C118.388 103.068 118.687 103.371 119.06 103.586C119.443 103.801 119.867 103.908 120.334 103.908ZM127.347 105V98.406L127.683 98.756H124.631V97.58H131.407V98.756H128.369L128.691 98.406V105H127.347Z" fill="white"/>
<circle cx="209.5" cy="311.5" r="74.5" fill="#B2C2D8"/>
<path d="M156.311 307V305.432L156.241 305.138V302.464C156.241 301.895 156.073 301.456 155.737 301.148C155.41 300.831 154.916 300.672 154.253 300.672C153.814 300.672 153.385 300.747 152.965 300.896C152.545 301.036 152.19 301.227 151.901 301.47L151.341 300.462C151.724 300.154 152.181 299.921 152.713 299.762C153.254 299.594 153.819 299.51 154.407 299.51C155.424 299.51 156.208 299.757 156.759 300.252C157.31 300.747 157.585 301.503 157.585 302.52V307H156.311ZM153.875 307.084C153.324 307.084 152.839 306.991 152.419 306.804C152.008 306.617 151.691 306.361 151.467 306.034C151.243 305.698 151.131 305.32 151.131 304.9C151.131 304.499 151.224 304.135 151.411 303.808C151.607 303.481 151.92 303.22 152.349 303.024C152.788 302.828 153.376 302.73 154.113 302.73H156.465V303.696H154.169C153.497 303.696 153.044 303.808 152.811 304.032C152.578 304.256 152.461 304.527 152.461 304.844C152.461 305.208 152.606 305.502 152.895 305.726C153.184 305.941 153.586 306.048 154.099 306.048C154.603 306.048 155.042 305.936 155.415 305.712C155.798 305.488 156.073 305.161 156.241 304.732L156.507 305.656C156.33 306.095 156.017 306.445 155.569 306.706C155.121 306.958 154.556 307.084 153.875 307.084ZM160.005 307V299.58H163.449C164.317 299.58 164.998 299.748 165.493 300.084C165.997 300.411 166.249 300.877 166.249 301.484C166.249 302.091 166.011 302.562 165.535 302.898C165.068 303.225 164.448 303.388 163.673 303.388L163.883 303.024C164.77 303.024 165.428 303.187 165.857 303.514C166.286 303.841 166.501 304.321 166.501 304.956C166.501 305.6 166.258 306.104 165.773 306.468C165.297 306.823 164.564 307 163.575 307H160.005ZM161.321 305.964H163.477C164.037 305.964 164.457 305.88 164.737 305.712C165.017 305.535 165.157 305.255 165.157 304.872C165.157 304.48 165.026 304.195 164.765 304.018C164.513 303.831 164.112 303.738 163.561 303.738H161.321V305.964ZM161.321 302.772H163.337C163.85 302.772 164.238 302.679 164.499 302.492C164.77 302.296 164.905 302.025 164.905 301.68C164.905 301.325 164.77 301.059 164.499 300.882C164.238 300.705 163.85 300.616 163.337 300.616H161.321V302.772ZM170.075 307V300.406L170.411 300.756H167.359V299.58H174.135V300.756H171.097L171.419 300.406V307H170.075ZM178.359 307.084C177.612 307.084 176.95 306.921 176.371 306.594C175.792 306.267 175.335 305.819 174.999 305.25C174.663 304.671 174.495 304.018 174.495 303.29C174.495 302.553 174.663 301.899 174.999 301.33C175.335 300.761 175.792 300.317 176.371 300C176.95 299.673 177.612 299.51 178.359 299.51C179.096 299.51 179.754 299.673 180.333 300C180.921 300.317 181.378 300.761 181.705 301.33C182.041 301.89 182.209 302.543 182.209 303.29C182.209 304.027 182.041 304.681 181.705 305.25C181.378 305.819 180.921 306.267 180.333 306.594C179.754 306.921 179.096 307.084 178.359 307.084ZM178.359 305.908C178.835 305.908 179.26 305.801 179.633 305.586C180.016 305.371 180.314 305.068 180.529 304.676C180.744 304.275 180.851 303.813 180.851 303.29C180.851 302.758 180.744 302.301 180.529 301.918C180.314 301.526 180.016 301.223 179.633 301.008C179.26 300.793 178.835 300.686 178.359 300.686C177.883 300.686 177.458 300.793 177.085 301.008C176.712 301.223 176.413 301.526 176.189 301.918C175.965 302.301 175.853 302.758 175.853 303.29C175.853 303.813 175.965 304.275 176.189 304.676C176.413 305.068 176.712 305.371 177.085 305.586C177.458 305.801 177.883 305.908 178.359 305.908ZM184.15 307V299.58H185.536L188.728 305.068H188.168L191.444 299.58H192.704V307H191.486V301.092L191.71 301.218L188.714 306.16H188.126L185.116 301.12L185.382 301.064V307H184.15ZM198.498 307.084C197.751 307.084 197.088 306.921 196.51 306.594C195.931 306.267 195.474 305.819 195.138 305.25C194.802 304.671 194.634 304.018 194.634 303.29C194.634 302.553 194.802 301.899 195.138 301.33C195.474 300.761 195.931 300.317 196.51 300C197.088 299.673 197.751 299.51 198.498 299.51C199.235 299.51 199.893 299.673 200.472 300C201.06 300.317 201.517 300.761 201.844 301.33C202.18 301.89 202.348 302.543 202.348 303.29C202.348 304.027 202.18 304.681 201.844 305.25C201.517 305.819 201.06 306.267 200.472 306.594C199.893 306.921 199.235 307.084 198.498 307.084ZM198.498 305.908C198.974 305.908 199.398 305.801 199.772 305.586C200.154 305.371 200.453 305.068 200.668 304.676C200.882 304.275 200.99 303.813 200.99 303.29C200.99 302.758 200.882 302.301 200.668 301.918C200.453 301.526 200.154 301.223 199.772 301.008C199.398 300.793 198.974 300.686 198.498 300.686C198.022 300.686 197.597 300.793 197.224 301.008C196.85 301.223 196.552 301.526 196.328 301.918C196.104 302.301 195.992 302.758 195.992 303.29C195.992 303.813 196.104 304.275 196.328 304.676C196.552 305.068 196.85 305.371 197.224 305.586C197.597 305.801 198.022 305.908 198.498 305.908ZM207.718 307.112C207.102 307.112 206.556 307.014 206.08 306.818C205.614 306.622 205.212 306.333 204.876 305.95C204.54 305.558 204.284 305.068 204.106 304.48C203.938 303.883 203.854 303.183 203.854 302.38C203.854 301.745 203.91 301.176 204.022 300.672C204.134 300.168 204.293 299.72 204.498 299.328C204.713 298.936 204.974 298.595 205.282 298.306C205.6 298.017 205.954 297.779 206.346 297.592C206.748 297.396 207.186 297.247 207.662 297.144L211.05 296.388L211.246 297.634L208.124 298.306C207.938 298.343 207.714 298.399 207.452 298.474C207.191 298.549 206.925 298.665 206.654 298.824C206.384 298.973 206.132 299.183 205.898 299.454C205.665 299.725 205.478 300.079 205.338 300.518C205.198 300.947 205.128 301.479 205.128 302.114C205.128 302.291 205.133 302.427 205.142 302.52C205.152 302.613 205.161 302.707 205.17 302.8C205.189 302.893 205.203 303.033 205.212 303.22L204.652 302.646C204.802 302.133 205.04 301.685 205.366 301.302C205.693 300.919 206.085 300.625 206.542 300.42C207.009 300.205 207.518 300.098 208.068 300.098C208.759 300.098 209.37 300.247 209.902 300.546C210.444 300.845 210.868 301.255 211.176 301.778C211.484 302.301 211.638 302.898 211.638 303.57C211.638 304.251 211.475 304.863 211.148 305.404C210.831 305.936 210.378 306.356 209.79 306.664C209.202 306.963 208.512 307.112 207.718 307.112ZM207.844 305.992C208.32 305.992 208.74 305.889 209.104 305.684C209.468 305.469 209.753 305.185 209.958 304.83C210.164 304.466 210.266 304.06 210.266 303.612C210.266 303.164 210.164 302.767 209.958 302.422C209.753 302.077 209.468 301.806 209.104 301.61C208.74 301.405 208.311 301.302 207.816 301.302C207.35 301.302 206.93 301.4 206.556 301.596C206.183 301.783 205.894 302.049 205.688 302.394C205.483 302.73 205.38 303.122 205.38 303.57C205.38 304.018 205.483 304.429 205.688 304.802C205.903 305.166 206.192 305.455 206.556 305.67C206.93 305.885 207.359 305.992 207.844 305.992ZM213.558 307V299.58H214.902V304.984L219.452 299.58H220.67V307H219.326V301.596L214.79 307H213.558ZM222.047 306.986L222.131 305.852C222.196 305.861 222.257 305.871 222.313 305.88C222.369 305.889 222.42 305.894 222.467 305.894C222.765 305.894 222.999 305.791 223.167 305.586C223.344 305.381 223.475 305.11 223.559 304.774C223.643 304.429 223.703 304.041 223.741 303.612C223.778 303.183 223.806 302.753 223.825 302.324L223.951 299.58H229.649V307H228.305V300.364L228.627 300.756H224.819L225.127 300.35L225.029 302.408C225.001 303.061 224.949 303.673 224.875 304.242C224.8 304.811 224.683 305.311 224.525 305.74C224.375 306.169 224.165 306.505 223.895 306.748C223.633 306.991 223.293 307.112 222.873 307.112C222.751 307.112 222.621 307.098 222.481 307.07C222.35 307.051 222.205 307.023 222.047 306.986ZM235.677 302.1C236.62 302.109 237.339 302.324 237.833 302.744C238.328 303.164 238.575 303.757 238.575 304.522C238.575 305.325 238.305 305.945 237.763 306.384C237.222 306.813 236.457 307.023 235.467 307.014L232.247 307V299.58H233.591V302.086L235.677 302.1ZM235.355 305.992C235.962 306.001 236.419 305.88 236.727 305.628C237.045 305.376 237.203 305.003 237.203 304.508C237.203 304.023 237.049 303.668 236.741 303.444C236.433 303.22 235.971 303.103 235.355 303.094L233.591 303.066V305.978L235.355 305.992ZM240.3 307V299.58H241.644V302.73H245.872V299.58H247.216V307H245.872V303.892H241.644V307H240.3ZM257.165 307V299.58H258.509V307H257.165ZM253.175 302.1C254.118 302.109 254.832 302.324 255.317 302.744C255.812 303.164 256.059 303.757 256.059 304.522C256.059 305.325 255.789 305.945 255.247 306.384C254.715 306.813 253.95 307.023 252.951 307.014L249.829 307V299.58H251.173V302.086L253.175 302.1ZM252.853 305.992C253.451 306.001 253.908 305.88 254.225 305.628C254.543 305.376 254.701 305.003 254.701 304.508C254.701 304.023 254.543 303.668 254.225 303.444C253.917 303.22 253.46 303.103 252.853 303.094L251.173 303.066V305.978L252.853 305.992ZM261.122 307V299.58H262.466V304.984L267.016 299.58H268.234V307H266.89V301.596L262.354 307H261.122ZM264.594 298.614C263.913 298.614 263.376 298.451 262.984 298.124C262.602 297.788 262.406 297.307 262.396 296.682H263.306C263.316 297.037 263.432 297.317 263.656 297.522C263.89 297.727 264.198 297.83 264.58 297.83C264.963 297.83 265.271 297.727 265.504 297.522C265.738 297.317 265.859 297.037 265.868 296.682H266.806C266.797 297.307 266.596 297.788 266.204 298.124C265.812 298.451 265.276 298.614 264.594 298.614ZM174.293 326V319.406L174.629 319.756H171.577V318.58H178.353V319.756H175.315L175.637 319.406V326H174.293ZM183.661 326.084C183.045 326.084 182.48 325.944 181.967 325.664C181.463 325.375 181.057 324.95 180.749 324.39C180.45 323.83 180.301 323.13 180.301 322.29C180.301 321.45 180.445 320.75 180.735 320.19C181.033 319.63 181.435 319.21 181.939 318.93C182.452 318.65 183.026 318.51 183.661 318.51C184.389 318.51 185.033 318.669 185.593 318.986C186.153 319.303 186.596 319.747 186.923 320.316C187.249 320.876 187.413 321.534 187.413 322.29C187.413 323.046 187.249 323.709 186.923 324.278C186.596 324.847 186.153 325.291 185.593 325.608C185.033 325.925 184.389 326.084 183.661 326.084ZM179.727 328.716V318.58H181.015V320.582L180.931 322.304L181.071 324.026V328.716H179.727ZM183.549 324.908C184.025 324.908 184.449 324.801 184.823 324.586C185.205 324.371 185.504 324.068 185.719 323.676C185.943 323.275 186.055 322.813 186.055 322.29C186.055 321.758 185.943 321.301 185.719 320.918C185.504 320.526 185.205 320.223 184.823 320.008C184.449 319.793 184.025 319.686 183.549 319.686C183.082 319.686 182.657 319.793 182.275 320.008C181.901 320.223 181.603 320.526 181.379 320.918C181.164 321.301 181.057 321.758 181.057 322.29C181.057 322.813 181.164 323.275 181.379 323.676C181.603 324.068 181.901 324.371 182.275 324.586C182.657 324.801 183.082 324.908 183.549 324.908ZM193.847 326V324.432L193.777 324.138V321.464C193.777 320.895 193.609 320.456 193.273 320.148C192.946 319.831 192.452 319.672 191.789 319.672C191.35 319.672 190.921 319.747 190.501 319.896C190.081 320.036 189.726 320.227 189.437 320.47L188.877 319.462C189.26 319.154 189.717 318.921 190.249 318.762C190.79 318.594 191.355 318.51 191.943 318.51C192.96 318.51 193.744 318.757 194.295 319.252C194.846 319.747 195.121 320.503 195.121 321.52V326H193.847ZM191.411 326.084C190.86 326.084 190.375 325.991 189.955 325.804C189.544 325.617 189.227 325.361 189.003 325.034C188.779 324.698 188.667 324.32 188.667 323.9C188.667 323.499 188.76 323.135 188.947 322.808C189.143 322.481 189.456 322.22 189.885 322.024C190.324 321.828 190.912 321.73 191.649 321.73H194.001V322.696H191.705C191.033 322.696 190.58 322.808 190.347 323.032C190.114 323.256 189.997 323.527 189.997 323.844C189.997 324.208 190.142 324.502 190.431 324.726C190.72 324.941 191.122 325.048 191.635 325.048C192.139 325.048 192.578 324.936 192.951 324.712C193.334 324.488 193.609 324.161 193.777 323.732L194.043 324.656C193.866 325.095 193.553 325.445 193.105 325.706C192.657 325.958 192.092 326.084 191.411 326.084ZM197.541 326V318.58H198.885V321.73H203.113V318.58H204.457V326H203.113V322.892H198.885V326H197.541ZM210.305 326.084C209.549 326.084 208.872 325.921 208.275 325.594C207.687 325.267 207.225 324.819 206.889 324.25C206.553 323.681 206.385 323.027 206.385 322.29C206.385 321.553 206.553 320.899 206.889 320.33C207.225 319.761 207.687 319.317 208.275 319C208.872 318.673 209.549 318.51 210.305 318.51C210.977 318.51 211.574 318.645 212.097 318.916C212.629 319.177 213.039 319.569 213.329 320.092L212.307 320.75C212.064 320.386 211.765 320.12 211.411 319.952C211.065 319.775 210.692 319.686 210.291 319.686C209.805 319.686 209.371 319.793 208.989 320.008C208.606 320.223 208.303 320.526 208.079 320.918C207.855 321.301 207.743 321.758 207.743 322.29C207.743 322.822 207.855 323.284 208.079 323.676C208.303 324.068 208.606 324.371 208.989 324.586C209.371 324.801 209.805 324.908 210.291 324.908C210.692 324.908 211.065 324.824 211.411 324.656C211.765 324.479 212.064 324.208 212.307 323.844L213.329 324.488C213.039 325.001 212.629 325.398 212.097 325.678C211.574 325.949 210.977 326.084 210.305 326.084ZM215.069 326V318.58H221.943V326H220.599V319.42L220.921 319.756H216.091L216.413 319.42V326H215.069ZM227.721 326.084C226.975 326.084 226.312 325.921 225.733 325.594C225.155 325.267 224.697 324.819 224.361 324.25C224.025 323.671 223.857 323.018 223.857 322.29C223.857 321.553 224.025 320.899 224.361 320.33C224.697 319.761 225.155 319.317 225.733 319C226.312 318.673 226.975 318.51 227.721 318.51C228.459 318.51 229.117 318.673 229.695 319C230.283 319.317 230.741 319.761 231.067 320.33C231.403 320.89 231.571 321.543 231.571 322.29C231.571 323.027 231.403 323.681 231.067 324.25C230.741 324.819 230.283 325.267 229.695 325.594C229.117 325.921 228.459 326.084 227.721 326.084ZM227.721 324.908C228.197 324.908 228.622 324.801 228.995 324.586C229.378 324.371 229.677 324.068 229.891 323.676C230.106 323.275 230.213 322.813 230.213 322.29C230.213 321.758 230.106 321.301 229.891 320.918C229.677 320.526 229.378 320.223 228.995 320.008C228.622 319.793 228.197 319.686 227.721 319.686C227.245 319.686 226.821 319.793 226.447 320.008C226.074 320.223 225.775 320.526 225.551 320.918C225.327 321.301 225.215 321.758 225.215 322.29C225.215 322.813 225.327 323.275 225.551 323.676C225.775 324.068 226.074 324.371 226.447 324.586C226.821 324.801 227.245 324.908 227.721 324.908ZM237.446 326.084C236.83 326.084 236.265 325.944 235.752 325.664C235.248 325.375 234.842 324.95 234.534 324.39C234.235 323.83 234.086 323.13 234.086 322.29C234.086 321.45 234.231 320.75 234.52 320.19C234.819 319.63 235.22 319.21 235.724 318.93C236.237 318.65 236.811 318.51 237.446 318.51C238.174 318.51 238.818 318.669 239.378 318.986C239.938 319.303 240.381 319.747 240.708 320.316C241.035 320.876 241.198 321.534 241.198 322.29C241.198 323.046 241.035 323.709 240.708 324.278C240.381 324.847 239.938 325.291 239.378 325.608C238.818 325.925 238.174 326.084 237.446 326.084ZM233.512 328.716V318.58H234.8V320.582L234.716 322.304L234.856 324.026V328.716H233.512ZM237.334 324.908C237.81 324.908 238.235 324.801 238.608 324.586C238.991 324.371 239.289 324.068 239.504 323.676C239.728 323.275 239.84 322.813 239.84 322.29C239.84 321.758 239.728 321.301 239.504 320.918C239.289 320.526 238.991 320.223 238.608 320.008C238.235 319.793 237.81 319.686 237.334 319.686C236.867 319.686 236.443 319.793 236.06 320.008C235.687 320.223 235.388 320.526 235.164 320.918C234.949 321.301 234.842 321.758 234.842 322.29C234.842 322.813 234.949 323.275 235.164 323.676C235.388 324.068 235.687 324.371 236.06 324.586C236.443 324.801 236.867 324.908 237.334 324.908ZM244.347 326V319.406L244.683 319.756H241.631V318.58H248.407V319.756H245.369L245.691 319.406V326H244.347Z" fill="white"/>
</svg>
