<svg width="1716" height="620" viewBox="0 0 1716 620" fill="none" xmlns="http://www.w3.org/2000/svg">
<path d="M879.351 365.999L879.35 521.77" stroke="#456AA0" stroke-width="10"/>
<path d="M1064.68 202.167C1064.5 255.432 1043.15 306.446 1005.32 343.986C967.481 381.525 916.267 402.516 862.938 402.34C809.609 402.163 758.534 380.835 720.95 343.046C683.365 305.257 662.349 254.103 662.526 200.838L863.603 201.502L1064.68 202.167Z" fill="#456AA0"/>
<path d="M790.62 269.789L790.6 271.641L782.374 271.553L782.211 286.763L779.962 286.739L780.144 269.677L790.62 269.789ZM781.792 276.644L786.444 276.694C787.694 276.708 788.747 276.93 789.602 277.361C790.456 277.784 791.102 278.373 791.54 279.128C791.977 279.882 792.19 280.764 792.179 281.771C792.171 282.521 792.039 283.207 791.782 283.83C791.526 284.444 791.149 284.979 790.652 285.435C790.155 285.883 789.546 286.228 788.824 286.47C788.103 286.705 787.274 286.817 786.336 286.807L779.962 286.739L780.144 269.677L782.406 269.701L782.243 284.923L786.356 284.967C787.192 284.976 787.869 284.831 788.388 284.532C788.915 284.225 789.302 283.823 789.549 283.325C789.797 282.828 789.924 282.294 789.93 281.724C789.936 281.154 789.82 280.629 789.583 280.15C789.346 279.671 788.968 279.288 788.447 279.001C787.935 278.706 787.26 278.555 786.425 278.546L781.773 278.496L781.792 276.644ZM802.343 284.81L802.413 278.283C802.418 277.783 802.321 277.348 802.122 276.979C801.931 276.602 801.637 276.31 801.241 276.102C800.844 275.895 800.353 275.788 799.767 275.782C799.221 275.776 798.739 275.864 798.323 276.048C797.915 276.231 797.592 276.473 797.354 276.776C797.125 277.078 797.008 277.405 797.004 277.756L794.836 277.733C794.841 277.28 794.963 276.832 795.202 276.389C795.441 275.946 795.781 275.548 796.223 275.193C796.672 274.831 797.206 274.547 797.826 274.343C798.453 274.131 799.149 274.029 799.915 274.037C800.837 274.047 801.648 274.212 802.347 274.532C803.055 274.852 803.605 275.33 803.996 275.968C804.396 276.597 804.59 277.384 804.58 278.329L804.517 284.235C804.513 284.657 804.543 285.107 804.608 285.584C804.681 286.061 804.79 286.473 804.935 286.818L804.933 287.005L802.671 286.981C802.564 286.73 802.482 286.397 802.424 285.983C802.366 285.56 802.339 285.169 802.343 284.81ZM802.777 279.295L802.784 280.818L800.593 280.795C799.976 280.788 799.424 280.833 798.939 280.929C798.454 281.018 798.046 281.158 797.716 281.35C797.385 281.542 797.133 281.785 796.958 282.08C796.783 282.367 796.693 282.706 796.689 283.097C796.685 283.495 796.771 283.86 796.947 284.19C797.123 284.52 797.39 284.784 797.747 284.983C798.112 285.175 798.56 285.273 799.092 285.279C799.756 285.286 800.343 285.152 800.854 284.876C801.365 284.6 801.771 284.261 802.072 283.858C802.381 283.455 802.549 283.062 802.577 282.679L803.491 283.732C803.433 284.06 803.281 284.421 803.034 284.817C802.788 285.213 802.459 285.592 802.049 285.955C801.647 286.31 801.167 286.606 800.61 286.842C800.061 287.071 799.442 287.181 798.755 287.174C797.895 287.165 797.143 286.989 796.499 286.646C795.862 286.303 795.366 285.849 795.013 285.282C794.668 284.708 794.499 284.07 794.506 283.367C794.514 282.687 794.653 282.091 794.924 281.578C795.195 281.057 795.583 280.628 796.086 280.29C796.59 279.943 797.194 279.684 797.899 279.512C798.604 279.34 799.39 279.258 800.257 279.268L802.777 279.295ZM812.696 281.029L810.364 281.005L810.379 279.669L812.535 279.692C813.136 279.698 813.614 279.629 813.967 279.484C814.32 279.332 814.572 279.12 814.724 278.848C814.875 278.576 814.953 278.257 814.957 277.889C814.96 277.561 814.878 277.252 814.709 276.961C814.548 276.662 814.285 276.421 813.92 276.238C813.554 276.046 813.063 275.947 812.446 275.941C811.946 275.935 811.492 276.02 811.084 276.196C810.676 276.363 810.349 276.598 810.104 276.9C809.866 277.194 809.745 277.529 809.741 277.904L807.574 277.881C807.582 277.107 807.808 276.446 808.251 275.896C808.702 275.338 809.297 274.911 810.034 274.614C810.78 274.317 811.59 274.173 812.465 274.183C813.199 274.191 813.855 274.28 814.431 274.45C815.015 274.612 815.509 274.852 815.912 275.169C816.315 275.478 816.619 275.864 816.825 276.327C817.039 276.783 817.143 277.311 817.136 277.913C817.132 278.342 817.026 278.747 816.819 279.128C816.611 279.509 816.315 279.845 815.929 280.138C815.543 280.423 815.076 280.645 814.527 280.803C813.986 280.961 813.376 281.037 812.696 281.029ZM810.373 280.184L812.705 280.209C813.463 280.217 814.13 280.299 814.707 280.453C815.283 280.6 815.765 280.816 816.153 281.102C816.54 281.387 816.83 281.738 817.021 282.154C817.219 282.562 817.316 283.032 817.31 283.563C817.304 284.157 817.177 284.691 816.93 285.165C816.69 285.631 816.35 286.026 815.909 286.349C815.468 286.673 814.942 286.917 814.331 287.082C813.728 287.248 813.059 287.327 812.324 287.319C811.504 287.31 810.709 287.161 809.938 286.871C809.168 286.582 808.536 286.142 808.042 285.55C807.549 284.951 807.307 284.195 807.317 283.281L809.484 283.304C809.48 283.687 809.597 284.051 809.836 284.398C810.074 284.744 810.407 285.025 810.835 285.24C811.27 285.456 811.773 285.567 812.343 285.573C812.952 285.579 813.461 285.491 813.869 285.308C814.278 285.125 814.585 284.878 814.791 284.568C815.006 284.257 815.115 283.919 815.119 283.552C815.124 283.075 815.034 282.691 814.85 282.4C814.665 282.109 814.379 281.895 813.989 281.758C813.608 281.613 813.117 281.538 812.515 281.531L810.359 281.508L810.373 280.184ZM819.576 280.962L819.579 280.693C819.589 279.779 819.731 278.933 820.005 278.154C820.279 277.368 820.669 276.689 821.175 276.116C821.681 275.535 822.292 275.089 823.006 274.776C823.721 274.455 824.519 274.3 825.402 274.309C826.292 274.319 827.091 274.491 827.799 274.827C828.514 275.155 829.119 275.615 829.612 276.206C830.114 276.789 830.493 277.477 830.75 278.269C831.008 279.053 831.131 279.902 831.122 280.816L831.119 281.086C831.109 282 830.967 282.846 830.693 283.624C830.419 284.402 830.025 285.082 829.511 285.662C829.005 286.235 828.395 286.682 827.68 287.002C826.974 287.315 826.175 287.467 825.285 287.457C824.394 287.448 823.595 287.279 822.887 286.951C822.18 286.615 821.576 286.156 821.074 285.572C820.58 284.981 820.205 284.293 819.948 283.509C819.69 282.725 819.567 281.876 819.576 280.962ZM821.747 280.716L821.744 280.985C821.737 281.618 821.805 282.217 821.948 282.781C822.09 283.337 822.308 283.831 822.6 284.264C822.9 284.697 823.275 285.041 823.726 285.296C824.176 285.543 824.702 285.67 825.304 285.676C825.897 285.682 826.418 285.567 826.866 285.329C827.322 285.084 827.7 284.748 828.002 284.322C828.303 283.895 828.531 283.406 828.686 282.853C828.848 282.292 828.932 281.695 828.939 281.062L828.942 280.793C828.949 280.168 828.877 279.577 828.727 279.021C828.584 278.457 828.363 277.958 828.063 277.525C827.771 277.085 827.399 276.737 826.949 276.482C826.506 276.227 825.984 276.097 825.383 276.09C824.789 276.084 824.264 276.203 823.809 276.449C823.361 276.694 822.982 277.034 822.673 277.468C822.371 277.894 822.143 278.388 821.989 278.949C821.834 279.502 821.754 280.091 821.747 280.716ZM839.783 281.799L835.624 281.755L835.619 280.02L839.017 280.057C839.689 280.064 840.248 280.003 840.695 279.875C841.149 279.747 841.491 279.552 841.721 279.289C841.95 279.025 842.067 278.698 842.071 278.308C842.074 278.003 842.011 277.737 841.88 277.509C841.758 277.273 841.568 277.08 841.312 276.929C841.056 276.77 840.737 276.653 840.355 276.578C839.981 276.496 839.54 276.453 839.032 276.447L836.255 276.417L836.138 287.339L833.97 287.316L834.106 274.637L839.051 274.689C839.856 274.698 840.577 274.776 841.217 274.923C841.863 275.071 842.412 275.292 842.862 275.586C843.32 275.872 843.667 276.235 843.905 276.675C844.142 277.115 844.258 277.632 844.252 278.226C844.248 278.608 844.166 278.971 844.006 279.313C843.846 279.655 843.612 279.957 843.304 280.22C842.997 280.482 842.62 280.697 842.173 280.864C841.725 281.023 841.213 281.123 840.634 281.164L839.783 281.799ZM839.724 287.377L834.779 287.324L835.876 285.578L839.743 285.619C840.344 285.626 840.845 285.557 841.245 285.413C841.645 285.261 841.944 285.045 842.142 284.766C842.349 284.479 842.454 284.136 842.458 283.738C842.462 283.34 842.365 282.999 842.164 282.715C841.972 282.424 841.678 282.202 841.281 282.05C840.884 281.889 840.385 281.806 839.783 281.799L836.491 281.764L836.533 280.03L840.646 280.074L841.424 280.739C842.118 280.801 842.706 280.979 843.188 281.273C843.669 281.567 844.032 281.938 844.277 282.386C844.523 282.826 844.643 283.304 844.637 283.82C844.631 284.414 844.512 284.936 844.28 285.387C844.057 285.837 843.733 286.213 843.307 286.513C842.882 286.805 842.368 287.026 841.765 287.176C841.162 287.318 840.482 287.385 839.724 287.377ZM849.375 279.159L853.183 279.2C854.207 279.211 855.068 279.4 855.767 279.767C856.466 280.126 856.992 280.62 857.345 281.248C857.706 281.87 857.882 282.575 857.873 283.364C857.867 283.949 857.759 284.499 857.551 285.013C857.342 285.518 857.033 285.96 856.623 286.339C856.22 286.717 855.721 287.013 855.125 287.225C854.537 287.43 853.86 287.528 853.094 287.52L847.704 287.462L847.839 274.783L850.007 274.806L849.891 285.704L853.113 285.739C853.738 285.745 854.239 285.637 854.617 285.415C854.994 285.192 855.267 284.902 855.435 284.545C855.603 284.187 855.689 283.813 855.693 283.422C855.697 283.04 855.619 282.664 855.459 282.295C855.299 281.926 855.032 281.618 854.66 281.372C854.288 281.118 853.789 280.988 853.164 280.981L849.356 280.94L849.375 279.159ZM862.475 274.94L862.34 287.619L860.172 287.595L860.308 274.916L862.475 274.94ZM871.395 287.95C870.512 287.94 869.713 287.783 868.998 287.479C868.29 287.166 867.681 286.734 867.172 286.182C866.67 285.63 866.286 284.977 866.021 284.224C865.755 283.471 865.627 282.649 865.637 281.759L865.642 281.267C865.653 280.236 865.815 279.319 866.129 278.518C866.442 277.709 866.863 277.026 867.393 276.469C867.922 275.912 868.521 275.492 869.188 275.21C869.855 274.929 870.544 274.791 871.255 274.799C872.161 274.809 872.94 274.973 873.593 275.293C874.254 275.612 874.792 276.056 875.208 276.623C875.624 277.182 875.929 277.841 876.124 278.601C876.32 279.353 876.412 280.175 876.403 281.065L876.392 282.038L866.924 281.937L866.943 280.167L874.243 280.245L874.245 280.081C874.22 279.518 874.109 278.97 873.911 278.437C873.722 277.904 873.414 277.463 872.988 277.114C872.562 276.766 871.978 276.588 871.236 276.58C870.743 276.575 870.289 276.675 869.873 276.882C869.457 277.081 869.098 277.382 868.797 277.785C868.496 278.188 868.26 278.681 868.09 279.265C867.919 279.85 867.83 280.524 867.822 281.29L867.816 281.782C867.81 282.384 867.886 282.951 868.044 283.484C868.211 284.009 868.452 284.473 868.768 284.875C869.092 285.276 869.483 285.593 869.941 285.825C870.408 286.056 870.938 286.175 871.531 286.181C872.297 286.19 872.947 286.04 873.482 285.734C874.016 285.427 874.485 285.014 874.889 284.495L876.191 285.551C875.913 285.963 875.561 286.353 875.135 286.724C874.709 287.094 874.186 287.393 873.567 287.621C872.955 287.849 872.231 287.959 871.395 287.95ZM899.458 281.897L899.455 282.143C899.446 283.034 899.339 283.853 899.136 284.601C898.933 285.341 898.633 285.983 898.236 286.525C897.848 287.068 897.366 287.489 896.793 287.787C896.219 288.078 895.558 288.219 894.808 288.211C894.191 288.205 893.649 288.117 893.182 287.948C892.715 287.771 892.319 287.521 891.994 287.197C891.677 286.873 891.424 286.488 891.233 286.04C891.051 285.585 890.927 285.076 890.863 284.513L890.923 278.888C891 278.287 891.134 277.75 891.327 277.275C891.527 276.801 891.79 276.397 892.113 276.065C892.445 275.732 892.842 275.479 893.305 275.304C893.768 275.129 894.308 275.045 894.925 275.052C895.535 275.058 896.08 275.173 896.562 275.397C897.052 275.614 897.479 275.923 897.841 276.325C898.212 276.728 898.516 277.211 898.752 277.776C898.996 278.334 899.177 278.961 899.294 279.657C899.412 280.354 899.466 281.101 899.458 281.897ZM897.287 282.12L897.29 281.874C897.296 281.327 897.262 280.807 897.189 280.314C897.124 279.814 897.016 279.356 896.864 278.94C896.72 278.516 896.529 278.147 896.29 277.832C896.051 277.517 895.761 277.272 895.419 277.096C895.085 276.921 894.699 276.831 894.262 276.826C893.793 276.821 893.402 276.875 893.088 276.989C892.782 277.103 892.542 277.257 892.368 277.45C892.194 277.636 892.067 277.834 891.987 278.044L891.908 285.391C892 285.564 892.135 285.73 892.313 285.888C892.491 286.038 892.732 286.166 893.036 286.27C893.339 286.367 893.721 286.418 894.182 286.423C894.729 286.429 895.195 286.325 895.58 286.11C895.973 285.888 896.293 285.579 896.54 285.183C896.794 284.787 896.978 284.328 897.093 283.806C897.216 283.284 897.281 282.722 897.287 282.12ZM884.397 281.983L884.4 281.737C884.408 280.94 884.479 280.194 884.611 279.5C884.744 278.807 884.938 278.184 885.194 277.632C885.45 277.072 885.764 276.595 886.135 276.2C886.514 275.806 886.947 275.506 887.434 275.3C887.928 275.086 888.48 274.983 889.09 274.989C889.691 274.996 890.214 275.091 890.657 275.276C891.108 275.46 891.488 275.722 891.797 276.061C892.106 276.401 892.352 276.81 892.534 277.288C892.716 277.767 892.843 278.307 892.915 278.909L892.857 284.311C892.781 284.904 892.646 285.438 892.453 285.913C892.261 286.387 892.006 286.795 891.69 287.135C891.374 287.468 890.985 287.721 890.522 287.896C890.067 288.071 889.535 288.155 888.925 288.149C888.175 288.141 887.517 287.985 886.95 287.682C886.383 287.371 885.907 286.94 885.522 286.389C885.145 285.839 884.859 285.191 884.664 284.447C884.477 283.695 884.388 282.873 884.397 281.983ZM886.58 281.76L886.577 282.006C886.57 282.607 886.615 283.17 886.711 283.695C886.815 284.22 886.978 284.682 887.2 285.083C887.43 285.484 887.732 285.8 888.104 286.03C888.477 286.253 888.937 286.367 889.483 286.373C889.952 286.378 890.339 286.324 890.645 286.21C890.951 286.096 891.195 285.946 891.377 285.761C891.558 285.575 891.697 285.381 891.793 285.179L891.87 278.043C891.794 277.831 891.667 277.63 891.489 277.441C891.32 277.244 891.083 277.085 890.78 276.965C890.476 276.844 890.086 276.781 889.61 276.776C889.063 276.77 888.597 276.898 888.211 277.16C887.825 277.421 887.513 277.781 887.273 278.24C887.042 278.698 886.868 279.232 886.752 279.84C886.644 280.44 886.587 281.08 886.58 281.76ZM890.633 292.796L890.878 269.922L893.058 269.946L892.813 292.819L890.633 292.796ZM905.664 286.769L909.313 275.44L911.633 275.465L906.39 290.046C906.27 290.357 906.11 290.692 905.911 291.049C905.719 291.414 905.474 291.759 905.173 292.084C904.873 292.409 904.511 292.671 904.087 292.869C903.67 293.076 903.173 293.176 902.595 293.17C902.423 293.168 902.205 293.142 901.94 293.093C901.674 293.043 901.487 293.002 901.378 292.969L901.385 291.211C901.448 291.22 901.545 291.229 901.678 291.238C901.819 291.255 901.916 291.264 901.971 291.265C902.463 291.27 902.882 291.208 903.227 291.079C903.572 290.957 903.863 290.746 904.101 290.444C904.346 290.149 904.558 289.741 904.735 289.22L905.664 286.769ZM903.196 275.374L906.383 285.253L906.921 287.544L905.354 288.324L900.829 275.349L903.196 275.374ZM922.132 281.073L922.113 282.831L915.41 282.759L915.429 281.001L922.132 281.073ZM915.945 275.511L915.809 288.19L913.641 288.166L913.777 275.487L915.945 275.511ZM923.948 275.596L923.813 288.275L921.633 288.252L921.769 275.573L923.948 275.596ZM929.796 275.659L929.66 288.337L927.492 288.314L927.628 275.635L929.796 275.659ZM938.116 275.747L932.026 282.948L928.991 282.916L928.684 281.014L931.168 281.041L935.479 275.719L938.116 275.747ZM935.648 288.401L931.046 282.61L932.457 281.054L938.402 288.431L935.648 288.401ZM940.476 288.453L940.612 275.774L942.779 275.797L942.663 286.695L948.498 286.757L948.615 275.859L950.795 275.883L950.659 288.562L940.476 288.453ZM952.178 286.797L951.908 292.337L949.974 292.316L950.014 288.555L948.362 288.537L948.381 286.756L952.178 286.797ZM956.894 285.195L962.841 276.011L965.02 276.035L964.885 288.714L962.705 288.69L962.804 279.445L956.858 288.628L954.702 288.605L954.837 275.926L956.993 275.949L956.894 285.195ZM970.745 285.342L976.691 276.159L978.871 276.183L978.735 288.862L976.556 288.838L976.655 279.593L970.708 288.776L968.552 288.753L968.688 276.074L970.844 276.097L970.745 285.342Z" fill="#456AA0"/>
<path d="M458.002 486.5L720.009 312.23" stroke="#456AA0" stroke-width="10"/>
<path d="M261.002 317L729.978 227" stroke="#456AA0" stroke-width="10"/>
<g filter="url(#filter0_d_358_2624)">
<path d="M345.272 538.403C305.43 526.243 305.866 469.686 345.891 458.141C349.766 457.023 353.782 456.471 357.815 456.502L627.731 458.576C631.764 458.607 635.771 459.221 639.629 460.398C679.471 472.557 679.035 529.114 639.01 540.66C635.135 541.778 631.119 542.33 627.086 542.299L357.17 540.225C353.137 540.194 349.13 539.58 345.272 538.403Z" fill="#6384B4"/>
<path d="M344.782 454.297C300.933 466.946 300.455 528.907 344.105 542.229C348.331 543.519 352.721 544.191 357.139 544.225L627.055 546.299C631.473 546.333 635.873 545.728 640.119 544.503C683.968 531.854 684.446 469.893 640.796 456.572C636.57 455.282 632.18 454.61 627.762 454.576L357.846 452.502C353.428 452.468 349.027 453.073 344.782 454.297Z" stroke="#456AA0" stroke-width="8"/>
</g>
<path d="M434.174 504.493L431.198 504.462L424.193 496.429L422.611 496.412L422.526 504.369L420.206 504.344L420.393 486.896L422.713 486.921L422.629 494.748C423.028 494.745 423.403 494.71 423.755 494.643C424.108 494.577 424.441 494.447 424.756 494.256C425.07 494.079 425.381 493.829 425.69 493.504C425.998 493.171 426.272 492.764 426.511 492.282C426.615 492.072 426.735 491.808 426.871 491.489C427.015 491.17 427.16 490.836 427.304 490.486C427.857 489.195 428.495 488.291 429.22 487.775C429.952 487.26 431.021 487.01 432.427 487.025L433.353 487.034L433.331 489.109L432.358 489.098C431.819 489.092 431.397 489.139 431.091 489.237C430.785 489.327 430.51 489.485 430.266 489.709C430.037 489.909 429.835 490.181 429.659 490.523C429.491 490.864 429.315 491.265 429.131 491.724C428.713 492.751 428.291 493.504 427.864 493.984C427.445 494.464 426.882 494.88 426.175 495.232L434.174 504.493ZM446.783 504.628L444.591 504.605L444.606 503.21C444.41 503.341 444.142 503.526 443.803 503.764C443.473 503.995 443.15 504.179 442.836 504.316C442.467 504.492 442.044 504.636 441.566 504.748C441.088 504.868 440.529 504.925 439.888 504.918C438.709 504.905 437.713 504.504 436.901 503.714C436.089 502.924 435.69 501.924 435.703 500.713C435.713 499.721 435.933 498.922 436.361 498.317C436.798 497.705 437.412 497.227 438.205 496.884C439.005 496.541 439.965 496.313 441.083 496.2C442.202 496.086 443.402 496.006 444.684 495.957L444.688 495.617C444.693 495.117 444.607 494.702 444.431 494.372C444.263 494.042 444.016 493.781 443.69 493.59C443.379 493.407 443.005 493.282 442.569 493.215C442.132 493.148 441.675 493.112 441.199 493.107C440.62 493.101 439.975 493.172 439.263 493.321C438.55 493.461 437.813 493.672 437.053 493.953L436.935 493.952L436.959 491.714C437.39 491.601 438.013 491.479 438.827 491.347C439.641 491.215 440.442 491.153 441.231 491.162C442.153 491.172 442.953 491.258 443.631 491.422C444.317 491.578 444.908 491.842 445.404 492.214C445.892 492.579 446.262 493.048 446.514 493.621C446.765 494.194 446.887 494.902 446.878 495.746L446.783 504.628ZM444.626 501.382L444.665 497.738C443.993 497.77 443.199 497.82 442.284 497.888C441.377 497.957 440.657 498.062 440.124 498.205C439.49 498.378 438.975 498.654 438.58 499.032C438.186 499.403 437.985 499.921 437.978 500.585C437.97 501.335 438.19 501.903 438.639 502.291C439.088 502.671 439.778 502.866 440.707 502.876C441.481 502.884 442.189 502.743 442.833 502.453C443.477 502.155 444.074 501.798 444.626 501.382ZM460.83 503.958C459.927 504.37 459.15 504.651 458.5 504.8C457.858 504.957 457.216 505.032 456.576 505.026C455.623 505.015 454.749 504.869 453.955 504.587C453.161 504.298 452.482 503.869 451.918 503.3C451.354 502.731 450.916 502.016 450.605 501.153C450.302 500.29 450.156 499.285 450.169 498.136C450.191 496.051 450.787 494.393 451.956 493.163C453.126 491.926 454.715 491.317 456.722 491.339C457.48 491.347 458.221 491.46 458.945 491.679C459.677 491.898 460.346 492.163 460.953 492.474L460.926 494.923L460.797 494.922C460.077 494.359 459.363 493.941 458.654 493.668C457.954 493.395 457.272 493.255 456.608 493.248C455.303 493.234 454.287 493.661 453.559 494.528C452.839 495.395 452.47 496.606 452.454 498.161C452.437 499.715 452.78 500.926 453.481 501.793C454.183 502.66 455.19 503.101 456.502 503.115C456.963 503.119 457.421 503.066 457.875 502.953C458.338 502.841 458.757 502.693 459.134 502.51C459.433 502.365 459.739 502.192 460.054 501.992C460.376 501.785 460.601 501.631 460.727 501.531L460.856 501.532L460.83 503.958ZM474.801 504.927L472.598 504.904L472.717 493.713L466.167 493.643L466.047 504.834L463.844 504.81L463.984 491.721L474.941 491.838L474.801 504.927ZM490.175 505.091L487.995 505.068L488.1 495.237L481.14 504.995L479.148 504.974L479.288 491.885L481.468 491.908L481.364 501.599L488.252 491.98L490.315 492.002L490.175 505.091ZM505.549 505.256L503.369 505.232L503.474 495.401L496.514 505.159L494.522 505.138L494.662 492.049L496.842 492.072L496.738 501.763L503.626 492.145L505.689 492.167L505.549 505.256ZM504.49 486.997C504.439 488.153 504.062 489.051 503.36 489.692C502.665 490.333 501.658 490.647 500.338 490.633C499.018 490.619 498.013 490.284 497.325 489.628C496.644 488.972 496.291 488.066 496.264 486.909L498.268 486.931C498.267 487.751 498.44 488.347 498.788 488.718C499.143 489.089 499.665 489.278 500.352 489.285C501.047 489.293 501.573 489.119 501.928 488.763C502.284 488.407 502.47 487.812 502.486 486.976L504.49 486.997ZM519.701 504.586C518.798 504.999 518.022 505.279 517.372 505.429C516.729 505.586 516.088 505.661 515.447 505.654C514.494 505.644 513.621 505.498 512.827 505.216C512.033 504.926 511.354 504.497 510.79 503.929C510.226 503.36 509.788 502.645 509.477 501.782C509.174 500.919 509.028 499.914 509.04 498.765C509.063 496.679 509.659 495.022 510.828 493.792C511.998 492.554 513.586 491.946 515.594 491.968C516.352 491.976 517.093 492.089 517.817 492.308C518.549 492.527 519.218 492.792 519.824 493.103L519.798 495.552L519.669 495.55C518.948 494.988 518.234 494.57 517.526 494.297C516.826 494.024 516.144 493.884 515.48 493.877C514.175 493.863 513.159 494.289 512.431 495.157C511.71 496.024 511.342 497.235 511.325 498.79C511.309 500.344 511.651 501.555 512.353 502.422C513.055 503.289 514.062 503.729 515.374 503.743C515.835 503.748 516.293 503.694 516.747 503.582C517.209 503.47 517.629 503.322 518.006 503.139C518.304 502.993 518.611 502.821 518.925 502.621C519.248 502.413 519.472 502.26 519.598 502.159L519.727 502.161L519.701 504.586ZM534.528 505.565L531.645 505.534L526.272 499.477L525.077 499.464L525.012 505.463L522.809 505.44L522.95 492.351L525.153 492.374L525.092 498.023C525.819 498.03 526.406 497.908 526.854 497.655C527.302 497.394 527.686 496.976 528.004 496.401C528.116 496.191 528.224 495.97 528.328 495.737C528.44 495.496 528.548 495.266 528.652 495.049C529.067 494.17 529.582 493.516 530.196 493.085C530.81 492.654 531.687 492.444 532.828 492.456L533.836 492.467L533.815 494.365L532.843 494.355C532.226 494.348 531.74 494.476 531.385 494.738C531.039 494.992 530.722 495.446 530.433 496.099C530.113 496.83 529.775 497.377 529.42 497.741C529.072 498.096 528.702 498.366 528.309 498.549L534.528 505.565ZM547.945 505.708L545.765 505.685L545.87 495.854L538.91 505.612L536.918 505.591L537.058 492.502L539.238 492.525L539.134 502.216L546.023 492.597L548.085 492.619L547.945 505.708ZM563.319 505.873L561.139 505.849L561.245 496.018L554.284 505.776L552.292 505.755L552.432 492.666L554.612 492.689L554.508 502.38L561.397 492.761L563.459 492.783L563.319 505.873ZM562.26 487.614C562.209 488.77 561.832 489.668 561.13 490.309C560.435 490.95 559.428 491.264 558.108 491.25C556.788 491.236 555.783 490.901 555.095 490.245C554.415 489.589 554.061 488.683 554.034 487.526L556.038 487.548C556.037 488.368 556.21 488.964 556.558 489.335C556.913 489.706 557.435 489.895 558.122 489.902C558.818 489.91 559.343 489.735 559.698 489.38C560.054 489.024 560.24 488.429 560.257 487.593L562.26 487.614Z" fill="white"/>
<g filter="url(#filter1_d_358_2624)">
<path d="M739.272 567.68C699.43 555.521 699.866 498.964 739.891 487.418C743.766 486.3 747.782 485.748 751.815 485.779L1021.73 487.853C1025.76 487.884 1029.77 488.498 1033.63 489.675C1073.47 501.835 1073.04 558.392 1033.01 569.938C1029.14 571.055 1025.12 571.607 1021.09 571.576L751.17 569.502C747.137 569.471 743.13 568.858 739.272 567.68Z" fill="#6384B4"/>
<path d="M738.782 483.575C694.933 496.224 694.455 558.185 738.105 571.506C742.331 572.796 746.721 573.468 751.139 573.502L1021.05 575.576C1025.47 575.61 1029.87 575.006 1034.12 573.781C1077.97 561.132 1078.45 499.171 1034.8 485.849C1030.57 484.56 1026.18 483.887 1021.76 483.853L751.846 481.779C747.428 481.745 743.027 482.35 738.782 483.575Z" stroke="#456AA0" stroke-width="8"/>
</g>
<path d="M788.265 534.782L786.062 534.758L786.105 530.762L773.778 530.631L773.735 534.627L771.532 534.603L771.596 528.592L773.002 528.607C774.036 526.946 774.868 524.775 775.498 522.094C776.136 519.405 776.472 516.459 776.507 513.256L786.842 513.367L786.677 528.753L788.33 528.77L788.265 534.782ZM784.357 528.728L784.5 515.358L778.665 515.295C778.525 518.083 778.154 520.634 777.551 522.948C776.949 525.254 776.178 527.148 775.24 528.631L784.357 528.728ZM801.701 530.976L799.51 530.952L799.525 529.558C799.328 529.689 799.061 529.873 798.722 530.112C798.391 530.343 798.069 530.527 797.755 530.664C797.386 530.84 796.963 530.984 796.485 531.096C796.007 531.216 795.448 531.272 794.807 531.265C793.627 531.253 792.632 530.852 791.82 530.062C791.008 529.272 790.608 528.271 790.621 527.06C790.632 526.068 790.852 525.27 791.28 524.665C791.716 524.052 792.331 523.574 793.123 523.231C793.924 522.888 794.884 522.66 796.002 522.547C797.121 522.434 798.321 522.353 799.603 522.304L799.606 521.965C799.612 521.465 799.526 521.05 799.35 520.72C799.182 520.39 798.934 520.129 798.608 519.938C798.298 519.755 797.924 519.63 797.487 519.563C797.05 519.496 796.594 519.46 796.117 519.455C795.539 519.448 794.894 519.52 794.181 519.668C793.469 519.809 792.732 520.02 791.971 520.301L791.854 520.3L791.878 518.062C792.309 517.949 792.931 517.827 793.745 517.695C794.559 517.563 795.361 517.501 796.15 517.509C797.072 517.519 797.871 517.606 798.549 517.769C799.235 517.925 799.826 518.189 800.322 518.562C800.811 518.926 801.181 519.395 801.432 519.968C801.684 520.541 801.805 521.25 801.796 522.093L801.701 530.976ZM799.544 527.73L799.583 524.086C798.911 524.117 798.118 524.168 797.203 524.236C796.296 524.304 795.576 524.41 795.043 524.553C794.408 524.726 793.894 525.001 793.499 525.38C793.104 525.751 792.903 526.268 792.896 526.932C792.888 527.682 793.109 528.251 793.558 528.639C794.007 529.018 794.696 529.213 795.626 529.223C796.399 529.232 797.108 529.091 797.752 528.801C798.395 528.503 798.993 528.146 799.544 527.73ZM816.501 531.134L814.298 531.11L814.418 519.873L809.532 519.82C809.502 520.469 809.472 521.093 809.442 521.695C809.412 522.296 809.383 522.839 809.354 523.323C809.285 524.627 809.184 525.669 809.051 526.449C808.918 527.221 808.747 527.863 808.538 528.377C808.345 528.859 808.13 529.251 807.893 529.554C807.663 529.848 807.414 530.115 807.146 530.354C806.878 530.586 806.579 530.758 806.249 530.872C805.928 530.986 805.576 531.041 805.193 531.036C805.06 531.035 804.865 531.029 804.607 531.019C804.357 531.008 804.193 531.002 804.115 531.002L804.136 529.08L804.253 529.081C804.315 529.082 804.405 529.087 804.522 529.096C804.639 529.105 804.737 529.11 804.815 529.11C805.003 529.112 805.194 529.087 805.39 529.035C805.594 528.982 805.767 528.882 805.909 528.735C806.312 528.349 806.639 527.692 806.891 526.765C807.143 525.838 807.318 524.496 807.415 522.739C807.453 522.099 807.488 521.342 807.521 520.467C807.562 519.585 807.598 518.745 807.63 517.948L816.641 518.045L816.501 531.134ZM829.071 527.248C829.075 526.85 829.008 526.501 828.871 526.203C828.742 525.897 828.522 525.649 828.211 525.458C827.885 525.259 827.511 525.138 827.09 525.094C826.676 525.051 826.079 525.025 825.298 525.016L823.118 524.993L823.07 529.446L825.203 529.469C825.984 529.477 826.59 529.452 827.02 529.394C827.451 529.329 827.823 529.204 828.138 529.02C828.46 528.82 828.693 528.584 828.837 528.312C828.988 528.033 829.066 527.678 829.071 527.248ZM831.344 527.237C831.338 527.87 831.203 528.443 830.939 528.956C830.684 529.469 830.336 529.883 829.895 530.199C829.375 530.584 828.821 530.855 828.234 531.013C827.646 531.171 826.891 531.245 825.969 531.235L820.849 531.18L820.989 518.091L823.192 518.115L823.137 523.212L826.114 523.244C827.098 523.254 827.859 523.313 828.397 523.421C828.943 523.528 829.483 523.784 830.018 524.188C830.467 524.529 830.802 524.962 831.023 525.488C831.244 526.014 831.351 526.597 831.344 527.237ZM845.515 531.444L843.312 531.42L843.375 525.526L836.825 525.456L836.762 531.35L834.559 531.327L834.699 518.238L836.902 518.261L836.845 523.558L843.396 523.628L843.452 518.331L845.655 518.355L845.515 531.444ZM860.887 525.291L851.243 525.188C851.234 525.993 851.348 526.697 851.583 527.301C851.819 527.897 852.146 528.389 852.564 528.777C852.966 529.156 853.443 529.442 853.996 529.636C854.556 529.829 855.173 529.93 855.844 529.937C856.735 529.946 857.631 529.78 858.533 529.438C859.443 529.088 860.092 528.744 860.478 528.404L860.595 528.405L860.57 530.808C859.824 531.112 859.064 531.366 858.288 531.568C857.512 531.771 856.699 531.868 855.847 531.859C853.675 531.836 851.987 531.231 850.78 530.047C849.574 528.854 848.983 527.176 849.006 525.012C849.029 522.871 849.629 521.178 850.807 519.933C851.992 518.688 853.538 518.075 855.444 518.096C857.209 518.115 858.563 518.645 859.505 519.686C860.455 520.728 860.92 522.197 860.899 524.096L860.887 525.291ZM858.76 523.581C858.765 522.424 858.481 521.527 857.91 520.888C857.347 520.249 856.479 519.923 855.307 519.911C854.127 519.898 853.182 520.236 852.472 520.924C851.769 521.611 851.365 522.47 851.261 523.501L858.76 523.581ZM875.005 527.797C874.998 528.43 874.863 528.991 874.6 529.481C874.345 529.97 873.993 530.377 873.544 530.7C873.04 531.062 872.491 531.322 871.895 531.479C871.308 531.637 870.533 531.711 869.572 531.701L864.159 531.643L864.299 518.554L869.361 518.608C870.337 518.618 871.071 518.661 871.563 518.737C872.062 518.805 872.529 518.954 872.964 519.185C873.454 519.448 873.809 519.788 874.032 520.205C874.262 520.621 874.373 521.111 874.367 521.673C874.361 522.321 874.171 522.882 873.799 523.355C873.426 523.827 872.95 524.193 872.369 524.453L872.368 524.57C873.139 524.766 873.772 525.136 874.266 525.68C874.768 526.217 875.014 526.922 875.005 527.797ZM872.102 521.989C872.105 521.708 872.045 521.453 871.923 521.225C871.808 520.997 871.626 520.82 871.378 520.692C871.051 520.524 870.681 520.431 870.267 520.41C869.861 520.383 869.358 520.366 868.756 520.359L866.459 520.335L866.421 523.92L869.175 523.95C869.753 523.956 870.179 523.941 870.453 523.905C870.734 523.861 871.017 523.755 871.3 523.586C871.599 523.401 871.804 523.185 871.916 522.936C872.036 522.679 872.098 522.364 872.102 521.989ZM872.732 527.785C872.736 527.355 872.67 527.007 872.532 526.74C872.394 526.465 872.088 526.211 871.614 525.98C871.319 525.836 870.999 525.751 870.656 525.724C870.313 525.689 869.836 525.668 869.227 525.661L866.403 525.631L866.357 529.908L868.443 529.931C869.318 529.94 869.99 529.92 870.459 529.87C870.936 529.813 871.348 529.688 871.694 529.497C872.04 529.305 872.296 529.069 872.463 528.79C872.638 528.51 872.727 528.175 872.732 527.785ZM889.657 525.376C889.634 527.508 889.069 529.186 887.962 530.409C886.855 531.631 885.384 532.233 883.548 532.213C881.697 532.193 880.231 531.56 879.15 530.314C878.078 529.069 877.553 527.379 877.575 525.247C877.598 523.114 878.159 521.436 879.258 520.213C880.365 518.983 881.845 518.378 883.696 518.398C885.532 518.417 886.99 519.054 888.07 520.308C889.151 521.554 889.68 523.243 889.657 525.376ZM887.384 525.351C887.402 523.656 887.083 522.395 886.428 521.567C885.773 520.732 884.855 520.308 883.676 520.296C882.48 520.283 881.546 520.687 880.874 521.508C880.209 522.321 879.867 523.576 879.849 525.271C879.831 526.911 880.15 528.161 880.805 529.02C881.46 529.87 882.381 530.302 883.568 530.315C884.74 530.327 885.663 529.919 886.336 529.09C887.016 528.254 887.366 527.007 887.384 525.351ZM902.814 531.235C901.911 531.647 901.134 531.928 900.484 532.078C899.842 532.235 899.2 532.31 898.56 532.303C897.607 532.293 896.733 532.147 895.939 531.865C895.145 531.575 894.466 531.146 893.902 530.577C893.338 530.009 892.9 529.293 892.589 528.431C892.286 527.568 892.14 526.562 892.153 525.414C892.175 523.328 892.771 521.67 893.94 520.441C895.11 519.203 896.699 518.595 898.706 518.616C899.464 518.624 900.205 518.738 900.929 518.957C901.661 519.175 902.33 519.44 902.937 519.751L902.91 522.201L902.781 522.199C902.061 521.637 901.347 521.219 900.638 520.946C899.938 520.673 899.256 520.533 898.592 520.525C897.287 520.512 896.271 520.938 895.543 521.805C894.823 522.673 894.454 523.884 894.438 525.438C894.421 526.993 894.764 528.204 895.465 529.071C896.167 529.938 897.174 530.378 898.486 530.392C898.947 530.397 899.405 530.343 899.859 530.231C900.322 530.119 900.741 529.971 901.118 529.787C901.417 529.642 901.723 529.47 902.038 529.27C902.36 529.062 902.585 528.908 902.711 528.808L902.84 528.81L902.814 531.235ZM915.568 521.035L910.834 520.984L910.715 532.14L908.512 532.116L908.631 520.961L903.897 520.91L903.918 518.977L915.589 519.101L915.568 521.035ZM928.959 525.795C928.936 527.928 928.372 529.606 927.265 530.828C926.158 532.051 924.686 532.652 922.851 532.633C920.999 532.613 919.533 531.98 918.453 530.734C917.38 529.488 916.855 527.799 916.878 525.666C916.901 523.534 917.462 521.856 918.561 520.633C919.668 519.403 921.147 518.797 922.998 518.817C924.834 518.837 926.292 519.474 927.373 520.727C928.453 521.973 928.982 523.663 928.959 525.795ZM926.686 525.771C926.704 524.076 926.386 522.815 925.73 521.987C925.075 521.152 924.158 520.728 922.978 520.716C921.783 520.703 920.849 521.107 920.176 521.928C919.511 522.741 919.169 523.995 919.151 525.691C919.134 527.331 919.452 528.581 920.107 529.439C920.762 530.29 921.683 530.722 922.871 530.735C924.043 530.747 924.965 530.339 925.638 529.51C926.319 528.674 926.668 527.427 926.686 525.771ZM942.506 532.479L940.303 532.456L940.357 527.429C939.643 527.64 938.962 527.809 938.312 527.934C937.662 528.06 936.954 528.119 936.189 528.111C934.783 528.096 933.712 527.741 932.977 527.045C932.243 526.342 931.882 525.338 931.896 524.034L931.947 519.276L934.15 519.3L934.111 522.932C934.106 523.432 934.132 523.882 934.191 524.281C934.249 524.672 934.378 525.013 934.578 525.305C934.778 525.588 935.061 525.806 935.427 525.958C935.792 526.111 936.303 526.19 936.959 526.197C937.498 526.203 938.085 526.158 938.719 526.064C939.353 525.961 939.905 525.842 940.375 525.706L940.443 519.367L942.646 519.39L942.506 532.479ZM957.798 532.643L955.595 532.619L955.658 526.725L949.107 526.655L949.044 532.549L946.841 532.526L946.981 519.437L949.184 519.46L949.128 524.757L955.678 524.827L955.735 519.53L957.938 519.554L957.798 532.643ZM970.25 528.756C970.255 528.358 970.188 528.009 970.051 527.711C969.921 527.405 969.701 527.156 969.39 526.965C969.064 526.767 968.691 526.645 968.269 526.602C967.856 526.558 967.258 526.532 966.477 526.524L964.415 526.502L964.367 530.955L966.383 530.977C967.164 530.985 967.769 530.96 968.2 530.902C968.63 530.836 969.003 530.712 969.317 530.527C969.64 530.328 969.873 530.092 970.016 529.82C970.168 529.54 970.246 529.186 970.25 528.756ZM972.524 528.745C972.517 529.378 972.382 529.951 972.119 530.464C971.863 530.976 971.515 531.391 971.074 531.706C970.554 532.091 970.001 532.363 969.413 532.521C968.825 532.678 968.071 532.752 967.149 532.743L962.145 532.689L962.285 519.6L964.488 519.624L964.434 524.721L967.293 524.752C968.277 524.762 969.038 524.821 969.576 524.928C970.122 525.036 970.662 525.291 971.197 525.696C971.647 526.036 971.982 526.47 972.203 526.995C972.424 527.521 972.531 528.105 972.524 528.745ZM974.812 519.734L977.015 519.757L976.875 532.846L974.672 532.823L974.812 519.734ZM992.249 533.011L990.069 532.987L990.175 523.156L983.214 532.914L981.222 532.893L981.362 519.804L983.542 519.827L983.438 529.518L990.327 519.9L992.389 519.922L992.249 533.011ZM991.19 514.752C991.139 515.908 990.762 516.806 990.06 517.447C989.366 518.088 988.358 518.402 987.038 518.388C985.718 518.374 984.713 518.039 984.025 517.383C983.345 516.727 982.991 515.821 982.964 514.664L984.968 514.686C984.967 515.506 985.14 516.102 985.488 516.473C985.843 516.844 986.365 517.033 987.052 517.04C987.748 517.048 988.273 516.874 988.628 516.518C988.984 516.162 989.17 515.567 989.187 514.731L991.19 514.752Z" fill="white"/>
<path d="M1005.01 309.232L1310 505" stroke="#456AA0" stroke-width="10"/>
<g filter="url(#filter2_d_358_2624)">
<path d="M1127.27 534.169C1087.43 522.009 1087.87 465.452 1127.89 453.906C1131.77 452.788 1135.78 452.236 1139.82 452.267L1409.73 454.341C1413.76 454.372 1417.77 454.986 1421.63 456.163C1461.47 468.323 1461.04 524.88 1421.01 536.426C1417.14 537.544 1413.12 538.096 1409.09 538.065L1139.17 535.99C1135.14 535.959 1131.13 535.346 1127.27 534.169Z" fill="#6384B4"/>
<path d="M1126.78 450.063C1082.93 462.712 1082.46 524.673 1126.1 537.994C1130.33 539.284 1134.72 539.956 1139.14 539.99L1409.05 542.065C1413.47 542.099 1417.87 541.494 1422.12 540.269C1465.97 527.62 1466.45 465.659 1422.8 452.338C1418.57 451.048 1414.18 450.376 1409.76 450.342L1139.85 448.267C1135.43 448.233 1131.03 448.838 1126.78 450.063Z" stroke="#456AA0" stroke-width="8"/>
</g>
<path d="M1159.84 499.935L1157.37 499.908L1155.71 495.027L1148.16 494.946L1146.4 499.791L1144.05 499.766L1150.58 482.386L1153.68 482.419L1159.84 499.935ZM1155.02 493.027L1152.05 484.429L1148.89 492.962L1155.02 493.027ZM1171.46 496.391C1171.45 497.125 1171.27 497.744 1170.92 498.248C1170.58 498.752 1170.14 499.158 1169.61 499.465C1169.07 499.764 1168.49 499.98 1167.84 500.114C1167.2 500.248 1166.56 500.311 1165.92 500.304C1165.01 500.295 1164.15 500.199 1163.33 500.019C1162.52 499.838 1161.71 499.564 1160.92 499.196L1160.94 496.782L1161.09 496.784C1161.66 497.29 1162.38 497.684 1163.26 497.967C1164.14 498.25 1165 498.396 1165.82 498.405C1166.21 498.409 1166.62 498.378 1167.03 498.312C1167.45 498.238 1167.81 498.121 1168.11 497.96C1168.44 497.776 1168.71 497.557 1168.91 497.301C1169.1 497.037 1169.21 496.679 1169.21 496.226C1169.22 495.757 1169.12 495.381 1168.93 495.098C1168.75 494.815 1168.49 494.601 1168.16 494.457C1167.84 494.313 1167.46 494.223 1167.01 494.187C1166.55 494.15 1166.14 494.13 1165.76 494.126L1163.85 494.106L1163.87 492.208L1165.2 492.222C1165.51 492.225 1165.92 492.218 1166.42 492.2C1166.93 492.182 1167.34 492.124 1167.65 492.025C1168.06 491.897 1168.38 491.713 1168.62 491.473C1168.86 491.234 1168.99 490.848 1168.99 490.317C1169 489.95 1168.91 489.648 1168.72 489.412C1168.54 489.167 1168.3 488.977 1168.02 488.842C1167.74 488.706 1167.41 488.612 1167.05 488.562C1166.7 488.511 1166.39 488.484 1166.12 488.481C1165.32 488.473 1164.53 488.574 1163.76 488.784C1162.99 488.987 1162.34 489.289 1161.82 489.689L1161.66 489.688L1161.69 487.262C1162.34 487.058 1163.04 486.894 1163.78 486.769C1164.52 486.644 1165.27 486.586 1166.01 486.593C1166.62 486.6 1167.22 486.661 1167.82 486.777C1168.43 486.893 1169 487.086 1169.52 487.358C1170.03 487.629 1170.45 487.996 1170.77 488.461C1171.09 488.917 1171.25 489.482 1171.24 490.153C1171.24 490.841 1171.02 491.444 1170.58 491.963C1170.15 492.474 1169.58 492.839 1168.86 493.058L1168.86 493.14C1169.66 493.344 1170.3 493.718 1170.77 494.262C1171.24 494.798 1171.47 495.508 1171.46 496.391ZM1186.13 493.676C1186.1 495.809 1185.54 497.486 1184.43 498.709C1183.32 499.931 1181.85 500.533 1180.02 500.513C1178.17 500.494 1176.7 499.861 1175.62 498.615C1174.55 497.369 1174.02 495.68 1174.04 493.547C1174.07 491.414 1174.63 489.736 1175.73 488.514C1176.83 487.283 1178.31 486.678 1180.16 486.698C1182 486.717 1183.46 487.354 1184.54 488.608C1185.62 489.854 1186.15 491.543 1186.13 493.676ZM1183.85 493.652C1183.87 491.956 1183.55 490.695 1182.9 489.868C1182.24 489.033 1181.32 488.609 1180.14 488.596C1178.95 488.583 1178.02 488.987 1177.34 489.808C1176.68 490.622 1176.34 491.876 1176.32 493.571C1176.3 495.212 1176.62 496.461 1177.27 497.32C1177.93 498.171 1178.85 498.602 1180.04 498.615C1181.21 498.628 1182.13 498.219 1182.8 497.391C1183.49 496.554 1183.83 495.308 1183.85 493.652ZM1200.32 496.406C1200.32 497.039 1200.18 497.6 1199.92 498.089C1199.66 498.579 1199.31 498.985 1198.86 499.308C1198.36 499.67 1197.81 499.93 1197.21 500.088C1196.63 500.245 1195.85 500.319 1194.89 500.309L1189.48 500.251L1189.62 487.162L1194.68 487.216C1195.66 487.226 1196.39 487.269 1196.88 487.345C1197.38 487.413 1197.85 487.562 1198.28 487.794C1198.77 488.057 1199.13 488.396 1199.35 488.813C1199.58 489.229 1199.69 489.719 1199.69 490.281C1199.68 490.93 1199.49 491.49 1199.12 491.963C1198.74 492.436 1198.27 492.802 1197.69 493.061L1197.69 493.178C1198.46 493.374 1199.09 493.744 1199.58 494.288C1200.09 494.825 1200.33 495.531 1200.32 496.406ZM1197.42 490.597C1197.42 490.316 1197.36 490.061 1197.24 489.833C1197.13 489.606 1196.95 489.428 1196.7 489.3C1196.37 489.133 1196 489.039 1195.59 489.019C1195.18 488.991 1194.68 488.974 1194.07 488.968L1191.78 488.943L1191.74 492.529L1194.49 492.558C1195.07 492.564 1195.5 492.549 1195.77 492.513C1196.05 492.469 1196.34 492.363 1196.62 492.194C1196.92 492.01 1197.12 491.793 1197.23 491.544C1197.35 491.288 1197.42 490.972 1197.42 490.597ZM1198.05 496.393C1198.05 495.964 1197.99 495.615 1197.85 495.348C1197.71 495.073 1197.41 494.82 1196.93 494.588C1196.64 494.444 1196.32 494.359 1195.97 494.332C1195.63 494.297 1195.15 494.276 1194.55 494.27L1191.72 494.24L1191.68 498.517L1193.76 498.539C1194.64 498.548 1195.31 498.528 1195.78 498.478C1196.25 498.421 1196.67 498.297 1197.01 498.105C1197.36 497.913 1197.61 497.678 1197.78 497.398C1197.96 497.119 1198.05 496.784 1198.05 496.393ZM1214.98 493.984C1214.95 496.117 1214.39 497.794 1213.28 499.017C1212.17 500.24 1210.7 500.841 1208.87 500.821C1207.02 500.802 1205.55 500.169 1204.47 498.923C1203.4 497.677 1202.87 495.988 1202.89 493.855C1202.92 491.722 1203.48 490.045 1204.58 488.822C1205.68 487.591 1207.16 486.986 1209.01 487.006C1210.85 487.025 1212.31 487.662 1213.39 488.916C1214.47 490.162 1215 491.851 1214.98 493.984ZM1212.7 493.96C1212.72 492.264 1212.4 491.003 1211.75 490.176C1211.09 489.341 1210.17 488.917 1208.99 488.904C1207.8 488.891 1206.86 489.296 1206.19 490.117C1205.53 490.93 1205.19 492.184 1205.17 493.879C1205.15 495.52 1205.47 496.769 1206.12 497.628C1206.78 498.479 1207.7 498.91 1208.89 498.923C1210.06 498.936 1210.98 498.528 1211.65 497.699C1212.34 496.862 1212.68 495.616 1212.7 493.96ZM1225.33 494.059L1218.02 493.981L1218.05 491.86L1225.36 491.938L1225.33 494.059ZM1241.8 500.81L1239.48 500.785L1239.56 493.403C1238.55 493.704 1237.61 493.933 1236.74 494.087C1235.88 494.242 1235.06 494.316 1234.27 494.307C1233.5 494.299 1232.78 494.198 1232.11 494.003C1231.44 493.8 1230.86 493.49 1230.37 493.07C1229.89 492.651 1229.5 492.119 1229.23 491.476C1228.96 490.832 1228.83 490.065 1228.84 489.175L1228.91 483.222L1231.23 483.247L1231.18 488.039C1231.17 488.719 1231.2 489.298 1231.28 489.775C1231.35 490.245 1231.52 490.668 1231.79 491.046C1232.06 491.416 1232.41 491.697 1232.86 491.89C1233.3 492.074 1233.94 492.171 1234.78 492.18C1235.66 492.189 1236.52 492.12 1237.36 491.973C1238.2 491.826 1238.94 491.638 1239.58 491.411L1239.66 483.337L1241.99 483.362L1241.8 500.81ZM1257.33 494.659L1247.69 494.556C1247.68 495.361 1247.79 496.065 1248.03 496.669C1248.27 497.265 1248.59 497.757 1249.01 498.145C1249.41 498.524 1249.89 498.81 1250.44 499.004C1251 499.197 1251.62 499.297 1252.29 499.305C1253.18 499.314 1254.08 499.148 1254.98 498.806C1255.89 498.456 1256.54 498.112 1256.93 497.772L1257.04 497.773L1257.02 500.175C1256.27 500.48 1255.51 500.734 1254.74 500.936C1253.96 501.139 1253.15 501.236 1252.29 501.227C1250.12 501.203 1248.43 500.599 1247.23 499.415C1246.02 498.222 1245.43 496.544 1245.45 494.38C1245.48 492.239 1246.08 490.546 1247.25 489.301C1248.44 488.056 1249.98 487.443 1251.89 487.464C1253.66 487.483 1255.01 488.013 1255.95 489.054C1256.9 490.096 1257.37 491.565 1257.35 493.464L1257.33 494.659ZM1255.21 492.949C1255.21 491.792 1254.93 490.895 1254.36 490.256C1253.79 489.617 1252.93 489.291 1251.75 489.279C1250.57 489.266 1249.63 489.604 1248.92 490.292C1248.22 490.979 1247.81 491.838 1247.71 492.869L1255.21 492.949ZM1272.2 494.431C1272.19 495.493 1272.02 496.464 1271.71 497.344C1271.39 498.216 1270.96 498.953 1270.4 499.557C1269.87 500.129 1269.26 500.572 1268.55 500.885C1267.85 501.19 1267.11 501.338 1266.33 501.33C1265.65 501.322 1265.04 501.242 1264.48 501.087C1263.94 500.933 1263.38 500.697 1262.82 500.378L1262.76 505.862L1260.55 505.839L1260.75 487.922L1262.95 487.945L1262.93 489.316C1263.53 488.83 1264.19 488.427 1264.92 488.107C1265.65 487.779 1266.44 487.619 1267.27 487.628C1268.84 487.645 1270.06 488.255 1270.93 489.46C1271.8 490.657 1272.22 492.314 1272.2 494.431ZM1269.92 494.465C1269.94 492.887 1269.68 491.705 1269.15 490.918C1268.62 490.131 1267.8 489.731 1266.68 489.719C1266.05 489.713 1265.41 489.843 1264.77 490.109C1264.12 490.376 1263.51 490.729 1262.91 491.168L1262.84 498.585C1263.46 498.873 1263.99 499.07 1264.43 499.176C1264.89 499.283 1265.4 499.339 1265.97 499.345C1267.19 499.358 1268.16 498.954 1268.85 498.134C1269.55 497.313 1269.91 496.09 1269.92 494.465ZM1286.51 501.287L1284.31 501.264L1284.37 495.37L1277.82 495.3L1277.76 501.194L1275.56 501.17L1275.7 488.081L1277.9 488.105L1277.84 493.401L1284.4 493.471L1284.45 488.175L1286.65 488.198L1286.51 501.287ZM1302.09 494.914C1302.06 497.047 1301.5 498.725 1300.39 499.947C1299.29 501.17 1297.81 501.771 1295.98 501.752C1294.13 501.732 1292.66 501.099 1291.58 499.853C1290.51 498.607 1289.98 496.918 1290.01 494.785C1290.03 492.653 1290.59 490.975 1291.69 489.752C1292.8 488.522 1294.28 487.916 1296.13 487.936C1297.96 487.956 1299.42 488.592 1300.5 489.846C1301.58 491.092 1302.11 492.782 1302.09 494.914ZM1299.81 494.89C1299.83 493.195 1299.51 491.933 1298.86 491.106C1298.2 490.271 1297.29 489.847 1296.11 489.834C1294.91 489.822 1293.98 490.226 1293.3 491.047C1292.64 491.86 1292.3 493.114 1292.28 494.81C1292.26 496.45 1292.58 497.7 1293.24 498.558C1293.89 499.409 1294.81 499.841 1296 499.853C1297.17 499.866 1298.09 499.458 1298.77 498.629C1299.45 497.792 1299.8 496.546 1299.81 494.89ZM1317.81 501.622L1315.63 501.598L1315.74 491.263L1312.42 497.954L1310.77 497.937L1307.61 491.176L1307.5 501.512L1305.44 501.489L1305.58 488.4L1308.24 488.429L1311.72 495.791L1315.25 488.504L1317.95 488.533L1317.81 501.622ZM1333.37 495.248C1333.35 497.381 1332.79 499.059 1331.68 500.281C1330.57 501.504 1329.1 502.105 1327.27 502.086C1325.41 502.066 1323.95 501.433 1322.87 500.187C1321.8 498.941 1321.27 497.252 1321.29 495.119C1321.32 492.987 1321.88 491.309 1322.98 490.086C1324.08 488.856 1325.56 488.251 1327.41 488.27C1329.25 488.29 1330.71 488.927 1331.79 490.18C1332.87 491.426 1333.4 493.116 1333.37 495.248ZM1331.1 495.224C1331.12 493.529 1330.8 492.268 1330.15 491.44C1329.49 490.605 1328.57 490.181 1327.39 490.169C1326.2 490.156 1325.26 490.56 1324.59 491.381C1323.93 492.194 1323.58 493.448 1323.57 495.144C1323.55 496.784 1323.87 498.034 1324.52 498.892C1325.18 499.743 1326.1 500.175 1327.29 500.188C1328.46 500.2 1329.38 499.792 1330.05 498.963C1330.73 498.127 1331.08 496.88 1331.1 495.224ZM1348.32 495.244C1348.31 496.306 1348.14 497.277 1347.83 498.157C1347.51 499.029 1347.08 499.766 1346.52 500.369C1345.99 500.942 1345.38 501.385 1344.67 501.698C1343.98 502.003 1343.24 502.151 1342.45 502.143C1341.77 502.135 1341.16 502.055 1340.6 501.9C1340.06 501.746 1339.5 501.51 1338.94 501.191L1338.88 506.675L1336.67 506.651L1336.87 488.735L1339.07 488.758L1339.05 490.129C1339.65 489.643 1340.31 489.24 1341.04 488.92C1341.77 488.592 1342.56 488.432 1343.39 488.441C1344.96 488.458 1346.18 489.068 1347.05 490.273C1347.92 491.47 1348.34 493.127 1348.32 495.244ZM1346.04 495.278C1346.06 493.7 1345.8 492.518 1345.27 491.731C1344.74 490.944 1343.92 490.544 1342.8 490.532C1342.17 490.526 1341.53 490.656 1340.89 490.922C1340.24 491.189 1339.63 491.541 1339.04 491.981L1338.96 499.398C1339.58 499.686 1340.11 499.883 1340.56 499.989C1341.01 500.096 1341.52 500.152 1342.09 500.158C1343.31 500.171 1344.28 499.767 1344.97 498.947C1345.67 498.126 1346.03 496.903 1346.04 495.278ZM1361.48 501.268C1360.58 501.68 1359.8 501.961 1359.15 502.11C1358.51 502.267 1357.87 502.342 1357.23 502.336C1356.28 502.325 1355.4 502.179 1354.61 501.897C1353.82 501.608 1353.14 501.179 1352.57 500.61C1352.01 500.041 1351.57 499.326 1351.26 498.463C1350.96 497.6 1350.81 496.595 1350.82 495.446C1350.85 493.361 1351.44 491.703 1352.61 490.473C1353.78 489.235 1355.37 488.627 1357.38 488.649C1358.13 488.657 1358.88 488.77 1359.6 488.989C1360.33 489.208 1361 489.473 1361.61 489.784L1361.58 492.233L1361.45 492.232C1360.73 491.669 1360.02 491.251 1359.31 490.978C1358.61 490.705 1357.93 490.565 1357.26 490.558C1355.96 490.544 1354.94 490.971 1354.21 491.838C1353.49 492.705 1353.12 493.916 1353.11 495.471C1353.09 497.025 1353.43 498.236 1354.14 499.103C1354.84 499.97 1355.84 500.41 1357.16 500.425C1357.62 500.429 1358.08 500.376 1358.53 500.263C1358.99 500.151 1359.41 500.003 1359.79 499.82C1360.09 499.675 1360.39 499.502 1360.71 499.302C1361.03 499.095 1361.25 498.941 1361.38 498.841L1361.51 498.842L1361.48 501.268ZM1376.31 502.246L1373.43 502.216L1368.05 496.158L1366.86 496.145L1366.8 502.145L1364.59 502.121L1364.73 489.032L1366.94 489.056L1366.87 494.704C1367.6 494.712 1368.19 494.589 1368.64 494.336C1369.08 494.075 1369.47 493.657 1369.79 493.082C1369.9 492.873 1370.01 492.651 1370.11 492.418C1370.22 492.177 1370.33 491.948 1370.43 491.73C1370.85 490.851 1371.36 490.197 1371.98 489.766C1372.59 489.335 1373.47 489.125 1374.61 489.138L1375.62 489.148L1375.6 491.047L1374.63 491.036C1374.01 491.03 1373.52 491.157 1373.17 491.419C1372.82 491.673 1372.5 492.127 1372.22 492.78C1371.9 493.511 1371.56 494.058 1371.2 494.422C1370.85 494.777 1370.48 495.047 1370.09 495.23L1376.31 502.246ZM1389.73 502.39L1387.55 502.366L1387.65 492.535L1380.69 502.293L1378.7 502.272L1378.84 489.183L1381.02 489.206L1380.92 498.897L1387.81 489.279L1389.87 489.301L1389.73 502.39ZM1405.1 502.554L1402.92 502.531L1403.03 492.699L1396.07 502.457L1394.07 502.436L1394.21 489.347L1396.39 489.37L1396.29 499.061L1403.18 489.443L1405.24 489.465L1405.1 502.554ZM1404.04 484.295C1403.99 485.451 1403.61 486.35 1402.91 486.99C1402.22 487.632 1401.21 487.945 1399.89 487.931C1398.57 487.917 1397.57 487.582 1396.88 486.926C1396.2 486.27 1395.84 485.364 1395.82 484.208L1397.82 484.229C1397.82 485.049 1397.99 485.645 1398.34 486.016C1398.7 486.387 1399.22 486.576 1399.91 486.583C1400.6 486.591 1401.13 486.417 1401.48 486.061C1401.84 485.705 1402.02 485.11 1402.04 484.274L1404.04 484.295Z" fill="white"/>
<path d="M1011.31 197.163C1015.5 219.038 1014.81 241.567 1009.3 263.147C1003.78 284.726 993.571 304.826 979.395 322.018C965.218 339.209 947.423 353.068 927.274 362.611C907.126 372.153 885.12 377.143 862.822 377.227C840.524 377.311 818.481 372.485 798.262 363.094C778.042 353.703 760.143 339.978 745.838 322.893C731.532 305.809 721.171 285.786 715.493 264.248C709.814 242.711 708.957 220.188 712.982 198.282L829.913 219.717C829.04 224.463 829.226 229.343 830.456 234.009C831.687 238.675 833.931 243.013 837.031 246.715C840.13 250.416 844.008 253.39 848.389 255.424C852.769 257.459 857.545 258.504 862.376 258.486C867.207 258.468 871.974 257.387 876.34 255.319C880.705 253.252 884.56 250.249 887.631 246.525C890.703 242.8 892.915 238.446 894.11 233.77C895.305 229.095 895.454 224.214 894.547 219.475L1011.31 197.163Z" fill="#456AA0"/>
<ellipse cx="117.768" cy="117.908" rx="117.768" ry="117.908" transform="matrix(-0.00770271 0.99997 -0.99997 -0.00768436 980.309 116.883)" fill="white"/>
<ellipse cx="117.768" cy="117.908" rx="117.768" ry="117.908" transform="matrix(-0.00770271 0.99997 -0.99997 -0.00768436 980.309 116.883)" fill="white"/>
<path d="M799.672 223.779L803.39 223.818L809.426 241.009L815.812 223.951L819.546 223.991L810.85 246.649L807.865 246.617L799.672 223.779ZM797.797 223.759L801.437 223.798L801.925 239.538L801.85 246.553L797.553 246.507L797.797 223.759ZM817.765 223.972L821.421 224.011L821.177 246.76L816.88 246.714L816.956 239.699L817.765 223.972ZM824.594 238.514L824.597 238.186C824.61 236.947 824.8 235.808 825.165 234.77C825.53 233.722 826.056 232.816 826.741 232.053C827.426 231.289 828.261 230.699 829.245 230.282C830.228 229.855 831.345 229.649 832.595 229.662C833.866 229.675 834.989 229.906 835.963 230.354C836.948 230.792 837.775 231.4 838.444 232.178C839.112 232.956 839.618 233.873 839.961 234.928C840.304 235.974 840.469 237.116 840.456 238.356L840.452 238.684C840.439 239.913 840.25 241.052 839.884 242.1C839.519 243.138 838.994 244.043 838.308 244.817C837.623 245.581 836.788 246.171 835.805 246.588C834.821 247.004 833.699 247.206 832.439 247.192C831.189 247.179 830.071 246.954 829.086 246.516C828.101 246.078 827.275 245.471 826.606 244.692C825.937 243.904 825.431 242.987 825.088 241.942C824.745 240.886 824.581 239.744 824.594 238.514ZM828.722 238.23L828.718 238.558C828.711 239.298 828.776 239.991 828.915 240.639C829.054 241.286 829.272 241.856 829.569 242.349C829.865 242.842 830.252 243.231 830.728 243.518C831.215 243.794 831.797 243.935 832.474 243.943C833.14 243.95 833.715 243.82 834.197 243.555C834.679 243.279 835.073 242.897 835.381 242.411C835.698 241.925 835.934 241.36 836.086 240.715C836.239 240.071 836.319 239.379 836.327 238.64L836.331 238.312C836.339 237.582 836.273 236.899 836.134 236.263C835.995 235.615 835.772 235.045 835.465 234.552C835.168 234.049 834.777 233.654 834.29 233.368C833.814 233.071 833.237 232.919 832.56 232.912C831.894 232.905 831.319 233.044 830.837 233.331C830.355 233.607 829.96 233.993 829.653 234.49C829.345 234.976 829.115 235.542 828.963 236.186C828.81 236.82 828.73 237.501 828.722 238.23ZM847.634 233.385L847.419 253.54L843.278 253.496L843.529 230.091L847.357 230.132L847.634 233.385ZM858.439 238.532L858.436 238.86C858.423 240.089 858.264 241.228 857.962 242.277C857.669 243.316 857.243 244.223 856.682 244.998C856.122 245.763 855.428 246.36 854.601 246.788C853.784 247.207 852.844 247.41 851.781 247.399C850.74 247.388 849.836 247.18 849.069 246.776C848.303 246.362 847.658 245.782 847.135 245.037C846.611 244.292 846.193 243.428 845.881 242.445C845.579 241.452 845.356 240.372 845.213 239.203L845.224 238.157C845.393 236.919 845.64 235.796 845.963 234.789C846.297 233.772 846.733 232.896 847.272 232.162C847.812 231.418 848.464 230.847 849.228 230.449C850.003 230.051 850.907 229.857 851.938 229.868C853.011 229.88 853.951 230.093 854.759 230.508C855.578 230.923 856.264 231.514 856.819 232.28C857.373 233.046 857.785 233.957 858.055 235.012C858.325 236.067 858.453 237.24 858.439 238.532ZM854.295 238.816L854.299 238.488C854.307 237.738 854.247 237.045 854.118 236.408C853.989 235.76 853.787 235.196 853.511 234.714C853.235 234.221 852.875 233.837 852.43 233.561C851.985 233.286 851.444 233.145 850.809 233.138C850.174 233.131 849.626 233.229 849.165 233.433C848.705 233.636 848.326 233.929 848.031 234.311C847.735 234.694 847.501 235.149 847.328 235.679C847.167 236.198 847.056 236.775 846.997 237.41L846.97 240.003C847.055 240.775 847.23 241.47 847.494 242.087C847.759 242.705 848.149 243.199 848.666 243.569C849.193 243.939 849.879 244.128 850.723 244.138C851.358 244.144 851.901 244.009 852.352 243.733C852.803 243.457 853.172 243.075 853.458 242.588C853.745 242.092 853.954 241.521 854.086 240.876C854.218 240.232 854.287 239.545 854.295 238.816ZM868.331 244.326C868.914 244.332 869.436 244.223 869.897 243.998C870.358 243.774 870.726 243.455 871.001 243.041C871.287 242.628 871.443 242.145 871.47 241.593L875.36 241.635C875.327 242.78 874.993 243.803 874.358 244.702C873.724 245.602 872.883 246.312 871.835 246.832C870.799 247.342 869.64 247.59 868.359 247.576C867.057 247.562 865.924 247.331 864.96 246.883C863.996 246.436 863.195 245.818 862.557 245.03C861.93 244.242 861.461 243.33 861.149 242.296C860.848 241.261 860.703 240.155 860.716 238.978L860.721 238.478C860.734 237.301 860.902 236.199 861.225 235.171C861.559 234.143 862.048 233.242 862.692 232.468C863.346 231.693 864.16 231.093 865.133 230.666C866.107 230.238 867.239 230.032 868.531 230.046C869.895 230.06 871.09 230.339 872.116 230.881C873.152 231.423 873.956 232.182 874.529 233.157C875.112 234.132 875.407 235.276 875.414 236.588L871.524 236.547C871.509 235.942 871.38 235.399 871.135 234.917C870.89 234.436 870.54 234.046 870.085 233.75C869.63 233.453 869.074 233.302 868.418 233.295C867.72 233.287 867.135 233.427 866.663 233.713C866.202 234 865.838 234.397 865.572 234.905C865.317 235.402 865.134 235.963 865.023 236.587C864.923 237.2 864.869 237.845 864.862 238.523L864.856 239.023C864.849 239.71 864.889 240.367 864.976 240.993C865.073 241.619 865.244 242.183 865.489 242.686C865.744 243.178 866.099 243.573 866.554 243.869C867.02 244.166 867.612 244.318 868.331 244.326ZM882.636 230.509L882.455 247.414L878.33 247.37L878.511 230.465L882.636 230.509ZM893.651 230.626L886.087 240.921L881.697 240.874L881.222 237.088L884.268 237.12L888.448 230.571L893.651 230.626ZM888.517 247.479L883.97 240.18L887.43 238.06L894.001 247.537L888.517 247.479ZM900.126 241.712L906.4 230.763L910.541 230.807L910.36 247.712L906.219 247.668L906.337 236.637L900.063 247.602L895.923 247.558L896.104 230.653L900.244 230.697L900.126 241.712ZM921.699 248.146C920.418 248.132 919.269 247.911 918.253 247.484C917.237 247.056 916.373 246.469 915.662 245.722C914.962 244.964 914.425 244.089 914.05 243.095C913.686 242.091 913.51 241.016 913.522 239.87L913.528 239.245C913.542 237.943 913.743 236.763 914.129 235.705C914.515 234.636 915.056 233.72 915.752 232.956C916.448 232.193 917.277 231.608 918.24 231.202C919.203 230.795 920.262 230.598 921.418 230.61C922.616 230.623 923.671 230.838 924.583 231.254C925.496 231.659 926.255 232.23 926.862 232.966C927.469 233.701 927.923 234.581 928.225 235.605C928.526 236.619 928.67 237.74 928.657 238.969L928.639 240.704L915.389 240.562L915.42 237.719L924.607 237.817L924.61 237.504C924.596 236.848 924.478 236.248 924.254 235.703C924.031 235.149 923.682 234.708 923.206 234.38C922.731 234.041 922.113 233.868 921.352 233.86C920.738 233.853 920.2 233.983 919.739 234.249C919.288 234.505 918.909 234.876 918.602 235.362C918.305 235.838 918.08 236.408 917.927 237.073C917.774 237.739 917.693 238.477 917.684 239.29L917.678 239.915C917.67 240.623 917.757 241.28 917.938 241.886C918.129 242.493 918.41 243.022 918.78 243.474C919.161 243.915 919.616 244.264 920.144 244.519C920.683 244.765 921.297 244.891 921.984 244.899C922.849 244.908 923.632 244.749 924.333 244.424C925.045 244.087 925.665 243.589 926.193 242.928L928.248 245.106C927.888 245.623 927.404 246.118 926.794 246.591C926.196 247.063 925.473 247.446 924.626 247.739C923.779 248.022 922.803 248.157 921.699 248.146ZM800.391 260.21L803.735 260.246C803.725 261.131 803.603 261.875 803.367 262.477C803.132 263.068 802.772 263.564 802.289 263.965C801.805 264.356 801.187 264.677 800.435 264.93C799.682 265.182 798.784 265.402 797.74 265.589C796.863 265.756 796.089 266.04 795.418 266.439C794.747 266.838 794.184 267.389 793.728 268.093C793.283 268.796 792.956 269.694 792.746 270.786C792.537 271.877 792.46 273.194 792.517 274.736L792.507 275.643L789.269 275.983L789.278 275.077C789.3 273.067 789.501 271.319 789.881 269.833C790.262 268.337 790.791 267.082 791.469 266.069C792.146 265.044 792.952 264.235 793.885 263.641C794.83 263.037 795.881 262.615 797.04 262.378C797.812 262.23 798.444 262.075 798.936 261.914C799.437 261.752 799.804 261.543 800.036 261.285C800.268 261.016 800.387 260.658 800.391 260.21ZM797.989 268.56C799.125 268.572 800.128 268.781 800.998 269.186C801.88 269.581 802.619 270.136 803.215 270.85C803.812 271.555 804.261 272.388 804.563 273.349C804.876 274.301 805.027 275.339 805.014 276.464L805.011 276.792C804.998 277.958 804.81 279.035 804.445 280.02C804.091 281.006 803.576 281.86 802.902 282.582C802.228 283.304 801.399 283.863 800.415 284.259C799.432 284.655 798.31 284.846 797.049 284.832C795.8 284.819 794.687 284.594 793.713 284.156C792.738 283.708 791.917 283.095 791.248 282.317C790.579 281.539 790.078 280.627 789.746 279.582C789.413 278.526 789.254 277.379 789.267 276.139L789.271 275.811C789.262 275.603 789.332 275.406 789.48 275.22C789.628 275.034 789.802 274.827 790.002 274.6C790.213 274.373 790.404 274.099 790.574 273.778C791.158 272.68 791.814 271.739 792.541 270.955C793.279 270.171 794.098 269.576 794.998 269.169C795.899 268.751 796.896 268.548 797.989 268.56ZM797.158 271.801C796.272 271.792 795.551 271.998 794.995 272.419C794.449 272.83 794.047 273.383 793.789 274.078C793.532 274.763 793.399 275.517 793.39 276.34L793.387 276.668C793.38 277.334 793.44 277.965 793.57 278.56C793.709 279.145 793.922 279.663 794.209 280.114C794.496 280.565 794.878 280.923 795.354 281.189C795.83 281.444 796.407 281.575 797.084 281.582C797.761 281.59 798.336 281.471 798.807 281.226C799.289 280.971 799.678 280.621 799.974 280.176C800.271 279.731 800.49 279.218 800.632 278.636C800.784 278.044 800.863 277.414 800.871 276.748L800.874 276.42C800.881 275.805 800.814 275.221 800.674 274.667C800.545 274.114 800.336 273.627 800.049 273.207C799.762 272.777 799.375 272.44 798.888 272.195C798.411 271.94 797.835 271.809 797.158 271.801ZM817.137 281.125L817.221 273.328C817.227 272.755 817.133 272.26 816.94 271.841C816.746 271.422 816.448 271.096 816.044 270.862C815.64 270.629 815.126 270.509 814.501 270.502C813.949 270.496 813.463 270.585 813.045 270.768C812.636 270.951 812.321 271.213 812.099 271.555C811.876 271.886 811.763 272.27 811.758 272.707L807.618 272.663C807.625 271.965 807.799 271.306 808.139 270.684C808.479 270.052 808.959 269.495 809.579 269.012C810.209 268.519 810.958 268.136 811.826 267.864C812.704 267.592 813.684 267.462 814.768 267.474C816.049 267.487 817.187 267.718 818.182 268.166C819.188 268.604 819.973 269.258 820.536 270.129C821.11 271 821.39 272.091 821.376 273.404L821.297 280.778C821.288 281.622 821.333 282.347 821.43 282.952C821.539 283.547 821.7 284.064 821.914 284.504L821.911 284.77L817.708 284.725C817.515 284.296 817.369 283.752 817.272 283.095C817.175 282.427 817.13 281.771 817.137 281.125ZM817.787 274.428L817.792 276.881L815.183 276.854C814.537 276.847 813.969 276.908 813.478 277.039C812.987 277.158 812.584 277.341 812.268 277.588C811.953 277.824 811.716 278.114 811.556 278.456C811.396 278.787 811.314 279.167 811.309 279.594C811.305 280.01 811.395 280.386 811.579 280.722C811.773 281.057 812.051 281.326 812.414 281.527C812.787 281.719 813.223 281.817 813.723 281.823C814.452 281.83 815.089 281.691 815.634 281.406C816.179 281.109 816.605 280.749 816.911 280.325C817.218 279.902 817.384 279.497 817.409 279.112L818.577 280.906C818.427 281.331 818.203 281.782 817.906 282.258C817.61 282.734 817.23 283.178 816.767 283.59C816.304 284.001 815.749 284.339 815.1 284.603C814.451 284.867 813.7 284.994 812.846 284.985C811.752 284.974 810.775 284.744 809.915 284.298C809.055 283.851 808.38 283.245 807.888 282.479C807.396 281.713 807.155 280.846 807.166 279.878C807.175 278.982 807.35 278.192 807.691 277.508C808.032 276.824 808.533 276.251 809.194 275.79C809.855 275.317 810.671 274.967 811.643 274.738C812.625 274.498 813.746 274.385 815.006 274.398L817.787 274.428ZM831.942 281.939C832.525 281.945 833.047 281.836 833.508 281.612C833.969 281.388 834.337 281.069 834.612 280.655C834.898 280.241 835.054 279.759 835.081 279.207L838.971 279.248C838.938 280.394 838.604 281.416 837.969 282.316C837.335 283.216 836.494 283.925 835.446 284.445C834.41 284.955 833.251 285.203 831.97 285.19C830.667 285.176 829.534 284.945 828.57 284.497C827.606 284.049 826.806 283.431 826.168 282.643C825.541 281.855 825.072 280.944 824.76 279.909C824.459 278.875 824.314 277.769 824.327 276.592L824.332 276.092C824.345 274.915 824.513 273.812 824.836 272.785C825.17 271.757 825.659 270.856 826.303 270.081C826.957 269.307 827.771 268.706 828.744 268.279C829.717 267.852 830.85 267.645 832.142 267.659C833.506 267.674 834.701 267.952 835.727 268.494C836.762 269.037 837.567 269.795 838.14 270.77C838.723 271.745 839.018 272.889 839.025 274.202L835.135 274.16C835.12 273.556 834.991 273.013 834.746 272.531C834.501 272.049 834.151 271.66 833.696 271.363C833.241 271.067 832.685 270.915 832.029 270.908C831.331 270.901 830.746 271.04 830.274 271.327C829.813 271.614 829.449 272.011 829.183 272.518C828.928 273.016 828.745 273.576 828.634 274.2C828.533 274.814 828.48 275.459 828.472 276.136L828.467 276.636C828.46 277.324 828.5 277.98 828.587 278.606C828.684 279.232 828.855 279.797 829.1 280.299C829.355 280.792 829.71 281.186 830.165 281.483C830.631 281.779 831.223 281.931 831.942 281.939ZM848.628 282.117C849.212 282.124 849.734 282.015 850.194 281.79C850.655 281.566 851.023 281.247 851.298 280.833C851.584 280.42 851.74 279.937 851.767 279.385L855.658 279.427C855.624 280.572 855.291 281.595 854.656 282.494C854.021 283.394 853.18 284.104 852.133 284.624C851.096 285.133 849.937 285.381 848.656 285.368C847.354 285.354 846.221 285.123 845.257 284.675C844.293 284.227 843.492 283.609 842.855 282.821C842.228 282.033 841.758 281.122 841.447 280.087C841.145 279.053 841.001 277.947 841.013 276.77L841.019 276.27C841.031 275.093 841.199 273.991 841.523 272.963C841.857 271.935 842.346 271.034 842.989 270.26C843.643 269.485 844.457 268.885 845.431 268.457C846.404 268.03 847.536 267.824 848.828 267.837C850.193 267.852 851.388 268.13 852.413 268.673C853.449 269.215 854.253 269.974 854.826 270.948C855.41 271.924 855.705 273.067 855.712 274.38L851.821 274.338C851.807 273.734 851.677 273.191 851.432 272.709C851.187 272.227 850.837 271.838 850.382 271.542C849.927 271.245 849.371 271.093 848.715 271.086C848.017 271.079 847.432 271.218 846.961 271.505C846.499 271.792 846.136 272.189 845.87 272.697C845.614 273.194 845.431 273.755 845.32 274.378C845.22 274.992 845.166 275.637 845.159 276.314L845.154 276.814C845.146 277.502 845.186 278.158 845.273 278.784C845.371 279.41 845.542 279.975 845.786 280.477C846.042 280.97 846.397 281.364 846.852 281.661C847.317 281.957 847.91 282.11 848.628 282.117ZM865.936 285.552C864.655 285.539 863.506 285.318 862.49 284.89C861.474 284.463 860.61 283.876 859.899 283.128C859.199 282.371 858.662 281.495 858.287 280.502C857.923 279.498 857.747 278.423 857.759 277.277L857.765 276.652C857.779 275.35 857.98 274.17 858.366 273.111C858.752 272.043 859.293 271.126 859.989 270.363C860.685 269.6 861.514 269.015 862.477 268.608C863.44 268.202 864.499 268.005 865.655 268.017C866.853 268.03 867.908 268.244 868.82 268.66C869.733 269.066 870.492 269.637 871.099 270.372C871.706 271.108 872.16 271.988 872.462 273.012C872.763 274.026 872.907 275.147 872.894 276.376L872.876 278.11L859.627 277.969L859.657 275.125L868.844 275.223L868.847 274.911C868.833 274.254 868.715 273.654 868.492 273.11C868.268 272.556 867.919 272.114 867.443 271.786C866.968 271.448 866.35 271.275 865.589 271.267C864.975 271.26 864.437 271.39 863.976 271.656C863.525 271.911 863.146 272.282 862.839 272.769C862.542 273.245 862.317 273.815 862.164 274.48C862.011 275.145 861.93 275.884 861.922 276.696L861.915 277.321C861.907 278.03 861.994 278.687 862.175 279.293C862.366 279.899 862.647 280.428 863.017 280.88C863.398 281.322 863.853 281.67 864.381 281.926C864.92 282.171 865.534 282.298 866.221 282.305C867.086 282.314 867.869 282.156 868.57 281.83C869.282 281.494 869.902 280.995 870.43 280.334L872.485 282.513C872.125 283.03 871.641 283.525 871.031 283.997C870.433 284.47 869.71 284.853 868.863 285.146C868.016 285.429 867.04 285.564 865.936 285.552ZM879.799 279.497L886.073 268.548L890.213 268.592L890.032 285.497L885.892 285.453L886.01 274.422L879.736 285.387L875.595 285.343L875.776 268.438L879.917 268.482L879.799 279.497ZM885.378 261.899L888.378 261.931C888.369 262.806 888.147 263.58 887.712 264.252C887.278 264.925 886.663 265.45 885.867 265.827C885.082 266.193 884.153 266.371 883.08 266.359C881.466 266.342 880.189 265.912 879.25 265.068C878.311 264.225 877.849 263.142 877.863 261.819L880.863 261.851C880.857 262.403 881.023 262.9 881.362 263.341C881.702 263.782 882.282 264.007 883.105 264.016C883.928 264.024 884.509 263.812 884.847 263.378C885.195 262.944 885.372 262.451 885.378 261.899ZM905.435 275.692L905.4 278.926L896.729 278.834L896.763 275.6L905.435 275.692ZM898.134 268.676L897.953 285.582L893.813 285.538L893.994 268.632L898.134 268.676ZM908.399 268.786L908.219 285.691L904.062 285.647L904.243 268.742L908.399 268.786ZM915.031 274.06L919.968 274.113C921.468 274.129 922.741 274.393 923.788 274.904C924.845 275.405 925.645 276.101 926.188 276.992C926.741 277.873 927.011 278.892 926.999 280.048C926.99 280.881 926.82 281.655 926.489 282.371C926.169 283.076 925.704 283.69 925.095 284.215C924.485 284.73 923.736 285.128 922.847 285.41C921.969 285.692 920.968 285.828 919.843 285.815L912.25 285.734L912.43 268.829L916.571 268.873L916.425 282.544L919.877 282.581C920.596 282.589 921.17 282.475 921.6 282.24C922.04 281.995 922.356 281.681 922.548 281.297C922.75 280.904 922.853 280.483 922.858 280.035C922.863 279.577 922.769 279.148 922.575 278.751C922.392 278.342 922.083 278.011 921.648 277.756C921.224 277.502 920.652 277.371 919.933 277.363L914.996 277.31L915.031 274.06ZM934.054 269.06L933.873 285.965L929.733 285.921L929.914 269.016L934.054 269.06Z" fill="#456AA0"/>
<path d="M1034 238.001L1383 312.499" stroke="#456AA0" stroke-width="10"/>
<rect x="608.992" y="160.23" width="560" height="41" fill="white"/>
<g filter="url(#filter3_d_358_2624)">
<path d="M1286.27 397.172C1246.43 385.013 1246.87 328.456 1286.89 316.91C1290.77 315.792 1294.78 315.24 1298.82 315.271L1568.73 317.345C1572.76 317.376 1576.77 317.99 1580.63 319.167C1620.47 331.327 1620.04 387.884 1580.01 399.43C1576.14 400.548 1572.12 401.1 1568.09 401.069L1298.17 398.994C1294.14 398.963 1290.13 398.35 1286.27 397.172Z" fill="#6384B4"/>
<path d="M1285.78 313.067C1241.93 325.716 1241.46 387.677 1285.1 400.998C1289.33 402.288 1293.72 402.96 1298.14 402.994L1568.05 405.068C1572.47 405.102 1576.87 404.498 1581.12 403.273C1624.97 390.624 1625.45 328.663 1581.8 315.342C1577.57 314.052 1573.18 313.379 1568.76 313.346L1298.85 311.271C1294.43 311.237 1290.03 311.842 1285.78 313.067Z" stroke="#456AA0" stroke-width="8"/>
</g>
<g filter="url(#filter4_d_358_2624)">
<path d="M135.272 400.508C95.4299 388.349 95.8656 331.792 135.891 320.246C139.766 319.128 143.782 318.576 147.815 318.607L417.731 320.681C421.764 320.712 425.771 321.326 429.629 322.503C469.471 334.663 469.035 391.22 429.01 402.766C425.135 403.884 421.119 404.436 417.086 404.405L147.17 402.33C143.137 402.299 139.13 401.686 135.272 400.508Z" fill="#6384B4"/>
<path d="M134.782 316.403C90.9326 329.052 90.4553 391.013 134.105 404.334C138.331 405.624 142.721 406.296 147.139 406.33L417.055 408.404C421.473 408.438 425.873 407.834 430.119 406.609C473.968 393.96 474.446 331.999 430.796 318.677C426.57 317.388 422.18 316.715 417.762 316.681L147.846 314.607C143.428 314.573 139.027 315.178 134.782 316.403Z" stroke="#456AA0" stroke-width="8"/>
</g>
<path d="M1375.41 354.826C1375.4 355.67 1375.22 356.434 1374.88 357.118C1374.55 357.802 1374.1 358.356 1373.54 358.779C1372.88 359.288 1372.17 359.648 1371.42 359.858C1370.67 360.069 1369.7 360.168 1368.51 360.155L1362.18 360.088L1362.37 342.64L1374.05 342.764L1374.03 344.827L1364.67 344.727L1364.61 349.508L1368.69 349.551C1369.88 349.564 1370.85 349.645 1371.6 349.793C1372.35 349.934 1373.05 350.266 1373.71 350.788C1374.3 351.256 1374.73 351.831 1375 352.513C1375.28 353.196 1375.42 353.967 1375.41 354.826ZM1372.98 354.847C1372.99 354.261 1372.9 353.745 1372.71 353.297C1372.52 352.85 1372.22 352.487 1371.81 352.21C1371.38 351.916 1370.88 351.735 1370.32 351.666C1369.76 351.598 1368.97 351.558 1367.94 351.547L1364.59 351.511L1364.52 358.132L1367.82 358.167C1368.85 358.178 1369.65 358.136 1370.21 358.041C1370.77 357.945 1371.27 357.755 1371.69 357.47C1372.13 357.17 1372.45 356.818 1372.66 356.414C1372.87 356.002 1372.98 355.48 1372.98 354.847ZM1388.63 360.37L1386.44 360.347L1386.45 358.952C1386.26 359.083 1385.99 359.268 1385.65 359.506C1385.32 359.737 1385 359.921 1384.68 360.059C1384.31 360.234 1383.89 360.378 1383.41 360.49C1382.93 360.61 1382.38 360.667 1381.73 360.66C1380.56 360.647 1379.56 360.246 1378.75 359.456C1377.94 358.666 1377.54 357.666 1377.55 356.455C1377.56 355.463 1377.78 354.664 1378.21 354.059C1378.64 353.447 1379.26 352.969 1380.05 352.626C1380.85 352.283 1381.81 352.055 1382.93 351.942C1384.05 351.829 1385.25 351.748 1386.53 351.699L1386.53 351.359C1386.54 350.859 1386.45 350.444 1386.28 350.114C1386.11 349.784 1385.86 349.524 1385.54 349.333C1385.23 349.15 1384.85 349.025 1384.41 348.957C1383.98 348.89 1383.52 348.854 1383.04 348.849C1382.47 348.843 1381.82 348.914 1381.11 349.063C1380.4 349.204 1379.66 349.414 1378.9 349.695L1378.78 349.694L1378.81 347.456C1379.24 347.343 1379.86 347.221 1380.67 347.089C1381.49 346.957 1382.29 346.895 1383.08 346.904C1384 346.914 1384.8 347 1385.48 347.164C1386.16 347.32 1386.75 347.584 1387.25 347.956C1387.74 348.321 1388.11 348.79 1388.36 349.363C1388.61 349.936 1388.73 350.644 1388.72 351.488L1388.63 360.37ZM1386.47 357.124L1386.51 353.48C1385.84 353.512 1385.05 353.562 1384.13 353.63C1383.22 353.699 1382.5 353.804 1381.97 353.947C1381.34 354.12 1380.82 354.396 1380.43 354.774C1380.03 355.145 1379.83 355.663 1379.82 356.327C1379.82 357.077 1380.04 357.645 1380.49 358.033C1380.93 358.413 1381.62 358.608 1382.55 358.618C1383.33 358.626 1384.04 358.485 1384.68 358.195C1385.32 357.897 1385.92 357.54 1386.47 357.124ZM1403.43 360.528L1401.23 360.505L1401.35 349.267L1396.46 349.215C1396.43 349.863 1396.4 350.488 1396.37 351.089C1396.34 351.69 1396.31 352.233 1396.28 352.717C1396.21 354.021 1396.11 355.063 1395.98 355.843C1395.85 356.615 1395.67 357.258 1395.47 357.771C1395.27 358.254 1395.06 358.646 1394.82 358.948C1394.59 359.242 1394.34 359.509 1394.07 359.749C1393.81 359.98 1393.51 360.153 1393.18 360.266C1392.86 360.38 1392.5 360.435 1392.12 360.431C1391.99 360.43 1391.79 360.424 1391.53 360.413C1391.28 360.402 1391.12 360.397 1391.04 360.396L1391.06 358.474L1391.18 358.475C1391.24 358.476 1391.33 358.481 1391.45 358.49C1391.57 358.499 1391.66 358.504 1391.74 358.505C1391.93 358.507 1392.12 358.482 1392.32 358.429C1392.52 358.376 1392.69 358.277 1392.84 358.13C1393.24 357.743 1393.57 357.087 1393.82 356.16C1394.07 355.233 1394.25 353.891 1394.34 352.134C1394.38 351.494 1394.42 350.736 1394.45 349.861C1394.49 348.979 1394.53 348.139 1394.56 347.343L1403.57 347.439L1403.43 360.528ZM1417.52 349.522L1412.78 349.471L1412.66 360.627L1410.46 360.603L1410.58 349.448L1405.84 349.397L1405.87 347.464L1417.54 347.588L1417.52 349.522ZM1430.71 360.82L1428.53 360.796L1428.63 350.965L1421.67 360.723L1419.68 360.702L1419.82 347.613L1422 347.636L1421.9 357.327L1428.79 347.708L1430.85 347.73L1430.71 360.82ZM1446.08 360.984L1443.9 360.96L1444.01 351.129L1437.05 360.887L1435.06 360.866L1435.2 347.777L1437.38 347.8L1437.27 357.491L1444.16 347.873L1446.22 347.895L1446.08 360.984ZM1445.02 342.725C1444.97 343.881 1444.6 344.779 1443.89 345.42C1443.2 346.061 1442.19 346.375 1440.87 346.361C1439.55 346.347 1438.55 346.012 1437.86 345.356C1437.18 344.7 1436.82 343.794 1436.8 342.637L1438.8 342.659C1438.8 343.479 1438.97 344.075 1439.32 344.446C1439.68 344.817 1440.2 345.006 1440.89 345.013C1441.58 345.021 1442.11 344.847 1442.46 344.491C1442.82 344.135 1443 343.54 1443.02 342.704L1445.02 342.725ZM1460.24 360.315C1459.33 360.727 1458.56 361.008 1457.91 361.157C1457.26 361.314 1456.62 361.389 1455.98 361.382C1455.03 361.372 1454.15 361.226 1453.36 360.944C1452.57 360.655 1451.89 360.225 1451.32 359.657C1450.76 359.088 1450.32 358.373 1450.01 357.51C1449.71 356.647 1449.56 355.642 1449.57 354.493C1449.6 352.408 1450.19 350.75 1451.36 349.52C1452.53 348.282 1454.12 347.674 1456.13 347.696C1456.89 347.704 1457.63 347.817 1458.35 348.036C1459.08 348.255 1459.75 348.52 1460.36 348.831L1460.33 351.28L1460.2 351.279C1459.48 350.716 1458.77 350.298 1458.06 350.025C1457.36 349.752 1456.68 349.612 1456.01 349.605C1454.71 349.591 1453.69 350.018 1452.96 350.885C1452.24 351.752 1451.88 352.963 1451.86 354.518C1451.84 356.072 1452.19 357.283 1452.89 358.15C1453.59 359.017 1454.6 359.457 1455.91 359.471C1456.37 359.476 1456.83 359.423 1457.28 359.31C1457.74 359.198 1458.16 359.05 1458.54 358.867C1458.84 358.721 1459.14 358.549 1459.46 358.349C1459.78 358.142 1460.01 357.988 1460.13 357.888L1460.26 357.889L1460.24 360.315ZM1475.06 361.293L1472.18 361.262L1466.81 355.205L1465.61 355.192L1465.55 361.192L1463.34 361.168L1463.48 348.079L1465.69 348.103L1465.63 353.751C1466.35 353.758 1466.94 353.636 1467.39 353.383C1467.84 353.122 1468.22 352.704 1468.54 352.129C1468.65 351.92 1468.76 351.698 1468.86 351.465C1468.97 351.224 1469.08 350.994 1469.19 350.777C1469.6 349.898 1470.12 349.244 1470.73 348.813C1471.34 348.382 1472.22 348.172 1473.36 348.184L1474.37 348.195L1474.35 350.094L1473.38 350.083C1472.76 350.077 1472.27 350.204 1471.92 350.466C1471.57 350.72 1471.26 351.174 1470.97 351.827C1470.65 352.558 1470.31 353.105 1469.95 353.469C1469.61 353.824 1469.24 354.094 1468.84 354.277L1475.06 361.293ZM1488.48 361.437L1486.3 361.413L1486.4 351.582L1479.44 361.34L1477.45 361.319L1477.59 348.23L1479.77 348.253L1479.67 357.944L1486.56 348.325L1488.62 348.347L1488.48 361.437ZM1503.85 361.601L1501.67 361.577L1501.78 351.746L1494.82 361.504L1492.83 361.483L1492.97 348.394L1495.15 348.417L1495.04 358.108L1501.93 348.49L1503.99 348.512L1503.85 361.601ZM1502.79 343.342C1502.74 344.498 1502.37 345.396 1501.66 346.037C1500.97 346.678 1499.96 346.992 1498.64 346.978C1497.32 346.964 1496.32 346.629 1495.63 345.973C1494.95 345.317 1494.59 344.411 1494.57 343.254L1496.57 343.276C1496.57 344.096 1496.74 344.692 1497.09 345.063C1497.45 345.434 1497.97 345.623 1498.66 345.63C1499.35 345.638 1499.88 345.464 1500.23 345.108C1500.59 344.752 1500.77 344.157 1500.79 343.321L1502.79 343.342Z" fill="white"/>
<path d="M218.163 364.76L215.69 364.734L214.032 359.853L206.485 359.772L204.722 364.617L202.367 364.592L208.905 347.211L211.998 347.244L218.163 364.76ZM213.338 357.853L210.371 349.254L207.21 357.788L213.338 357.853ZM232.226 358.207C232.215 359.269 232.052 360.24 231.738 361.12C231.424 361.992 230.986 362.729 230.425 363.333C229.903 363.905 229.289 364.348 228.583 364.661C227.884 364.966 227.144 365.114 226.363 365.106C225.683 365.098 225.067 365.018 224.514 364.863C223.968 364.709 223.412 364.473 222.845 364.154L222.787 369.638L220.584 369.615L220.776 351.698L222.979 351.721L222.964 353.092C223.555 352.606 224.216 352.203 224.946 351.883C225.684 351.555 226.467 351.395 227.295 351.404C228.873 351.421 230.093 352.032 230.955 353.236C231.825 354.433 232.249 356.09 232.226 358.207ZM229.952 358.241C229.969 356.663 229.712 355.481 229.181 354.694C228.651 353.907 227.827 353.507 226.71 353.496C226.077 353.489 225.439 353.619 224.795 353.885C224.152 354.152 223.535 354.505 222.944 354.944L222.865 362.361C223.487 362.649 224.02 362.846 224.464 362.953C224.916 363.059 225.427 363.115 225.997 363.121C227.224 363.134 228.185 362.731 228.882 361.91C229.578 361.089 229.935 359.866 229.952 358.241ZM247.4 365.073L244.517 365.042L239.144 358.984L237.949 358.971L237.884 364.971L235.681 364.947L235.822 351.858L238.025 351.882L237.964 357.53C238.691 357.538 239.278 357.415 239.726 357.162C240.174 356.901 240.557 356.483 240.876 355.909C240.988 355.699 241.096 355.477 241.2 355.244C241.312 355.003 241.42 354.774 241.523 354.556C241.939 353.678 242.454 353.023 243.068 352.592C243.682 352.161 244.559 351.952 245.7 351.964L246.708 351.975L246.687 353.873L245.715 353.863C245.098 353.856 244.612 353.984 244.257 354.245C243.911 354.5 243.594 354.953 243.305 355.606C242.985 356.337 242.647 356.885 242.292 357.248C241.944 357.604 241.574 357.873 241.181 358.057L247.4 365.073ZM259.53 354.045L254.796 353.995L254.676 365.15L252.473 365.127L252.593 353.971L247.859 353.921L247.879 351.987L259.551 352.112L259.53 354.045ZM272.722 365.343L270.543 365.32L270.648 355.488L263.688 365.247L261.696 365.225L261.836 352.136L264.015 352.159L263.912 361.85L270.8 352.232L272.862 352.254L272.722 365.343ZM287.264 365.498L285.061 365.475L285.115 360.448C284.402 360.659 283.72 360.827 283.071 360.953C282.421 361.079 281.713 361.138 280.948 361.13C279.541 361.115 278.471 360.76 277.736 360.064C277.001 359.361 276.641 358.357 276.655 357.052L276.706 352.295L278.909 352.318L278.87 355.951C278.865 356.451 278.891 356.901 278.949 357.3C279.008 357.691 279.137 358.032 279.337 358.323C279.537 358.607 279.82 358.825 280.185 358.977C280.551 359.129 281.062 359.209 281.718 359.216C282.257 359.222 282.844 359.177 283.477 359.082C284.111 358.98 284.663 358.861 285.134 358.725L285.202 352.386L287.405 352.409L287.264 365.498ZM302.624 359.346L292.98 359.243C292.972 360.047 293.085 360.752 293.321 361.356C293.557 361.952 293.883 362.444 294.301 362.831C294.703 363.21 295.181 363.497 295.733 363.69C296.294 363.884 296.91 363.984 297.582 363.991C298.473 364.001 299.369 363.834 300.271 363.493C301.181 363.143 301.829 362.798 302.216 362.459L302.333 362.46L302.307 364.862C301.562 365.167 300.801 365.42 300.026 365.623C299.25 365.826 298.436 365.922 297.585 365.913C295.413 365.89 293.724 365.286 292.518 364.101C291.312 362.909 290.72 361.23 290.744 359.066C290.767 356.926 291.367 355.233 292.544 353.988C293.729 352.742 295.275 352.13 297.181 352.15C298.947 352.169 300.301 352.699 301.243 353.741C302.193 354.782 302.657 356.252 302.637 358.15L302.624 359.346ZM300.498 357.635C300.502 356.479 300.219 355.581 299.648 354.942C299.084 354.304 298.217 353.978 297.045 353.965C295.865 353.953 294.92 354.29 294.209 354.978C293.507 355.666 293.103 356.525 292.998 357.555L300.498 357.635ZM315.701 364.982C314.798 365.394 314.022 365.675 313.372 365.824C312.729 365.981 312.088 366.056 311.447 366.05C310.494 366.039 309.621 365.893 308.827 365.611C308.033 365.322 307.354 364.892 306.79 364.324C306.226 363.755 305.788 363.04 305.477 362.177C305.174 361.314 305.028 360.309 305.04 359.16C305.063 357.075 305.659 355.417 306.828 354.187C307.998 352.949 309.586 352.341 311.594 352.363C312.352 352.371 313.093 352.484 313.817 352.703C314.549 352.922 315.218 353.187 315.824 353.498L315.798 355.947L315.669 355.946C314.949 355.383 314.234 354.965 313.526 354.692C312.826 354.419 312.144 354.279 311.48 354.272C310.175 354.258 309.159 354.685 308.431 355.552C307.71 356.419 307.342 357.63 307.325 359.185C307.309 360.739 307.651 361.95 308.353 362.817C309.055 363.684 310.062 364.124 311.374 364.138C311.835 364.143 312.293 364.09 312.747 363.977C313.209 363.865 313.629 363.717 314.006 363.534C314.304 363.388 314.611 363.216 314.925 363.016C315.248 362.809 315.472 362.655 315.598 362.555L315.727 362.556L315.701 364.982ZM330.528 365.96L327.645 365.93L322.272 359.872L321.077 359.859L321.013 365.859L318.81 365.835L318.95 352.746L321.153 352.77L321.092 358.418C321.819 358.425 322.406 358.303 322.854 358.05C323.302 357.789 323.686 357.371 324.004 356.796C324.116 356.587 324.224 356.365 324.328 356.132C324.44 355.891 324.548 355.662 324.652 355.444C325.067 354.565 325.582 353.911 326.196 353.48C326.81 353.049 327.687 352.839 328.828 352.852L329.836 352.862L329.815 354.761L328.843 354.75C328.226 354.744 327.74 354.871 327.385 355.133C327.039 355.387 326.722 355.841 326.433 356.494C326.113 357.225 325.775 357.772 325.42 358.136C325.072 358.491 324.702 358.761 324.309 358.944L330.528 365.96ZM343.945 366.104L341.765 366.08L341.87 356.249L334.91 366.007L332.918 365.986L333.058 352.897L335.238 352.92L335.134 362.611L342.023 352.992L344.085 353.015L343.945 366.104ZM359.319 366.268L357.139 366.245L357.245 356.413L350.284 366.171L348.292 366.15L348.432 353.061L350.612 353.084L350.508 362.775L357.397 353.157L359.459 353.179L359.319 366.268ZM358.26 348.009C358.209 349.165 357.832 350.063 357.13 350.704C356.436 351.346 355.428 351.659 354.108 351.645C352.788 351.631 351.783 351.296 351.095 350.64C350.415 349.984 350.061 349.078 350.034 347.922L352.038 347.943C352.037 348.763 352.21 349.359 352.558 349.73C352.913 350.101 353.435 350.29 354.122 350.297C354.818 350.305 355.343 350.131 355.698 349.775C356.054 349.419 356.24 348.824 356.257 347.988L358.26 348.009Z" fill="white"/>
<defs>
<filter id="filter0_d_358_2624" x="291.629" y="439.5" width="401.641" height="133.801" filterUnits="userSpaceOnUse" color-interpolation-filters="sRGB">
<feFlood flood-opacity="0" result="BackgroundImageFix"/>
<feColorMatrix in="SourceAlpha" type="matrix" values="0 0 0 0 0 0 0 0 0 0 0 0 0 0 0 0 0 0 127 0" result="hardAlpha"/>
<feOffset dy="7"/>
<feGaussianBlur stdDeviation="8"/>
<feColorMatrix type="matrix" values="0 0 0 0 0 0 0 0 0 0 0 0 0 0 0 0 0 0 0.19 0"/>
<feBlend mode="normal" in2="BackgroundImageFix" result="effect1_dropShadow_358_2624"/>
<feBlend mode="normal" in="SourceGraphic" in2="effect1_dropShadow_358_2624" result="shape"/>
</filter>
<filter id="filter1_d_358_2624" x="685.629" y="468.777" width="401.641" height="133.801" filterUnits="userSpaceOnUse" color-interpolation-filters="sRGB">
<feFlood flood-opacity="0" result="BackgroundImageFix"/>
<feColorMatrix in="SourceAlpha" type="matrix" values="0 0 0 0 0 0 0 0 0 0 0 0 0 0 0 0 0 0 127 0" result="hardAlpha"/>
<feOffset dy="7"/>
<feGaussianBlur stdDeviation="8"/>
<feColorMatrix type="matrix" values="0 0 0 0 0 0 0 0 0 0 0 0 0 0 0 0 0 0 0.19 0"/>
<feBlend mode="normal" in2="BackgroundImageFix" result="effect1_dropShadow_358_2624"/>
<feBlend mode="normal" in="SourceGraphic" in2="effect1_dropShadow_358_2624" result="shape"/>
</filter>
<filter id="filter2_d_358_2624" x="1073.63" y="435.266" width="401.641" height="133.801" filterUnits="userSpaceOnUse" color-interpolation-filters="sRGB">
<feFlood flood-opacity="0" result="BackgroundImageFix"/>
<feColorMatrix in="SourceAlpha" type="matrix" values="0 0 0 0 0 0 0 0 0 0 0 0 0 0 0 0 0 0 127 0" result="hardAlpha"/>
<feOffset dy="7"/>
<feGaussianBlur stdDeviation="8"/>
<feColorMatrix type="matrix" values="0 0 0 0 0 0 0 0 0 0 0 0 0 0 0 0 0 0 0.19 0"/>
<feBlend mode="normal" in2="BackgroundImageFix" result="effect1_dropShadow_358_2624"/>
<feBlend mode="normal" in="SourceGraphic" in2="effect1_dropShadow_358_2624" result="shape"/>
</filter>
<filter id="filter3_d_358_2624" x="1232.63" y="298.27" width="401.641" height="133.801" filterUnits="userSpaceOnUse" color-interpolation-filters="sRGB">
<feFlood flood-opacity="0" result="BackgroundImageFix"/>
<feColorMatrix in="SourceAlpha" type="matrix" values="0 0 0 0 0 0 0 0 0 0 0 0 0 0 0 0 0 0 127 0" result="hardAlpha"/>
<feOffset dy="7"/>
<feGaussianBlur stdDeviation="8"/>
<feColorMatrix type="matrix" values="0 0 0 0 0 0 0 0 0 0 0 0 0 0 0 0 0 0 0.19 0"/>
<feBlend mode="normal" in2="BackgroundImageFix" result="effect1_dropShadow_358_2624"/>
<feBlend mode="normal" in="SourceGraphic" in2="effect1_dropShadow_358_2624" result="shape"/>
</filter>
<filter id="filter4_d_358_2624" x="81.6289" y="301.605" width="401.641" height="133.801" filterUnits="userSpaceOnUse" color-interpolation-filters="sRGB">
<feFlood flood-opacity="0" result="BackgroundImageFix"/>
<feColorMatrix in="SourceAlpha" type="matrix" values="0 0 0 0 0 0 0 0 0 0 0 0 0 0 0 0 0 0 127 0" result="hardAlpha"/>
<feOffset dy="7"/>
<feGaussianBlur stdDeviation="8"/>
<feColorMatrix type="matrix" values="0 0 0 0 0 0 0 0 0 0 0 0 0 0 0 0 0 0 0.19 0"/>
<feBlend mode="normal" in2="BackgroundImageFix" result="effect1_dropShadow_358_2624"/>
<feBlend mode="normal" in="SourceGraphic" in2="effect1_dropShadow_358_2624" result="shape"/>
</filter>
</defs>
</svg>
