<svg width="483" height="512" viewBox="0 0 483 512" fill="none" xmlns="http://www.w3.org/2000/svg">
<path d="M224.758 88.5898H338.617C340.488 88.5898 342.277 89.332 343.598 90.6523L363.086 110.141C364.543 111.598 367.035 110.566 367.035 108.508V95.6328C367.035 91.7422 370.188 88.5898 374.078 88.5898H381.449C387.496 88.5898 392.402 83.6836 392.402 77.6367V10.9531C392.402 4.90625 387.496 0 381.449 0H224.758C218.707 0 213.801 4.90625 213.801 10.9531V77.6367C213.805 83.6836 218.707 88.5898 224.758 88.5898Z" fill="#A9C0D3"/>
<path d="M359.676 66.5117H246.531C242.328 66.5117 238.918 63.1016 238.918 58.8984C238.918 54.6953 242.328 51.2891 246.531 51.2891H359.676C363.879 51.2891 367.289 54.6953 367.289 58.8984C367.289 63.1016 363.879 66.5117 359.676 66.5117Z" fill="white"/>
<path d="M359.676 38.3438H305.469C301.27 38.3438 297.859 34.9336 297.859 30.7305C297.859 26.5273 301.27 23.1211 305.469 23.1211H359.676C363.879 23.1211 367.289 26.5273 367.289 30.7305C367.289 34.9336 363.879 38.3438 359.676 38.3438Z" fill="white"/>
<path d="M286.059 204.516H172.199C170.332 204.516 168.539 205.258 167.219 206.578L147.73 226.066C146.273 227.523 143.785 226.492 143.785 224.434V211.562C143.785 207.672 140.629 204.516 136.738 204.516H129.371C123.32 204.516 118.414 199.613 118.414 193.562V126.883C118.414 120.832 123.32 115.93 129.367 115.93H286.059C292.109 115.93 297.016 120.832 297.016 126.883V193.562C297.016 199.613 292.109 204.516 286.059 204.516Z" fill="#A9C0D3"/>
<path d="M264.289 182.438H151.141C146.938 182.438 143.531 179.031 143.531 174.828C143.531 170.625 146.938 167.215 151.141 167.215H264.289C268.492 167.215 271.898 170.625 271.898 174.828C271.898 179.031 268.492 182.438 264.289 182.438Z" fill="white"/>
<path d="M205.348 154.27H151.141C146.938 154.27 143.531 150.859 143.531 146.656C143.531 142.453 146.938 139.047 151.141 139.047H205.348C209.551 139.047 212.957 142.453 212.957 146.656C212.957 150.863 209.551 154.27 205.348 154.27Z" fill="white"/>
<path d="M381.898 323.465H108.238C94.1914 323.465 82.8086 312.082 82.8086 298.035V297.055C82.8086 295.891 83.75 294.949 84.9141 294.949H405.223C406.383 294.949 407.328 295.891 407.328 297.055V298.035C407.328 312.082 395.945 323.465 381.898 323.465Z" fill="#D9D9D9"/>
<path d="M405.223 294.949H84.9141C83.75 294.949 82.8086 295.891 82.8086 297.055V298.035C82.8086 302.047 83.7383 305.836 85.3906 309.207H404.746C406.398 305.836 407.328 302.043 407.328 298.035V297.055C407.328 295.891 406.387 294.949 405.223 294.949Z" fill="#D9D9D9"/>
<path d="M61.8906 239.926H27.4492L32.0078 206.59L34.9805 206.773L58.707 208.223L60.3594 224.645L61.8906 239.926Z" fill="#FCC1B9"/>
<path d="M128.371 409.547H7.61328C3.41016 409.547 0 406.137 0 401.934C0 397.73 3.41016 394.324 7.61328 394.324H128.371C132.574 394.324 135.98 397.73 135.98 401.934C135.98 406.137 132.574 409.547 128.371 409.547Z" fill="#AEAEAE"/>
<path d="M7.62179 512.001C7.19992 512.001 6.77804 511.966 6.34835 511.895C2.20382 511.196 -0.589148 507.27 0.106165 503.126L17.3601 400.673C18.0554 396.524 21.9851 393.735 26.1257 394.43C30.2741 395.126 33.0671 399.052 32.3679 403.196L15.1179 505.653C14.4929 509.368 11.2702 512.001 7.62179 512.001Z" fill="#D9D9D9"/>
<path d="M128.361 512.001C124.58 512.001 121.302 509.185 120.822 505.337L107.966 402.884C107.443 398.712 110.4 394.908 114.572 394.384C118.744 393.861 122.544 396.818 123.068 400.99L135.923 503.443C136.447 507.615 133.49 511.419 129.318 511.943C128.998 511.982 128.677 512.001 128.361 512.001Z" fill="#D9D9D9"/>
<path d="M7.61328 349.523L10.1719 375.984C11.5977 390.703 23.9688 401.934 38.7539 401.934H115.516L125.492 477.285C126.113 481.961 132.719 482.371 133.914 477.809L153.785 401.785C158.277 384.594 146.266 367.484 128.574 365.867L67.9922 360.328L7.61328 349.523Z" fill="#23344F"/>
<path d="M55.3047 281.177L84.9141 294.951H179.109V293.33C179.109 281.466 170.914 271.177 159.352 268.517L89.4688 262.912L64.4375 241.623C53.5859 233.627 38.9883 232.959 27.457 239.931L23.1836 242.513C18.4609 245.369 15.4141 250.334 15.0078 255.838L7.61328 349.525L72.5195 360.744L67.2266 286.724" fill="#2F6BA7"/>
<path d="M57.0042 293.397L60.68 358.694L72.5198 360.741L67.2269 286.721C62.3831 284.26 56.6956 287.971 57.0042 293.397Z" fill="#15406B"/>
<path d="M159.352 268.517L89.4688 262.912L64.4375 241.623C53.5859 233.627 38.9883 232.959 27.457 239.931L23.1836 242.513C19.8555 244.525 17.3633 247.591 16.0391 251.15L16.543 250.845C28.0781 243.869 42.6758 244.537 53.5234 252.537L78.5586 273.822L148.441 279.427C156.824 281.357 163.418 287.306 166.418 294.951H179.109V293.33C179.109 281.466 170.914 271.177 159.352 268.517Z" fill="#15406B"/>
<path d="M60.3594 224.645C49.3594 224.086 39.9727 217.43 35.5078 207.98C35.3242 207.586 35.1445 207.18 34.9805 206.773L58.7031 208.223L60.3594 224.645Z" fill="#F2AA99"/>
<path d="M76.2422 156.277V184.074C76.2422 200.188 63.1797 213.246 47.0664 213.246C35.4141 213.246 25.3477 206.418 20.6797 196.535C18.8945 192.762 17.8906 188.527 17.8906 184.074V156.277C17.8906 144.641 27.3281 135.211 38.957 135.211H55.1719C65.668 135.211 74.3633 142.875 75.9648 152.922C76.1484 154.004 76.2422 155.133 76.2422 156.277Z" fill="#FCC1B9"/>
<path d="M75.9648 152.918L45.0781 165.148C42.4492 166.184 40.7109 168.73 40.7109 171.551V178.887C40.7109 181.141 39.625 183.238 37.7891 184.527L20.6797 196.535C18.8945 192.758 17.8906 188.527 17.8906 184.074V156.277C17.8906 144.641 27.3281 135.211 38.957 135.211H55.1719C65.668 135.211 74.3633 142.871 75.9648 152.918Z" fill="#354968"/>
<path d="M454.762 239.926H420.32L421.781 225.383L423.504 208.223L447.547 206.754L450.203 206.59L454.762 239.926Z" fill="#FCC1B9"/>
<path d="M474.598 409.547H353.84C349.637 409.547 346.23 406.137 346.23 401.934C346.23 397.73 349.637 394.324 353.84 394.324H474.598C478.801 394.324 482.211 397.73 482.211 401.934C482.211 406.137 478.801 409.547 474.598 409.547Z" fill="#AEAEAE"/>
<path d="M474.592 512.002C470.943 512.002 467.72 509.369 467.095 505.654L449.845 403.201C449.146 399.056 451.943 395.131 456.088 394.431C460.232 393.732 464.158 396.529 464.857 400.674L482.107 503.127C482.806 507.271 480.009 511.197 475.865 511.896C475.439 511.967 475.009 512.002 474.592 512.002Z" fill="#D9D9D9"/>
<path d="M353.853 511.998C353.537 511.998 353.216 511.979 352.896 511.94C348.724 511.416 345.767 507.612 346.291 503.44L359.146 400.987C359.669 396.815 363.474 393.854 367.646 394.381C371.814 394.905 374.771 398.709 374.248 402.881L361.396 505.334C360.912 509.182 357.634 511.998 353.853 511.998Z" fill="#D9D9D9"/>
<path d="M474.599 349.523L472.04 375.984C470.614 390.703 458.243 401.934 443.458 401.934H366.696L356.72 477.285C356.099 481.961 349.493 482.371 348.298 477.809L328.427 401.785C323.935 384.594 335.946 367.484 353.638 365.867L414.22 360.328L474.599 349.523Z" fill="#354968"/>
<path d="M345.75 468.059L348.301 477.809C349.492 482.371 356.102 481.961 356.719 477.285L366.695 401.934C359.719 401.934 353.824 407.102 352.906 414.016L345.75 468.059Z" fill="#2A3A51"/>
<path d="M462.195 351.742L459.848 375.984C458.422 390.703 446.055 401.934 431.266 401.934H443.457C458.242 401.934 470.613 390.703 472.039 375.984L474.598 349.523L462.195 351.742Z" fill="#2A3A51"/>
<path d="M426.906 281.177L397.297 294.951H303.105V293.33C303.105 281.466 311.297 271.177 322.859 268.517L392.742 262.912L417.777 241.623C428.625 233.627 443.223 232.959 454.758 239.931L459.027 242.513C463.75 245.369 466.797 250.334 467.203 255.838L474.598 349.525L409.691 360.744L414.984 286.724" fill="#456AA0"/>
<path d="M311.664 285.138C364.047 286.9 391.031 277.521 406.078 267.986C411.246 264.713 429.082 252.498 444.223 258.291C445.531 258.791 449.926 260.529 453.539 264.802C462.348 275.205 457.562 290.009 456.48 306.884C455.781 317.752 456.395 332.943 462.262 351.654C466.375 350.943 470.488 350.232 474.602 349.521L467.207 255.838C466.797 250.334 463.75 245.369 459.027 242.513L454.758 239.931C443.223 232.959 428.625 233.627 417.777 241.623L392.742 262.912L322.859 268.517C312.883 270.81 305.426 278.791 303.566 288.56C306.266 287.42 308.965 286.279 311.664 285.138Z" fill="#263E62"/>
<path d="M447.547 206.754C447.281 207.422 447.008 208.07 446.703 208.711C442.23 218.18 432.812 224.848 421.781 225.383L423.504 208.223L447.547 206.754Z" fill="#F2AA99"/>
<path d="M464.32 156.277V184.074C464.32 188.527 463.316 192.758 461.527 196.535C456.859 206.418 446.793 213.246 435.145 213.246C419.031 213.246 405.969 200.188 405.969 184.07V156.277C405.969 155.129 406.062 154.004 406.242 152.918C407.848 142.871 416.543 135.211 427.035 135.211H443.254C454.883 135.211 464.32 144.641 464.32 156.277Z" fill="#FCC1B9"/>
<path d="M464.32 156.277V184.074C464.32 188.527 463.316 192.758 461.527 196.535L444.418 184.527C442.582 183.238 441.496 181.141 441.496 178.887V171.551C441.496 168.73 439.762 166.184 437.133 165.148L406.242 152.918C407.848 142.871 416.543 135.211 427.035 135.211H443.254C454.883 135.211 464.32 144.641 464.32 156.277Z" fill="#493D3D"/>
<path d="M309.801 494.207C309.801 494.422 309.789 494.633 309.781 494.848C309.762 495.223 309.711 495.586 309.648 495.953C309.609 496.227 309.547 496.488 309.477 496.754C309.465 496.773 309.457 496.797 309.457 496.816C308.309 501.168 304.34 504.387 299.621 504.387H181.383C178.57 504.387 176.023 503.246 174.188 501.402C172.34 499.566 171.203 497.02 171.203 494.207C171.203 489.184 174.855 484.91 179.809 484.141L209.867 479.441C215.203 478.609 219.82 475.82 223.008 471.863C225.961 468.23 227.707 463.594 227.707 458.609V323.461H253.297V458.609C253.297 469 260.867 477.84 271.137 479.441L301.195 484.141C302.75 484.383 304.168 484.961 305.387 485.805C305.754 486.059 306.098 486.332 306.434 486.625C307.641 487.711 308.582 489.082 309.152 490.625L309.305 491.051C309.629 492.055 309.801 493.109 309.801 494.207Z" fill="#D9D9D9"/>
<path d="M309.801 494.207C309.801 494.422 309.789 494.633 309.781 494.848C309.762 495.223 309.711 495.586 309.648 495.953C309.598 496.227 309.535 496.488 309.477 496.754C309.465 496.773 309.457 496.797 309.457 496.816C308.246 501.238 304.027 504.387 299.27 504.387H297.695C297.562 504.102 296.375 504.121 294.324 504.387H181.383C178.57 504.387 176.023 503.246 174.188 501.402C172.34 499.566 171.203 497.02 171.203 494.207C171.203 489.184 174.855 484.91 179.809 484.141L209.867 479.441C215.203 478.609 219.82 475.82 223.008 471.863C234.047 469.477 242.137 465.449 242.137 458.762V352.363C242.137 348.375 240.523 344.762 237.902 342.152C235.297 339.535 231.695 337.922 227.707 337.922V323.461H253.297V458.605C253.297 468.996 260.867 477.836 271.137 479.441L301.195 484.137C302.75 484.383 304.168 484.961 305.387 485.801C305.754 486.055 306.098 486.328 306.434 486.625C307.641 487.711 308.582 489.078 309.152 490.621C309.215 490.766 309.266 490.906 309.305 491.047C309.629 492.055 309.801 493.109 309.801 494.207Z" fill="#AEAEAE"/>
</svg>
